{"glyphs":{"0":{"ha":833,"x_min":51,"x_max":782,"o":"m 417 -14 q 221 44 303 -14 q 95 215 139 103 q 51 485 51 326 q 95 756 51 643 q 221 927 139 868 q 417 986 303 986 q 614 927 532 986 q 739 756 696 868 q 782 485 782 643 q 739 215 782 326 q 614 44 696 103 q 417 -14 532 -14 m 417 139 q 524 178 481 139 q 590 294 567 217 q 613 485 613 371 q 590 677 613 600 q 524 794 567 754 q 417 833 481 833 q 310 794 354 833 q 244 677 267 754 q 221 485 221 600 q 244 294 221 371 q 310 178 267 217 q 417 139 354 139 z "},"1":{"ha":833,"x_min":121,"x_max":754,"o":"m 358 61 l 358 775 q 347 806 358 794 q 317 817 336 817 l 121 817 l 121 972 l 363 972 q 478 927 433 972 q 524 811 524 882 l 524 61 l 358 61 m 124 0 l 124 156 l 754 156 l 754 0 l 124 0 z "},"2":{"ha":833,"x_min":72,"x_max":751,"o":"m 86 0 l 86 125 l 428 469 q 493 547 469 511 q 528 615 517 582 q 539 681 539 649 q 498 787 539 747 q 388 826 457 826 q 276 793 326 826 q 181 697 225 760 l 72 804 q 210 938 128 889 q 393 986 292 986 q 559 949 488 986 q 671 848 631 913 q 711 699 711 783 q 694 595 711 647 q 642 488 678 543 q 546 372 607 433 l 282 107 l 274 151 l 751 151 l 751 0 l 86 0 z "},"3":{"ha":833,"x_min":61,"x_max":742,"o":"m 383 -14 q 200 20 279 -14 q 61 111 121 54 l 156 225 q 256 153 201 179 q 385 128 311 128 q 486 147 443 128 q 553 199 529 165 q 576 278 576 232 q 529 377 576 340 q 401 414 482 414 l 257 414 l 257 558 l 389 558 q 476 577 439 558 q 534 628 514 596 q 554 700 554 660 q 508 803 554 765 q 386 842 463 842 q 265 815 318 842 q 174 747 211 788 l 79 863 q 215 952 135 918 q 392 986 296 986 q 563 953 489 986 q 677 861 636 921 q 718 721 718 801 q 682 585 718 646 q 575 488 646 524 q 406 451 504 451 l 406 535 q 595 499 521 535 q 706 403 669 464 q 742 269 742 343 q 696 122 742 185 q 568 22 650 58 q 383 -14 486 -14 z "},"4":{"ha":833,"x_min":51,"x_max":789,"o":"m 51 219 l 51 358 l 351 972 l 519 972 l 210 319 l 171 368 l 789 368 l 789 219 l 51 219 m 489 0 l 489 614 l 651 614 l 651 0 l 489 0 z "},"5":{"ha":833,"x_min":69,"x_max":753,"o":"m 388 -14 q 208 20 288 -14 q 69 111 128 54 l 163 225 q 264 154 208 181 q 389 128 319 128 q 535 176 482 128 q 588 308 588 225 q 544 425 588 381 q 424 469 501 469 q 328 444 368 469 q 267 374 288 418 l 132 374 l 142 822 q 189 931 143 889 q 301 972 235 972 l 713 972 l 713 824 l 336 824 q 309 813 321 824 q 296 788 297 803 l 285 458 l 221 458 q 304 570 246 528 q 458 613 363 613 q 613 575 547 613 q 716 472 679 538 q 753 317 753 406 q 706 138 753 213 q 576 25 658 64 q 388 -14 494 -14 z "},"6":{"ha":833,"x_min":68,"x_max":779,"o":"m 425 -14 q 235 28 315 -14 q 111 145 154 69 q 68 324 68 221 q 97 461 68 392 q 174 603 125 531 l 429 972 l 632 972 l 324 556 l 254 550 q 351 615 299 594 q 460 636 403 636 q 625 594 553 636 q 738 481 697 553 q 779 314 779 408 q 734 140 779 214 q 609 26 689 67 q 425 -14 529 -14 m 422 132 q 518 155 476 132 q 583 219 560 178 q 607 313 607 260 q 583 408 607 367 q 519 472 560 449 q 424 496 478 496 q 327 472 368 496 q 263 408 286 449 q 239 313 239 367 q 290 182 239 232 q 422 132 340 132 z "},"7":{"ha":833,"x_min":76,"x_max":758,"o":"m 151 0 l 593 863 l 629 821 l 76 821 l 76 972 l 758 972 l 758 856 l 340 0 l 151 0 z "},"8":{"ha":833,"x_min":53,"x_max":781,"o":"m 417 -14 q 224 21 307 -14 q 97 119 142 56 q 53 268 53 183 q 90 406 53 347 q 195 498 126 465 q 356 531 264 531 l 356 478 q 213 510 274 478 q 117 599 151 543 q 83 725 83 654 q 125 862 83 803 q 242 953 167 921 q 417 986 317 986 q 592 953 518 986 q 708 863 667 921 q 749 726 749 804 q 715 599 749 656 q 621 510 682 543 q 478 478 560 478 l 478 531 q 639 498 571 531 q 744 406 707 465 q 781 269 781 347 q 735 119 781 183 q 609 21 690 56 q 417 -14 528 -14 m 417 131 q 517 150 474 131 q 583 204 560 169 q 607 285 607 239 q 583 365 607 332 q 517 417 560 399 q 418 436 475 436 q 318 417 361 436 q 251 365 275 399 q 226 285 226 332 q 250 204 226 239 q 317 150 274 169 q 417 131 360 131 m 418 567 q 539 603 494 567 q 583 703 583 640 q 538 801 583 764 q 417 839 493 839 q 296 801 342 839 q 250 703 250 764 q 296 603 250 640 q 418 567 342 567 z "},"9":{"ha":833,"x_min":54,"x_max":765,"o":"m 201 0 l 510 417 l 579 422 q 483 357 535 378 q 374 336 431 336 q 208 378 281 336 q 95 492 136 419 q 54 658 54 565 q 99 832 54 758 q 224 946 144 906 q 408 986 304 986 q 599 944 519 986 q 722 828 679 903 q 765 649 765 753 q 737 511 765 581 q 660 369 708 442 l 404 0 l 201 0 m 410 476 q 506 500 465 476 q 571 565 547 524 q 594 660 594 607 q 544 790 594 740 q 411 840 494 840 q 315 817 357 840 q 250 753 274 794 q 226 660 226 713 q 250 565 226 607 q 315 500 274 524 q 410 476 357 476 z "},"A":{"ha":938,"x_min":8,"x_max":928,"o":"m 8 0 l 364 972 l 574 972 l 928 0 l 753 0 l 457 842 l 481 842 l 183 0 l 8 0 m 164 239 l 219 383 l 719 383 l 776 239 l 164 239 z "},"Á":{"ha":938,"x_min":8,"x_max":928,"o":"m 8 0 l 364 972 l 574 972 l 928 0 l 753 0 l 457 842 l 481 842 l 183 0 l 8 0 m 164 239 l 219 383 l 719 383 l 776 239 l 164 239 m 386 1061 l 506 1267 l 696 1267 l 553 1061 l 386 1061 z "},"Ă":{"ha":938,"x_min":8,"x_max":928,"o":"m 8 0 l 364 972 l 574 972 l 928 0 l 753 0 l 457 842 l 481 842 l 183 0 l 8 0 m 164 239 l 219 383 l 719 383 l 776 239 l 164 239 m 469 1054 q 352 1075 404 1054 q 272 1142 300 1096 q 243 1267 243 1189 l 372 1267 q 396 1185 372 1208 q 469 1163 419 1163 q 544 1185 521 1163 q 568 1267 568 1208 l 696 1267 q 667 1142 696 1189 q 587 1075 638 1096 q 469 1054 536 1054 z "},"Ǎ":{"ha":938,"x_min":8,"x_max":928,"o":"m 8 0 l 364 972 l 574 972 l 928 0 l 753 0 l 457 842 l 481 842 l 183 0 l 8 0 m 164 239 l 219 383 l 719 383 l 776 239 l 164 239 m 383 1061 l 210 1267 l 367 1267 l 517 1108 l 424 1108 l 572 1267 l 728 1267 l 554 1061 l 383 1061 z "},"Â":{"ha":938,"x_min":8,"x_max":928,"o":"m 8 0 l 364 972 l 574 972 l 928 0 l 753 0 l 457 842 l 481 842 l 183 0 l 8 0 m 164 239 l 219 383 l 719 383 l 776 239 l 164 239 m 211 1061 l 385 1267 l 556 1267 l 729 1061 l 572 1061 l 422 1221 l 515 1221 l 367 1061 l 211 1061 z "},"Ä":{"ha":938,"x_min":8,"x_max":928,"o":"m 8 0 l 364 972 l 574 972 l 928 0 l 753 0 l 457 842 l 481 842 l 183 0 l 8 0 m 164 239 l 219 383 l 719 383 l 776 239 l 164 239 m 535 1093 l 535 1260 l 693 1260 l 693 1093 l 535 1093 m 244 1093 l 244 1260 l 403 1260 l 403 1093 l 244 1093 z "},"À":{"ha":938,"x_min":8,"x_max":928,"o":"m 8 0 l 364 972 l 574 972 l 928 0 l 753 0 l 457 842 l 481 842 l 183 0 l 8 0 m 164 239 l 219 383 l 719 383 l 776 239 l 164 239 m 386 1061 l 243 1267 l 433 1267 l 553 1061 l 386 1061 z "},"Ā":{"ha":938,"x_min":8,"x_max":928,"o":"m 8 0 l 364 972 l 574 972 l 928 0 l 753 0 l 457 842 l 481 842 l 183 0 l 8 0 m 164 239 l 219 383 l 719 383 l 776 239 l 164 239 m 257 1085 l 257 1207 l 683 1207 l 683 1085 l 257 1085 z "},"Ą":{"ha":938,"x_min":8,"x_max":928,"o":"m 8 0 l 364 972 l 574 972 l 928 0 l 753 0 l 457 842 l 481 842 l 183 0 l 8 0 m 164 239 l 219 383 l 719 383 l 776 239 l 164 239 m 751 -278 q 652 -243 688 -278 q 617 -154 617 -208 q 633 -84 617 -117 q 690 -6 650 -51 l 758 76 l 833 0 l 776 -83 q 764 -106 769 -93 q 758 -131 758 -118 q 767 -156 758 -143 q 799 -168 775 -168 l 831 -168 l 831 -278 l 751 -278 z "},"Å":{"ha":938,"x_min":8,"x_max":928,"o":"m 8 0 l 364 972 l 574 972 l 928 0 l 753 0 l 457 842 l 481 842 l 183 0 l 8 0 m 164 239 l 219 383 l 719 383 l 776 239 l 164 239 m 468 1040 q 348 1081 394 1040 q 301 1188 301 1122 q 348 1292 301 1250 q 468 1333 394 1333 q 589 1292 542 1333 q 636 1188 636 1250 q 589 1081 636 1122 q 468 1040 542 1040 m 468 1121 q 520 1139 500 1121 q 540 1186 540 1157 q 521 1234 540 1217 q 469 1251 501 1251 q 416 1234 436 1251 q 396 1186 396 1217 q 417 1139 396 1157 q 468 1121 438 1121 z "},"Ã":{"ha":938,"x_min":8,"x_max":928,"o":"m 8 0 l 364 972 l 574 972 l 928 0 l 753 0 l 457 842 l 481 842 l 183 0 l 8 0 m 164 239 l 219 383 l 719 383 l 776 239 l 164 239 m 571 1046 q 506 1062 535 1046 q 453 1098 476 1078 q 410 1133 429 1118 q 375 1149 390 1149 q 350 1131 357 1149 q 343 1086 343 1113 l 224 1086 q 262 1222 225 1174 q 365 1271 299 1271 q 428 1256 400 1271 q 481 1220 457 1240 q 526 1185 506 1200 q 563 1169 547 1169 q 592 1189 585 1169 q 599 1233 599 1208 l 717 1233 q 678 1095 717 1144 q 571 1046 640 1046 z "},"Æ":{"ha":1319,"x_min":-29,"x_max":1247,"o":"m -29 0 l 540 972 l 1247 972 l 1247 817 l 729 817 l 801 889 l 801 206 q 816 170 801 185 q 851 156 831 156 l 1247 156 l 1247 0 l 794 0 q 679 46 725 0 q 633 163 633 92 l 633 881 l 668 869 l 161 0 l -29 0 m 153 232 l 240 376 l 722 376 l 722 232 l 153 232 m 743 414 l 743 563 l 1218 563 l 1218 414 l 743 414 z "},"B":{"ha":874,"x_min":110,"x_max":815,"o":"m 110 0 l 110 972 l 465 972 q 695 905 611 972 q 779 724 779 838 q 755 610 779 665 q 680 520 731 556 q 547 485 629 485 l 550 511 q 695 478 636 511 q 785 390 754 444 q 815 269 815 335 q 728 74 815 147 q 485 0 642 0 l 110 0 m 276 82 l 208 140 l 457 140 q 592 180 546 140 q 639 285 639 219 q 619 359 639 326 q 563 411 600 392 q 474 431 526 431 l 219 431 l 219 565 l 451 565 q 566 602 525 565 q 607 701 607 639 q 564 797 607 761 q 444 832 521 832 l 208 832 l 276 890 l 276 82 z "},"C":{"ha":907,"x_min":57,"x_max":885,"o":"m 558 -21 q 363 16 454 -21 q 203 119 272 53 q 96 276 135 185 q 57 476 57 368 l 57 496 q 96 696 57 604 q 203 853 135 788 q 363 956 272 919 q 558 993 454 993 q 735 963 656 993 q 879 876 815 933 l 769 749 q 558 826 683 826 q 428 802 488 826 q 324 734 368 778 q 256 629 281 690 q 232 496 232 568 l 232 476 q 256 343 232 404 q 324 238 281 282 q 428 170 368 194 q 558 146 488 146 q 775 229 686 146 l 885 101 q 737 11 819 43 q 558 -21 654 -21 z "},"Ć":{"ha":907,"x_min":57,"x_max":885,"o":"m 558 -21 q 363 16 454 -21 q 203 119 272 53 q 96 276 135 185 q 57 476 57 368 l 57 496 q 96 696 57 604 q 203 853 135 788 q 363 956 272 919 q 558 993 454 993 q 735 963 656 993 q 879 876 815 933 l 769 749 q 558 826 683 826 q 428 802 488 826 q 324 734 368 778 q 256 629 281 690 q 232 496 232 568 l 232 476 q 256 343 232 404 q 324 238 281 282 q 428 170 368 194 q 558 146 488 146 q 775 229 686 146 l 885 101 q 737 11 819 43 q 558 -21 654 -21 m 485 1061 l 604 1267 l 794 1267 l 651 1061 l 485 1061 z "},"Č":{"ha":907,"x_min":57,"x_max":885,"o":"m 558 -21 q 363 16 454 -21 q 203 119 272 53 q 96 276 135 185 q 57 476 57 368 l 57 496 q 96 696 57 604 q 203 853 135 788 q 363 956 272 919 q 558 993 454 993 q 735 963 656 993 q 879 876 815 933 l 769 749 q 558 826 683 826 q 428 802 488 826 q 324 734 368 778 q 256 629 281 690 q 232 496 232 568 l 232 476 q 256 343 232 404 q 324 238 281 282 q 428 170 368 194 q 558 146 488 146 q 775 229 686 146 l 885 101 q 737 11 819 43 q 558 -21 654 -21 m 482 1061 l 308 1267 l 465 1267 l 615 1108 l 522 1108 l 671 1267 l 826 1267 l 653 1061 l 482 1061 z "},"Ç":{"ha":908,"x_min":58,"x_max":885,"o":"m 558 -21 q 363 16 454 -21 q 203 119 272 53 q 96 276 135 185 q 57 476 57 368 l 57 496 q 96 696 57 604 q 203 853 135 788 q 363 956 272 919 q 558 993 454 993 q 735 963 656 993 q 879 876 815 933 l 769 749 q 558 826 683 826 q 428 802 488 826 q 324 734 368 778 q 256 629 281 690 q 232 496 232 568 l 232 476 q 256 343 232 404 q 324 238 281 282 q 428 170 368 194 q 558 146 488 146 q 775 229 686 146 l 885 101 q 737 11 819 43 q 558 -21 654 -21 m 513 -293 l 390 -293 l 390 -214 l 513 -214 q 550 -203 538 -214 q 563 -174 563 -192 q 550 -145 563 -156 q 513 -135 538 -135 l 428 -135 l 461 38 l 571 38 l 544 -86 l 469 -60 l 542 -60 q 644 -90 608 -60 q 679 -171 679 -119 q 636 -261 679 -229 q 513 -293 593 -293 z "},"Ċ":{"ha":907,"x_min":57,"x_max":885,"o":"m 558 -21 q 363 16 454 -21 q 203 119 272 53 q 96 276 135 185 q 57 476 57 368 l 57 496 q 96 696 57 604 q 203 853 135 788 q 363 956 272 919 q 558 993 454 993 q 735 963 656 993 q 879 876 815 933 l 769 749 q 558 826 683 826 q 428 802 488 826 q 324 734 368 778 q 256 629 281 690 q 232 496 232 568 l 232 476 q 256 343 232 404 q 324 238 281 282 q 428 170 368 194 q 558 146 488 146 q 775 229 686 146 l 885 101 q 737 11 819 43 q 558 -21 654 -21 m 479 1092 l 479 1260 l 657 1260 l 657 1092 l 479 1092 z "},"D":{"ha":1000,"x_min":110,"x_max":940,"o":"m 110 0 l 110 972 l 460 972 q 650 938 563 972 q 803 840 738 904 q 904 690 868 776 q 940 497 940 603 l 940 482 q 904 288 940 376 q 802 135 868 199 q 649 35 736 71 q 460 0 561 0 l 110 0 m 279 88 l 208 160 l 446 160 q 612 200 539 160 q 726 314 685 240 q 767 482 767 388 l 767 497 q 726 663 767 593 q 613 773 685 733 q 446 813 540 813 l 208 813 l 279 885 l 279 88 z "},"Ď":{"ha":1000,"x_min":110,"x_max":940,"o":"m 110 0 l 110 972 l 460 972 q 650 938 563 972 q 803 840 738 904 q 904 690 868 776 q 940 497 940 603 l 940 482 q 904 288 940 376 q 802 135 868 199 q 649 35 736 71 q 460 0 561 0 l 110 0 m 279 88 l 208 160 l 446 160 q 612 200 539 160 q 726 314 685 240 q 767 482 767 388 l 767 497 q 726 663 767 593 q 613 773 685 733 q 446 813 540 813 l 208 813 l 279 885 l 279 88 m 401 1061 l 228 1267 l 385 1267 l 535 1108 l 442 1108 l 590 1267 l 746 1267 l 572 1061 l 401 1061 z "},"Đ":{"ha":1056,"x_min":44,"x_max":996,"o":"m 44 431 l 44 569 l 556 569 l 556 431 l 44 431 m 165 0 l 165 972 l 515 972 q 706 938 618 972 q 858 840 793 904 q 960 690 924 776 q 996 497 996 603 l 996 482 q 960 288 996 376 q 858 135 924 199 q 704 35 792 71 q 515 0 617 0 l 165 0 m 335 88 l 264 160 l 501 160 q 667 200 594 160 q 781 314 740 240 q 822 482 822 388 l 822 497 q 781 663 822 593 q 668 773 740 733 q 501 813 596 813 l 264 813 l 335 885 l 335 88 z "},"Ð":{"ha":1056,"x_min":44,"x_max":996,"o":"m 44 431 l 44 569 l 556 569 l 556 431 l 44 431 m 165 0 l 165 972 l 515 972 q 706 938 618 972 q 858 840 793 904 q 960 690 924 776 q 996 497 996 603 l 996 482 q 960 288 996 376 q 858 135 924 199 q 704 35 792 71 q 515 0 617 0 l 165 0 m 335 88 l 264 160 l 501 160 q 667 200 594 160 q 781 314 740 240 q 822 482 822 388 l 822 497 q 781 663 822 593 q 668 773 740 733 q 501 813 596 813 l 264 813 l 335 885 l 335 88 z "},"E":{"ha":807,"x_min":101,"x_max":736,"o":"m 263 0 q 147 46 192 0 q 101 163 101 92 l 101 810 q 147 926 101 881 q 263 972 192 972 l 736 972 l 736 817 l 319 817 q 284 802 299 817 q 269 767 269 788 l 269 206 q 284 170 269 185 q 319 156 299 156 l 736 156 l 736 0 l 263 0 m 183 414 l 183 563 l 707 563 l 707 414 l 183 414 z "},"É":{"ha":807,"x_min":101,"x_max":736,"o":"m 263 0 q 147 46 192 0 q 101 163 101 92 l 101 810 q 147 926 101 881 q 263 972 192 972 l 736 972 l 736 817 l 319 817 q 284 802 299 817 q 269 767 269 788 l 269 206 q 284 170 269 185 q 319 156 299 156 l 736 156 l 736 0 l 263 0 m 183 414 l 183 563 l 707 563 l 707 414 l 183 414 m 364 1061 l 483 1267 l 674 1267 l 531 1061 l 364 1061 z "},"Ě":{"ha":807,"x_min":101,"x_max":736,"o":"m 263 0 q 147 46 192 0 q 101 163 101 92 l 101 810 q 147 926 101 881 q 263 972 192 972 l 736 972 l 736 817 l 319 817 q 284 802 299 817 q 269 767 269 788 l 269 206 q 284 170 269 185 q 319 156 299 156 l 736 156 l 736 0 l 263 0 m 183 414 l 183 563 l 707 563 l 707 414 l 183 414 m 361 1061 l 188 1267 l 344 1267 l 494 1108 l 401 1108 l 550 1267 l 706 1267 l 532 1061 l 361 1061 z "},"Ê":{"ha":807,"x_min":101,"x_max":736,"o":"m 263 0 q 147 46 192 0 q 101 163 101 92 l 101 810 q 147 926 101 881 q 263 972 192 972 l 736 972 l 736 817 l 319 817 q 284 802 299 817 q 269 767 269 788 l 269 206 q 284 170 269 185 q 319 156 299 156 l 736 156 l 736 0 l 263 0 m 183 414 l 183 563 l 707 563 l 707 414 l 183 414 m 189 1061 l 363 1267 l 533 1267 l 707 1061 l 550 1061 l 400 1221 l 493 1221 l 344 1061 l 189 1061 z "},"Ë":{"ha":807,"x_min":101,"x_max":736,"o":"m 263 0 q 147 46 192 0 q 101 163 101 92 l 101 810 q 147 926 101 881 q 263 972 192 972 l 736 972 l 736 817 l 319 817 q 284 802 299 817 q 269 767 269 788 l 269 206 q 284 170 269 185 q 319 156 299 156 l 736 156 l 736 0 l 263 0 m 183 414 l 183 563 l 707 563 l 707 414 l 183 414 m 513 1093 l 513 1260 l 671 1260 l 671 1093 l 513 1093 m 222 1093 l 222 1260 l 381 1260 l 381 1093 l 222 1093 z "},"Ė":{"ha":807,"x_min":101,"x_max":736,"o":"m 263 0 q 147 46 192 0 q 101 163 101 92 l 101 810 q 147 926 101 881 q 263 972 192 972 l 736 972 l 736 817 l 319 817 q 284 802 299 817 q 269 767 269 788 l 269 206 q 284 170 269 185 q 319 156 299 156 l 736 156 l 736 0 l 263 0 m 183 414 l 183 563 l 707 563 l 707 414 l 183 414 m 358 1092 l 358 1260 l 536 1260 l 536 1092 l 358 1092 z "},"È":{"ha":807,"x_min":101,"x_max":736,"o":"m 263 0 q 147 46 192 0 q 101 163 101 92 l 101 810 q 147 926 101 881 q 263 972 192 972 l 736 972 l 736 817 l 319 817 q 284 802 299 817 q 269 767 269 788 l 269 206 q 284 170 269 185 q 319 156 299 156 l 736 156 l 736 0 l 263 0 m 183 414 l 183 563 l 707 563 l 707 414 l 183 414 m 364 1061 l 221 1267 l 411 1267 l 531 1061 l 364 1061 z "},"Ē":{"ha":807,"x_min":101,"x_max":736,"o":"m 263 0 q 147 46 192 0 q 101 163 101 92 l 101 810 q 147 926 101 881 q 263 972 192 972 l 736 972 l 736 817 l 319 817 q 284 802 299 817 q 269 767 269 788 l 269 206 q 284 170 269 185 q 319 156 299 156 l 736 156 l 736 0 l 263 0 m 183 414 l 183 563 l 707 563 l 707 414 l 183 414 m 235 1085 l 235 1207 l 661 1207 l 661 1085 l 235 1085 z "},"Ę":{"ha":807,"x_min":101,"x_max":736,"o":"m 263 0 q 147 46 192 0 q 101 163 101 92 l 101 810 q 147 926 101 881 q 263 972 192 972 l 736 972 l 736 817 l 319 817 q 284 802 299 817 q 269 767 269 788 l 269 206 q 284 170 269 185 q 319 156 299 156 l 736 156 l 736 0 l 263 0 m 183 414 l 183 563 l 707 563 l 707 414 l 183 414 m 654 -278 q 555 -243 590 -278 q 519 -154 519 -208 q 536 -84 519 -117 q 593 -6 553 -51 l 661 76 l 736 0 l 679 -83 q 667 -106 672 -93 q 661 -131 661 -118 q 669 -156 661 -143 q 701 -168 678 -168 l 733 -168 l 733 -278 l 654 -278 z "},"F":{"ha":775,"x_min":106,"x_max":732,"o":"m 106 0 l 106 810 q 151 926 106 881 q 268 972 197 972 l 732 972 l 732 817 l 326 817 q 291 802 306 817 q 276 767 276 788 l 276 0 l 106 0 m 193 376 l 193 529 l 699 529 l 699 376 l 193 376 z "},"G":{"ha":1032,"x_min":58,"x_max":1001,"o":"m 550 -21 q 294 42 406 -21 q 121 219 183 106 q 58 478 58 332 l 58 493 q 122 753 58 640 q 299 930 185 867 q 558 993 413 993 q 748 958 663 993 q 899 858 833 922 l 781 739 q 679 809 735 788 q 561 831 624 831 q 391 788 465 831 q 274 669 317 744 q 232 493 232 593 l 232 478 q 274 302 232 378 q 388 183 315 226 q 554 139 461 139 q 672 163 619 139 q 760 226 725 186 q 812 322 796 267 q 818 439 828 376 l 892 392 l 589 392 l 589 531 l 988 531 q 977 308 1001 408 q 894 133 953 207 q 749 19 836 60 q 550 -21 663 -21 z "},"Ğ":{"ha":1032,"x_min":58,"x_max":1001,"o":"m 550 -21 q 294 42 406 -21 q 121 219 183 106 q 58 478 58 332 l 58 493 q 122 753 58 640 q 299 930 185 867 q 558 993 413 993 q 748 958 663 993 q 899 858 833 922 l 781 739 q 679 809 735 788 q 561 831 624 831 q 391 788 465 831 q 274 669 317 744 q 232 493 232 593 l 232 478 q 274 302 232 378 q 388 183 315 226 q 554 139 461 139 q 672 163 619 139 q 760 226 725 186 q 812 322 796 267 q 818 439 828 376 l 892 392 l 589 392 l 589 531 l 988 531 q 977 308 1001 408 q 894 133 953 207 q 749 19 836 60 q 550 -21 663 -21 m 547 1054 q 430 1075 482 1054 q 349 1142 378 1096 q 321 1267 321 1189 l 450 1267 q 474 1185 450 1208 q 547 1163 497 1163 q 622 1185 599 1163 q 646 1267 646 1208 l 774 1267 q 744 1142 774 1189 q 665 1075 715 1096 q 547 1054 614 1054 z "},"Ģ":{"ha":1032,"x_min":58,"x_max":1001,"o":"m 550 -21 q 294 42 406 -21 q 121 219 183 106 q 58 478 58 332 l 58 493 q 122 753 58 640 q 299 930 185 867 q 558 993 413 993 q 748 958 663 993 q 899 858 833 922 l 781 739 q 679 809 735 788 q 561 831 624 831 q 391 788 465 831 q 274 669 317 744 q 232 493 232 593 l 232 478 q 274 302 232 378 q 388 183 315 226 q 554 139 461 139 q 672 163 619 139 q 760 226 725 186 q 812 322 796 267 q 818 439 828 376 l 892 392 l 589 392 l 589 531 l 988 531 q 977 308 1001 408 q 894 133 953 207 q 749 19 836 60 q 550 -21 663 -21 m 428 -293 l 428 -231 l 521 -231 q 539 -211 539 -231 l 539 -182 l 446 -182 l 446 -81 l 615 -81 l 615 -206 q 601 -258 615 -239 q 566 -285 588 -278 q 524 -293 544 -293 l 428 -293 z "},"Ġ":{"ha":1032,"x_min":58,"x_max":1001,"o":"m 550 -21 q 294 42 406 -21 q 121 219 183 106 q 58 478 58 332 l 58 493 q 122 753 58 640 q 299 930 185 867 q 558 993 413 993 q 748 958 663 993 q 899 858 833 922 l 781 739 q 679 809 735 788 q 561 831 624 831 q 391 788 465 831 q 274 669 317 744 q 232 493 232 593 l 232 478 q 274 302 232 378 q 388 183 315 226 q 554 139 461 139 q 672 163 619 139 q 760 226 725 186 q 812 322 796 267 q 818 439 828 376 l 892 392 l 589 392 l 589 531 l 988 531 q 977 308 1001 408 q 894 133 953 207 q 749 19 836 60 q 550 -21 663 -21 m 458 1092 l 458 1260 l 636 1260 l 636 1092 l 458 1092 z "},"H":{"ha":1019,"x_min":110,"x_max":911,"o":"m 739 0 l 739 972 l 911 972 l 911 0 l 739 0 m 110 0 l 110 972 l 281 972 l 281 0 l 110 0 m 199 424 l 199 579 l 806 579 l 806 424 l 199 424 z "},"Ħ":{"ha":1085,"x_min":42,"x_max":1044,"o":"m 42 669 l 42 797 l 1044 797 l 1044 669 l 42 669 m 772 0 l 772 972 l 943 972 l 943 0 l 772 0 m 142 0 l 142 972 l 313 972 l 313 0 l 142 0 m 231 351 l 231 507 l 838 507 l 838 351 l 231 351 z "},"I":{"ha":614,"x_min":58,"x_max":556,"o":"m 221 54 l 221 918 l 393 918 l 393 54 l 221 54 m 58 817 l 58 972 l 556 972 l 556 817 l 58 817 m 58 0 l 58 156 l 556 156 l 556 0 l 58 0 z "},"Í":{"ha":614,"x_min":58,"x_max":556,"o":"m 221 54 l 221 918 l 393 918 l 393 54 l 221 54 m 58 817 l 58 972 l 556 972 l 556 817 l 58 817 m 58 0 l 58 156 l 556 156 l 556 0 l 58 0 m 225 1061 l 344 1267 l 535 1267 l 392 1061 l 225 1061 z "},"Î":{"ha":614,"x_min":49,"x_max":568,"o":"m 221 54 l 221 918 l 393 918 l 393 54 l 221 54 m 58 817 l 58 972 l 556 972 l 556 817 l 58 817 m 58 0 l 58 156 l 556 156 l 556 0 l 58 0 m 50 1061 l 224 1267 l 394 1267 l 568 1061 l 411 1061 l 261 1221 l 354 1221 l 206 1061 l 50 1061 z "},"Ï":{"ha":614,"x_min":58,"x_max":556,"o":"m 221 54 l 221 918 l 393 918 l 393 54 l 221 54 m 58 817 l 58 972 l 556 972 l 556 817 l 58 817 m 58 0 l 58 156 l 556 156 l 556 0 l 58 0 m 374 1093 l 374 1260 l 532 1260 l 532 1093 l 374 1093 m 83 1093 l 83 1260 l 242 1260 l 242 1093 l 83 1093 z "},"İ":{"ha":614,"x_min":58,"x_max":556,"o":"m 221 54 l 221 918 l 393 918 l 393 54 l 221 54 m 58 817 l 58 972 l 556 972 l 556 817 l 58 817 m 58 0 l 58 156 l 556 156 l 556 0 l 58 0 m 219 1092 l 219 1260 l 397 1260 l 397 1092 l 219 1092 z "},"Ì":{"ha":614,"x_min":58,"x_max":556,"o":"m 221 54 l 221 918 l 393 918 l 393 54 l 221 54 m 58 817 l 58 972 l 556 972 l 556 817 l 58 817 m 58 0 l 58 156 l 556 156 l 556 0 l 58 0 m 225 1061 l 82 1267 l 272 1267 l 392 1061 l 225 1061 z "},"Ī":{"ha":614,"x_min":58,"x_max":556,"o":"m 221 54 l 221 918 l 393 918 l 393 54 l 221 54 m 58 817 l 58 972 l 556 972 l 556 817 l 58 817 m 58 0 l 58 156 l 556 156 l 556 0 l 58 0 m 96 1085 l 96 1207 l 522 1207 l 522 1085 l 96 1085 z "},"Į":{"ha":614,"x_min":58,"x_max":556,"o":"m 221 54 l 221 918 l 393 918 l 393 54 l 221 54 m 58 817 l 58 972 l 556 972 l 556 817 l 58 817 m 58 0 l 58 156 l 556 156 l 556 0 l 58 0 m 311 -278 q 212 -243 247 -278 q 176 -154 176 -208 q 193 -84 176 -117 q 250 -6 210 -51 l 318 76 l 393 0 l 336 -83 q 324 -106 329 -93 q 318 -131 318 -118 q 326 -156 318 -143 q 358 -168 335 -168 l 390 -168 l 390 -278 l 311 -278 z "},"J":{"ha":592,"x_min":36,"x_max":488,"o":"m 36 0 l 36 156 l 233 156 q 293 178 269 156 q 317 238 317 201 l 317 889 l 388 817 l 81 817 l 81 972 l 488 972 l 488 254 q 419 65 488 129 q 218 0 351 0 l 36 0 z "},"K":{"ha":878,"x_min":110,"x_max":876,"o":"m 211 160 l 193 389 l 658 972 l 856 972 l 211 160 m 110 0 l 110 972 l 279 972 l 279 0 l 110 0 m 672 0 l 381 510 l 501 635 l 876 0 l 672 0 z "},"Ķ":{"ha":878,"x_min":110,"x_max":876,"o":"m 211 160 l 193 389 l 658 972 l 856 972 l 211 160 m 110 0 l 110 972 l 279 972 l 279 0 l 110 0 m 672 0 l 381 510 l 501 635 l 876 0 l 672 0 m 374 -293 l 374 -231 l 467 -231 q 485 -211 485 -231 l 485 -182 l 392 -182 l 392 -81 l 561 -81 l 561 -206 q 547 -258 561 -239 q 512 -285 533 -278 q 469 -293 490 -293 l 374 -293 z "},"L":{"ha":736,"x_min":106,"x_max":718,"o":"m 268 0 q 151 46 197 0 q 106 163 106 92 l 106 972 l 276 972 l 276 211 q 291 175 276 190 q 326 160 306 160 l 718 160 l 718 0 l 268 0 z "},"Ĺ":{"ha":736,"x_min":106,"x_max":718,"o":"m 268 0 q 151 46 197 0 q 106 163 106 92 l 106 972 l 276 972 l 276 211 q 291 175 276 190 q 326 160 306 160 l 718 160 l 718 0 l 268 0 m 110 1061 l 229 1267 l 419 1267 l 276 1061 l 110 1061 z "},"Ľ":{"ha":740,"x_min":106,"x_max":718,"o":"m 268 0 q 151 46 197 0 q 106 163 106 92 l 106 972 l 276 972 l 276 211 q 291 175 276 190 q 326 160 306 160 l 718 160 l 718 0 l 268 0 m 440 697 l 440 972 l 592 972 l 572 697 l 440 697 z "},"Ļ":{"ha":736,"x_min":106,"x_max":718,"o":"m 268 0 q 151 46 197 0 q 106 163 106 92 l 106 972 l 276 972 l 276 211 q 291 175 276 190 q 326 160 306 160 l 718 160 l 718 0 l 268 0 m 318 -293 l 318 -231 l 411 -231 q 429 -211 429 -231 l 429 -182 l 336 -182 l 336 -81 l 506 -81 l 506 -206 q 492 -258 506 -239 q 456 -285 478 -278 q 414 -293 435 -293 l 318 -293 z "},"Ł":{"ha":815,"x_min":46,"x_max":797,"o":"m 46 297 l 46 458 l 572 694 l 572 533 l 46 297 m 347 0 q 231 46 276 0 q 185 163 185 92 l 185 972 l 356 972 l 356 211 q 370 175 356 190 q 406 160 385 160 l 797 160 l 797 0 l 347 0 z "},"M":{"ha":1151,"x_min":110,"x_max":1043,"o":"m 110 0 l 110 972 l 338 972 l 615 354 l 536 354 l 814 972 l 1043 972 l 1043 0 l 876 0 l 876 888 l 936 886 l 640 207 l 513 207 l 215 886 l 275 888 l 275 0 l 110 0 z "},"N":{"ha":993,"x_min":110,"x_max":883,"o":"m 110 0 l 110 972 l 264 972 l 785 194 l 713 182 l 713 972 l 883 972 l 883 0 l 732 0 l 214 771 l 279 782 l 279 0 l 110 0 z "},"Ń":{"ha":993,"x_min":110,"x_max":883,"o":"m 110 0 l 110 972 l 264 972 l 785 194 l 713 182 l 713 972 l 883 972 l 883 0 l 732 0 l 214 771 l 279 782 l 279 0 l 110 0 m 414 1061 l 533 1267 l 724 1267 l 581 1061 l 414 1061 z "},"Ň":{"ha":993,"x_min":110,"x_max":883,"o":"m 110 0 l 110 972 l 264 972 l 785 194 l 713 182 l 713 972 l 883 972 l 883 0 l 732 0 l 214 771 l 279 782 l 279 0 l 110 0 m 411 1061 l 238 1267 l 394 1267 l 544 1108 l 451 1108 l 600 1267 l 756 1267 l 582 1061 l 411 1061 z "},"Ņ":{"ha":993,"x_min":110,"x_max":883,"o":"m 110 0 l 110 972 l 264 972 l 785 194 l 713 182 l 713 972 l 883 972 l 883 0 l 732 0 l 214 771 l 279 782 l 279 0 l 110 0 m 394 -293 l 394 -231 l 488 -231 q 506 -211 506 -231 l 506 -182 l 413 -182 l 413 -81 l 582 -81 l 582 -206 q 568 -258 582 -239 q 533 -285 554 -278 q 490 -293 511 -293 l 394 -293 z "},"Ñ":{"ha":993,"x_min":110,"x_max":883,"o":"m 110 0 l 110 972 l 264 972 l 785 194 l 713 182 l 713 972 l 883 972 l 883 0 l 732 0 l 214 771 l 279 782 l 279 0 l 110 0 m 599 1046 q 533 1062 563 1046 q 481 1098 504 1078 q 438 1133 457 1118 q 403 1149 418 1149 q 378 1131 385 1149 q 371 1086 371 1113 l 251 1086 q 290 1222 253 1174 q 393 1271 326 1271 q 456 1256 428 1271 q 509 1220 485 1240 q 554 1185 533 1200 q 590 1169 575 1169 q 619 1189 613 1169 q 626 1233 626 1208 l 744 1233 q 706 1095 744 1144 q 599 1046 668 1046 z "},"Ŋ":{"ha":993,"x_min":110,"x_max":883,"o":"m 761 -44 l 224 757 l 279 769 l 279 0 l 110 0 l 110 972 l 264 972 l 761 228 l 761 -44 m 500 -278 l 500 -122 l 629 -122 q 689 -99 665 -122 q 713 -40 713 -76 l 713 972 l 883 972 l 883 -24 q 815 -213 883 -149 q 614 -278 747 -278 l 500 -278 z "},"O":{"ha":1074,"x_min":58,"x_max":1015,"o":"m 538 -19 q 292 44 400 -19 q 121 221 183 108 q 58 482 58 333 l 58 493 q 121 753 58 642 q 292 928 183 865 q 538 992 400 992 q 783 928 675 992 q 953 753 890 865 q 1015 493 1015 642 l 1015 482 q 953 221 1015 333 q 783 44 890 108 q 538 -19 675 -19 m 538 147 q 694 188 626 147 q 801 303 763 228 q 840 482 840 379 l 840 493 q 801 669 840 596 q 694 784 763 743 q 538 825 626 825 q 381 784 450 825 q 272 669 311 743 q 233 493 233 596 l 233 482 q 272 303 233 379 q 381 188 311 228 q 538 147 450 147 z "},"Ó":{"ha":1074,"x_min":58,"x_max":1015,"o":"m 538 -19 q 292 44 400 -19 q 121 221 183 108 q 58 482 58 333 l 58 493 q 121 753 58 642 q 292 928 183 865 q 538 992 400 992 q 783 928 675 992 q 953 753 890 865 q 1015 493 1015 642 l 1015 482 q 953 221 1015 333 q 783 44 890 108 q 538 -19 675 -19 m 538 147 q 694 188 626 147 q 801 303 763 228 q 840 482 840 379 l 840 493 q 801 669 840 596 q 694 784 763 743 q 538 825 626 825 q 381 784 450 825 q 272 669 311 743 q 233 493 233 596 l 233 482 q 272 303 233 379 q 381 188 311 228 q 538 147 450 147 m 454 1061 l 574 1267 l 764 1267 l 621 1061 l 454 1061 z "},"Ô":{"ha":1074,"x_min":58,"x_max":1015,"o":"m 538 -19 q 292 44 400 -19 q 121 221 183 108 q 58 482 58 333 l 58 493 q 121 753 58 642 q 292 928 183 865 q 538 992 400 992 q 783 928 675 992 q 953 753 890 865 q 1015 493 1015 642 l 1015 482 q 953 221 1015 333 q 783 44 890 108 q 538 -19 675 -19 m 538 147 q 694 188 626 147 q 801 303 763 228 q 840 482 840 379 l 840 493 q 801 669 840 596 q 694 784 763 743 q 538 825 626 825 q 381 784 450 825 q 272 669 311 743 q 233 493 233 596 l 233 482 q 272 303 233 379 q 381 188 311 228 q 538 147 450 147 m 279 1061 l 453 1267 l 624 1267 l 797 1061 l 640 1061 l 490 1221 l 583 1221 l 435 1061 l 279 1061 z "},"Ö":{"ha":1074,"x_min":58,"x_max":1015,"o":"m 538 -19 q 292 44 400 -19 q 121 221 183 108 q 58 482 58 333 l 58 493 q 121 753 58 642 q 292 928 183 865 q 538 992 400 992 q 783 928 675 992 q 953 753 890 865 q 1015 493 1015 642 l 1015 482 q 953 221 1015 333 q 783 44 890 108 q 538 -19 675 -19 m 538 147 q 694 188 626 147 q 801 303 763 228 q 840 482 840 379 l 840 493 q 801 669 840 596 q 694 784 763 743 q 538 825 626 825 q 381 784 450 825 q 272 669 311 743 q 233 493 233 596 l 233 482 q 272 303 233 379 q 381 188 311 228 q 538 147 450 147 m 603 1093 l 603 1260 l 761 1260 l 761 1093 l 603 1093 m 313 1093 l 313 1260 l 471 1260 l 471 1093 l 313 1093 z "},"Ò":{"ha":1074,"x_min":58,"x_max":1015,"o":"m 538 -19 q 292 44 400 -19 q 121 221 183 108 q 58 482 58 333 l 58 493 q 121 753 58 642 q 292 928 183 865 q 538 992 400 992 q 783 928 675 992 q 953 753 890 865 q 1015 493 1015 642 l 1015 482 q 953 221 1015 333 q 783 44 890 108 q 538 -19 675 -19 m 538 147 q 694 188 626 147 q 801 303 763 228 q 840 482 840 379 l 840 493 q 801 669 840 596 q 694 784 763 743 q 538 825 626 825 q 381 784 450 825 q 272 669 311 743 q 233 493 233 596 l 233 482 q 272 303 233 379 q 381 188 311 228 q 538 147 450 147 m 454 1061 l 311 1267 l 501 1267 l 621 1061 l 454 1061 z "},"Ő":{"ha":1074,"x_min":58,"x_max":1015,"o":"m 538 -19 q 292 44 400 -19 q 121 221 183 108 q 58 482 58 333 l 58 493 q 121 753 58 642 q 292 928 183 865 q 538 992 400 992 q 783 928 675 992 q 953 753 890 865 q 1015 493 1015 642 l 1015 482 q 953 221 1015 333 q 783 44 890 108 q 538 -19 675 -19 m 538 147 q 694 188 626 147 q 801 303 763 228 q 840 482 840 379 l 840 493 q 801 669 840 596 q 694 784 763 743 q 538 825 626 825 q 381 784 450 825 q 272 669 311 743 q 233 493 233 596 l 233 482 q 272 303 233 379 q 381 188 311 228 q 538 147 450 147 m 353 1061 l 464 1267 l 619 1267 l 496 1061 l 353 1061 m 601 1061 l 715 1267 l 883 1267 l 749 1061 l 601 1061 z "},"Ō":{"ha":1074,"x_min":58,"x_max":1015,"o":"m 538 -19 q 292 44 400 -19 q 121 221 183 108 q 58 482 58 333 l 58 493 q 121 753 58 642 q 292 928 183 865 q 538 992 400 992 q 783 928 675 992 q 953 753 890 865 q 1015 493 1015 642 l 1015 482 q 953 221 1015 333 q 783 44 890 108 q 538 -19 675 -19 m 538 147 q 694 188 626 147 q 801 303 763 228 q 840 482 840 379 l 840 493 q 801 669 840 596 q 694 784 763 743 q 538 825 626 825 q 381 784 450 825 q 272 669 311 743 q 233 493 233 596 l 233 482 q 272 303 233 379 q 381 188 311 228 q 538 147 450 147 m 325 1085 l 325 1207 l 751 1207 l 751 1085 l 325 1085 z "},"Ø":{"ha":1081,"x_min":61,"x_max":1021,"o":"m 163 -32 l 61 65 l 919 1004 l 1021 910 l 163 -32 m 542 -19 q 296 44 404 -19 q 125 221 188 108 q 63 482 63 333 l 63 493 q 125 753 63 642 q 296 928 188 865 q 542 992 404 992 q 787 928 679 992 q 957 753 894 865 q 1019 493 1019 642 l 1019 482 q 957 221 1019 333 q 787 44 894 108 q 542 -19 679 -19 m 542 147 q 698 188 629 147 q 806 303 767 228 q 844 482 844 379 l 844 493 q 806 669 844 596 q 698 784 767 743 q 542 825 629 825 q 384 784 453 825 q 276 669 315 743 q 238 493 238 596 l 238 482 q 276 303 238 379 q 384 188 315 228 q 542 147 453 147 z "},"Õ":{"ha":1074,"x_min":58,"x_max":1015,"o":"m 538 -19 q 292 44 400 -19 q 121 221 183 108 q 58 482 58 333 l 58 493 q 121 753 58 642 q 292 928 183 865 q 538 992 400 992 q 783 928 675 992 q 953 753 890 865 q 1015 493 1015 642 l 1015 482 q 953 221 1015 333 q 783 44 890 108 q 538 -19 675 -19 m 538 147 q 694 188 626 147 q 801 303 763 228 q 840 482 840 379 l 840 493 q 801 669 840 596 q 694 784 763 743 q 538 825 626 825 q 381 784 450 825 q 272 669 311 743 q 233 493 233 596 l 233 482 q 272 303 233 379 q 381 188 311 228 q 538 147 450 147 m 639 1046 q 574 1062 603 1046 q 521 1098 544 1078 q 478 1133 497 1118 q 443 1149 458 1149 q 418 1131 425 1149 q 411 1086 411 1113 l 292 1086 q 330 1222 293 1174 q 433 1271 367 1271 q 497 1256 468 1271 q 549 1220 525 1240 q 594 1185 574 1200 q 631 1169 615 1169 q 660 1189 653 1169 q 667 1233 667 1208 l 785 1233 q 747 1095 785 1144 q 639 1046 708 1046 z "},"Œ":{"ha":1397,"x_min":58,"x_max":1325,"o":"m 571 0 q 295 60 410 0 q 119 231 181 121 q 58 492 58 342 q 119 747 58 639 q 295 913 181 854 q 571 972 410 972 l 1325 972 l 1325 817 l 583 817 q 390 776 468 817 q 273 663 313 736 q 233 492 233 589 q 273 316 233 392 q 390 198 313 240 q 583 156 468 156 l 1325 156 l 1325 0 l 571 0 m 704 61 l 704 901 l 874 901 l 874 61 l 704 61 m 788 414 l 788 563 l 1296 563 l 1296 414 l 788 414 z "},"P":{"ha":811,"x_min":110,"x_max":778,"o":"m 110 0 l 110 972 l 436 972 q 615 936 539 972 q 735 832 692 900 q 778 667 778 764 q 735 503 778 572 q 615 399 692 435 q 436 364 539 364 l 188 364 l 188 506 l 444 506 q 564 551 519 506 q 608 667 608 596 q 564 783 608 739 q 444 828 519 828 l 208 828 l 279 893 l 279 0 l 110 0 z "},"Þ":{"ha":828,"x_min":110,"x_max":778,"o":"m 188 182 l 188 324 l 444 324 q 564 369 519 324 q 608 485 608 414 q 564 601 608 557 q 444 646 519 646 l 188 646 l 188 790 l 436 790 q 615 754 539 790 q 735 650 692 718 q 778 485 778 582 q 735 322 778 390 q 615 218 692 254 q 436 182 539 182 l 188 182 m 110 0 l 110 972 l 279 972 l 279 0 l 110 0 z "},"Q":{"ha":1074,"x_min":58,"x_max":1015,"o":"m 632 -278 q 504 -232 550 -278 q 458 -111 458 -186 l 458 68 l 614 68 l 614 -89 q 628 -126 614 -111 q 665 -140 643 -140 l 856 -140 l 856 -278 l 632 -278 m 538 -19 q 292 44 400 -19 q 121 221 183 108 q 58 482 58 333 l 58 493 q 121 753 58 642 q 292 928 183 865 q 538 992 400 992 q 783 928 675 992 q 953 753 890 865 q 1015 493 1015 642 l 1015 482 q 953 221 1015 333 q 783 44 890 108 q 538 -19 675 -19 m 538 147 q 694 188 626 147 q 801 303 763 228 q 840 482 840 379 l 840 493 q 801 669 840 596 q 694 784 763 743 q 538 825 626 825 q 381 784 450 825 q 272 669 311 743 q 233 493 233 596 l 233 482 q 272 303 233 379 q 381 188 311 228 q 538 147 450 147 z "},"R":{"ha":868,"x_min":110,"x_max":826,"o":"m 110 0 l 110 972 l 457 972 q 704 894 611 972 q 797 667 797 815 q 704 437 797 514 q 457 360 611 360 l 188 360 l 188 503 l 449 503 q 574 544 526 503 q 622 664 622 586 q 574 784 622 740 q 449 828 526 828 l 208 828 l 279 893 l 279 0 l 110 0 m 631 0 l 388 433 l 572 433 l 826 0 l 631 0 z "},"Ŕ":{"ha":868,"x_min":110,"x_max":826,"o":"m 110 0 l 110 972 l 457 972 q 704 894 611 972 q 797 667 797 815 q 704 437 797 514 q 457 360 611 360 l 188 360 l 188 503 l 449 503 q 574 544 526 503 q 622 664 622 586 q 574 784 622 740 q 449 828 526 828 l 208 828 l 279 893 l 279 0 l 110 0 m 631 0 l 388 433 l 572 433 l 826 0 l 631 0 m 333 1061 l 453 1267 l 643 1267 l 500 1061 l 333 1061 z "},"Ř":{"ha":868,"x_min":110,"x_max":826,"o":"m 110 0 l 110 972 l 457 972 q 704 894 611 972 q 797 667 797 815 q 704 437 797 514 q 457 360 611 360 l 188 360 l 188 503 l 449 503 q 574 544 526 503 q 622 664 622 586 q 574 784 622 740 q 449 828 526 828 l 208 828 l 279 893 l 279 0 l 110 0 m 631 0 l 388 433 l 572 433 l 826 0 l 631 0 m 331 1061 l 157 1267 l 314 1267 l 464 1108 l 371 1108 l 519 1267 l 675 1267 l 501 1061 l 331 1061 z "},"Ŗ":{"ha":868,"x_min":110,"x_max":826,"o":"m 110 0 l 110 972 l 457 972 q 704 894 611 972 q 797 667 797 815 q 704 437 797 514 q 457 360 611 360 l 188 360 l 188 503 l 449 503 q 574 544 526 503 q 622 664 622 586 q 574 784 622 740 q 449 828 526 828 l 208 828 l 279 893 l 279 0 l 110 0 m 631 0 l 388 433 l 572 433 l 826 0 l 631 0 m 336 -293 l 336 -231 l 429 -231 q 447 -211 447 -231 l 447 -182 l 354 -182 l 354 -81 l 524 -81 l 524 -206 q 510 -258 524 -239 q 474 -285 496 -278 q 432 -293 453 -293 l 336 -293 z "},"S":{"ha":772,"x_min":43,"x_max":724,"o":"m 369 -19 q 181 21 261 -19 q 43 128 100 61 l 149 233 q 260 150 206 175 q 375 125 314 125 q 503 163 457 125 q 550 263 550 201 q 524 340 550 310 q 454 388 497 369 q 359 422 411 407 q 256 454 307 436 q 161 501 204 472 q 92 578 118 531 q 65 696 65 625 q 107 853 65 788 q 226 956 149 919 q 404 992 303 992 q 574 958 499 992 q 699 869 650 925 l 590 761 q 504 826 549 804 q 403 847 460 847 q 281 810 326 847 q 235 713 235 774 q 261 640 235 668 q 331 597 288 613 q 427 567 375 581 q 532 536 479 554 q 628 489 585 518 q 697 411 671 460 q 724 288 724 363 q 679 126 724 194 q 555 19 635 57 q 369 -19 475 -19 z "},"Ś":{"ha":772,"x_min":43,"x_max":724,"o":"m 369 -19 q 181 21 261 -19 q 43 128 100 61 l 149 233 q 260 150 206 175 q 375 125 314 125 q 503 163 457 125 q 550 263 550 201 q 524 340 550 310 q 454 388 497 369 q 359 422 411 407 q 256 454 307 436 q 161 501 204 472 q 92 578 118 531 q 65 696 65 625 q 107 853 65 788 q 226 956 149 919 q 404 992 303 992 q 574 958 499 992 q 699 869 650 925 l 590 761 q 504 826 549 804 q 403 847 460 847 q 281 810 326 847 q 235 713 235 774 q 261 640 235 668 q 331 597 288 613 q 427 567 375 581 q 532 536 479 554 q 628 489 585 518 q 697 411 671 460 q 724 288 724 363 q 679 126 724 194 q 555 19 635 57 q 369 -19 475 -19 m 326 1061 l 446 1267 l 636 1267 l 493 1061 l 326 1061 z "},"Š":{"ha":772,"x_min":43,"x_max":724,"o":"m 369 -19 q 181 21 261 -19 q 43 128 100 61 l 149 233 q 260 150 206 175 q 375 125 314 125 q 503 163 457 125 q 550 263 550 201 q 524 340 550 310 q 454 388 497 369 q 359 422 411 407 q 256 454 307 436 q 161 501 204 472 q 92 578 118 531 q 65 696 65 625 q 107 853 65 788 q 226 956 149 919 q 404 992 303 992 q 574 958 499 992 q 699 869 650 925 l 590 761 q 504 826 549 804 q 403 847 460 847 q 281 810 326 847 q 235 713 235 774 q 261 640 235 668 q 331 597 288 613 q 427 567 375 581 q 532 536 479 554 q 628 489 585 518 q 697 411 671 460 q 724 288 724 363 q 679 126 724 194 q 555 19 635 57 q 369 -19 475 -19 m 324 1061 l 150 1267 l 307 1267 l 457 1108 l 364 1108 l 513 1267 l 668 1267 l 494 1061 l 324 1061 z "},"Ş":{"ha":772,"x_min":43,"x_max":724,"o":"m 369 -19 q 181 21 261 -19 q 43 128 100 61 l 149 233 q 260 150 206 175 q 375 125 314 125 q 503 163 457 125 q 550 263 550 201 q 524 340 550 310 q 454 388 497 369 q 359 422 411 407 q 256 454 307 436 q 161 501 204 472 q 92 578 118 531 q 65 696 65 625 q 107 853 65 788 q 226 956 149 919 q 404 992 303 992 q 574 958 499 992 q 699 869 650 925 l 590 761 q 504 826 549 804 q 403 847 460 847 q 281 810 326 847 q 235 713 235 774 q 261 640 235 668 q 331 597 288 613 q 427 567 375 581 q 532 536 479 554 q 628 489 585 518 q 697 411 671 460 q 724 288 724 363 q 679 126 724 194 q 555 19 635 57 q 369 -19 475 -19 m 382 -293 l 260 -293 l 260 -214 l 382 -214 q 419 -203 407 -214 q 432 -174 432 -192 q 419 -145 432 -156 q 382 -135 407 -135 l 297 -135 l 331 38 l 440 38 l 414 -86 l 339 -60 l 411 -60 q 513 -90 478 -60 q 549 -171 549 -119 q 506 -261 549 -229 q 382 -293 463 -293 z "},"Ș":{"ha":772,"x_min":43,"x_max":724,"o":"m 369 -19 q 181 21 261 -19 q 43 128 100 61 l 149 233 q 260 150 206 175 q 375 125 314 125 q 503 163 457 125 q 550 263 550 201 q 524 340 550 310 q 454 388 497 369 q 359 422 411 407 q 256 454 307 436 q 161 501 204 472 q 92 578 118 531 q 65 696 65 625 q 107 853 65 788 q 226 956 149 919 q 404 992 303 992 q 574 958 499 992 q 699 869 650 925 l 590 761 q 504 826 549 804 q 403 847 460 847 q 281 810 326 847 q 235 713 235 774 q 261 640 235 668 q 331 597 288 613 q 427 567 375 581 q 532 536 479 554 q 628 489 585 518 q 697 411 671 460 q 724 288 724 363 q 679 126 724 194 q 555 19 635 57 q 369 -19 475 -19 m 279 -293 l 279 -231 l 372 -231 q 390 -211 390 -231 l 390 -182 l 297 -182 l 297 -81 l 467 -81 l 467 -206 q 453 -258 467 -239 q 417 -285 439 -278 q 375 -293 396 -293 l 279 -293 z "},"ẞ":{"ha":943,"x_min":100,"x_max":879,"o":"m 568 -14 q 453 2 504 -14 q 364 42 403 18 l 415 182 q 485 155 447 165 q 558 144 522 144 q 664 178 622 144 q 706 274 706 211 q 664 376 706 331 q 533 453 622 422 l 682 765 l 692 711 q 605 802 657 771 q 486 833 553 833 q 375 808 424 833 q 298 731 326 782 q 269 599 269 679 l 269 0 l 100 0 l 100 600 q 151 813 100 725 q 292 946 203 900 q 496 992 382 992 q 706 939 613 992 q 869 778 799 886 l 724 486 l 724 517 q 837 415 794 479 q 879 269 879 350 q 840 119 879 183 q 731 21 801 56 q 568 -14 661 -14 z "},"T":{"ha":768,"x_min":19,"x_max":749,"o":"m 296 0 l 296 900 l 468 900 l 468 0 l 296 0 m 19 817 l 19 972 l 749 972 l 749 817 l 19 817 z "},"Ŧ":{"ha":785,"x_min":28,"x_max":757,"o":"m 136 415 l 136 554 l 646 554 l 646 415 l 136 415 m 304 0 l 304 900 l 476 900 l 476 0 l 304 0 m 28 817 l 28 972 l 757 972 l 757 817 l 28 817 z "},"Ť":{"ha":768,"x_min":19,"x_max":749,"o":"m 296 0 l 296 900 l 468 900 l 468 0 l 296 0 m 19 817 l 19 972 l 749 972 l 749 817 l 19 817 m 297 1061 l 124 1267 l 281 1267 l 431 1108 l 338 1108 l 486 1267 l 642 1267 l 468 1061 l 297 1061 z "},"Ţ":{"ha":768,"x_min":19,"x_max":749,"o":"m 296 0 l 296 900 l 468 900 l 468 0 l 296 0 m 19 817 l 19 972 l 749 972 l 749 817 l 19 817 m 383 -293 l 261 -293 l 261 -214 l 383 -214 q 421 -203 408 -214 q 433 -174 433 -192 q 421 -145 433 -156 q 383 -135 408 -135 l 299 -135 l 332 38 l 442 38 l 415 -86 l 340 -60 l 413 -60 q 515 -90 479 -60 q 550 -171 550 -119 q 507 -261 550 -229 q 383 -293 464 -293 z "},"Ț":{"ha":768,"x_min":19,"x_max":749,"o":"m 296 0 l 296 900 l 468 900 l 468 0 l 296 0 m 19 817 l 19 972 l 749 972 l 749 817 l 19 817 m 281 -293 l 281 -231 l 374 -231 q 392 -211 392 -231 l 392 -182 l 299 -182 l 299 -81 l 468 -81 l 468 -206 q 454 -258 468 -239 q 419 -285 440 -278 q 376 -293 397 -293 l 281 -293 z "},"U":{"ha":956,"x_min":101,"x_max":856,"o":"m 478 -19 q 204 69 307 -19 q 101 336 101 157 l 101 972 l 272 972 l 272 350 q 328 192 272 244 q 478 139 383 139 q 628 192 572 139 q 685 350 685 244 l 685 972 l 856 972 l 856 336 q 808 139 856 218 q 676 20 761 60 q 478 -19 592 -19 z "},"Ú":{"ha":956,"x_min":101,"x_max":856,"o":"m 478 -19 q 204 69 307 -19 q 101 336 101 157 l 101 972 l 272 972 l 272 350 q 328 192 272 244 q 478 139 383 139 q 628 192 572 139 q 685 350 685 244 l 685 972 l 856 972 l 856 336 q 808 139 856 218 q 676 20 761 60 q 478 -19 592 -19 m 396 1061 l 515 1267 l 706 1267 l 563 1061 l 396 1061 z "},"Ŭ":{"ha":956,"x_min":101,"x_max":856,"o":"m 478 -19 q 204 69 307 -19 q 101 336 101 157 l 101 972 l 272 972 l 272 350 q 328 192 272 244 q 478 139 383 139 q 628 192 572 139 q 685 350 685 244 l 685 972 l 856 972 l 856 336 q 808 139 856 218 q 676 20 761 60 q 478 -19 592 -19 m 479 1054 q 362 1075 414 1054 q 281 1142 310 1096 q 253 1267 253 1189 l 382 1267 q 406 1185 382 1208 q 479 1163 429 1163 q 554 1185 531 1163 q 578 1267 578 1208 l 706 1267 q 676 1142 706 1189 q 597 1075 647 1096 q 479 1054 546 1054 z "},"Û":{"ha":956,"x_min":101,"x_max":856,"o":"m 478 -19 q 204 69 307 -19 q 101 336 101 157 l 101 972 l 272 972 l 272 350 q 328 192 272 244 q 478 139 383 139 q 628 192 572 139 q 685 350 685 244 l 685 972 l 856 972 l 856 336 q 808 139 856 218 q 676 20 761 60 q 478 -19 592 -19 m 221 1061 l 394 1267 l 565 1267 l 739 1061 l 582 1061 l 432 1221 l 525 1221 l 376 1061 l 221 1061 z "},"Ü":{"ha":956,"x_min":101,"x_max":856,"o":"m 478 -19 q 204 69 307 -19 q 101 336 101 157 l 101 972 l 272 972 l 272 350 q 328 192 272 244 q 478 139 383 139 q 628 192 572 139 q 685 350 685 244 l 685 972 l 856 972 l 856 336 q 808 139 856 218 q 676 20 761 60 q 478 -19 592 -19 m 544 1093 l 544 1260 l 703 1260 l 703 1093 l 544 1093 m 254 1093 l 254 1260 l 413 1260 l 413 1093 l 254 1093 z "},"Ù":{"ha":956,"x_min":101,"x_max":856,"o":"m 478 -19 q 204 69 307 -19 q 101 336 101 157 l 101 972 l 272 972 l 272 350 q 328 192 272 244 q 478 139 383 139 q 628 192 572 139 q 685 350 685 244 l 685 972 l 856 972 l 856 336 q 808 139 856 218 q 676 20 761 60 q 478 -19 592 -19 m 396 1061 l 253 1267 l 443 1267 l 563 1061 l 396 1061 z "},"Ű":{"ha":956,"x_min":101,"x_max":856,"o":"m 478 -19 q 204 69 307 -19 q 101 336 101 157 l 101 972 l 272 972 l 272 350 q 328 192 272 244 q 478 139 383 139 q 628 192 572 139 q 685 350 685 244 l 685 972 l 856 972 l 856 336 q 808 139 856 218 q 676 20 761 60 q 478 -19 592 -19 m 294 1061 l 406 1267 l 561 1267 l 438 1061 l 294 1061 m 543 1061 l 657 1267 l 825 1267 l 690 1061 l 543 1061 z "},"Ū":{"ha":956,"x_min":101,"x_max":856,"o":"m 478 -19 q 204 69 307 -19 q 101 336 101 157 l 101 972 l 272 972 l 272 350 q 328 192 272 244 q 478 139 383 139 q 628 192 572 139 q 685 350 685 244 l 685 972 l 856 972 l 856 336 q 808 139 856 218 q 676 20 761 60 q 478 -19 592 -19 m 267 1085 l 267 1207 l 693 1207 l 693 1085 l 267 1085 z "},"Ų":{"ha":956,"x_min":101,"x_max":856,"o":"m 478 -19 q 204 69 307 -19 q 101 336 101 157 l 101 972 l 272 972 l 272 350 q 328 192 272 244 q 478 139 383 139 q 628 192 572 139 q 685 350 685 244 l 685 972 l 856 972 l 856 336 q 808 139 856 218 q 676 20 761 60 q 478 -19 592 -19 m 515 -278 q 416 -243 451 -278 q 381 -154 381 -208 q 397 -84 381 -117 q 454 -6 414 -51 l 522 76 l 597 0 l 540 -83 q 528 -106 533 -93 q 522 -131 522 -118 q 531 -156 522 -143 q 563 -168 539 -168 l 594 -168 l 594 -278 l 515 -278 z "},"Ů":{"ha":956,"x_min":101,"x_max":856,"o":"m 478 -19 q 204 69 307 -19 q 101 336 101 157 l 101 972 l 272 972 l 272 350 q 328 192 272 244 q 478 139 383 139 q 628 192 572 139 q 685 350 685 244 l 685 972 l 856 972 l 856 336 q 808 139 856 218 q 676 20 761 60 q 478 -19 592 -19 m 478 1040 q 358 1081 404 1040 q 311 1188 311 1122 q 358 1292 311 1250 q 478 1333 404 1333 q 599 1292 551 1333 q 646 1188 646 1250 q 599 1081 646 1122 q 478 1040 551 1040 m 478 1121 q 530 1139 510 1121 q 550 1186 550 1157 q 531 1234 550 1217 q 479 1251 511 1251 q 426 1234 446 1251 q 406 1186 406 1217 q 426 1139 406 1157 q 478 1121 447 1121 z "},"V":{"ha":910,"x_min":10,"x_max":901,"o":"m 363 0 l 10 972 l 190 972 l 486 129 l 425 129 l 719 972 l 901 972 l 546 0 l 363 0 z "},"W":{"ha":1392,"x_min":21,"x_max":1371,"o":"m 294 0 l 21 972 l 194 972 l 414 138 l 347 138 l 603 972 l 792 972 l 1043 138 l 978 138 l 1199 972 l 1371 972 l 1097 0 l 922 0 l 672 844 l 721 844 l 471 0 l 294 0 z "},"Ẃ":{"ha":1392,"x_min":21,"x_max":1371,"o":"m 294 0 l 21 972 l 194 972 l 414 138 l 347 138 l 603 972 l 792 972 l 1043 138 l 978 138 l 1199 972 l 1371 972 l 1097 0 l 922 0 l 672 844 l 721 844 l 471 0 l 294 0 m 614 1061 l 733 1267 l 924 1267 l 781 1061 l 614 1061 z "},"Ŵ":{"ha":1392,"x_min":21,"x_max":1371,"o":"m 294 0 l 21 972 l 194 972 l 414 138 l 347 138 l 603 972 l 792 972 l 1043 138 l 978 138 l 1199 972 l 1371 972 l 1097 0 l 922 0 l 672 844 l 721 844 l 471 0 l 294 0 m 439 1061 l 613 1267 l 783 1267 l 957 1061 l 800 1061 l 650 1221 l 743 1221 l 594 1061 l 439 1061 z "},"Ẅ":{"ha":1392,"x_min":21,"x_max":1371,"o":"m 294 0 l 21 972 l 194 972 l 414 138 l 347 138 l 603 972 l 792 972 l 1043 138 l 978 138 l 1199 972 l 1371 972 l 1097 0 l 922 0 l 672 844 l 721 844 l 471 0 l 294 0 m 763 1093 l 763 1260 l 921 1260 l 921 1093 l 763 1093 m 472 1093 l 472 1260 l 631 1260 l 631 1093 l 472 1093 z "},"Ẁ":{"ha":1392,"x_min":21,"x_max":1371,"o":"m 294 0 l 21 972 l 194 972 l 414 138 l 347 138 l 603 972 l 792 972 l 1043 138 l 978 138 l 1199 972 l 1371 972 l 1097 0 l 922 0 l 672 844 l 721 844 l 471 0 l 294 0 m 614 1061 l 471 1267 l 661 1267 l 781 1061 l 614 1061 z "},"X":{"ha":904,"x_min":11,"x_max":894,"o":"m 11 0 l 332 492 l 18 972 l 222 972 l 453 613 l 683 972 l 888 972 l 572 492 l 894 0 l 700 0 l 453 372 l 206 0 l 11 0 z "},"Y":{"ha":871,"x_min":4,"x_max":867,"o":"m 469 511 l 401 511 l 681 972 l 867 972 l 521 403 l 521 0 l 350 0 l 350 403 l 4 972 l 189 972 l 469 511 z "},"Ý":{"ha":871,"x_min":4,"x_max":867,"o":"m 469 511 l 401 511 l 681 972 l 867 972 l 521 403 l 521 0 l 350 0 l 350 403 l 4 972 l 189 972 l 469 511 m 353 1061 l 472 1267 l 663 1267 l 519 1061 l 353 1061 z "},"Ŷ":{"ha":871,"x_min":4,"x_max":867,"o":"m 469 511 l 401 511 l 681 972 l 867 972 l 521 403 l 521 0 l 350 0 l 350 403 l 4 972 l 189 972 l 469 511 m 178 1061 l 351 1267 l 522 1267 l 696 1061 l 539 1061 l 389 1221 l 482 1221 l 333 1061 l 178 1061 z "},"Ÿ":{"ha":871,"x_min":4,"x_max":867,"o":"m 469 511 l 401 511 l 681 972 l 867 972 l 521 403 l 521 0 l 350 0 l 350 403 l 4 972 l 189 972 l 469 511 m 501 1093 l 501 1260 l 660 1260 l 660 1093 l 501 1093 m 211 1093 l 211 1260 l 369 1260 l 369 1093 l 211 1093 z "},"Ỳ":{"ha":871,"x_min":4,"x_max":867,"o":"m 469 511 l 401 511 l 681 972 l 867 972 l 521 403 l 521 0 l 350 0 l 350 403 l 4 972 l 189 972 l 469 511 m 353 1061 l 210 1267 l 400 1267 l 519 1061 l 353 1061 z "},"Z":{"ha":821,"x_min":44,"x_max":771,"o":"m 44 0 l 44 149 l 594 878 l 621 824 l 63 824 l 63 972 l 767 972 l 767 829 l 207 94 l 183 149 l 771 149 l 771 0 l 44 0 z "},"Ź":{"ha":821,"x_min":44,"x_max":771,"o":"m 44 0 l 44 149 l 594 878 l 621 824 l 63 824 l 63 972 l 767 972 l 767 829 l 207 94 l 183 149 l 771 149 l 771 0 l 44 0 m 332 1061 l 451 1267 l 642 1267 l 499 1061 l 332 1061 z "},"Ž":{"ha":821,"x_min":44,"x_max":771,"o":"m 44 0 l 44 149 l 594 878 l 621 824 l 63 824 l 63 972 l 767 972 l 767 829 l 207 94 l 183 149 l 771 149 l 771 0 l 44 0 m 329 1061 l 156 1267 l 313 1267 l 463 1108 l 369 1108 l 518 1267 l 674 1267 l 500 1061 l 329 1061 z "},"Ż":{"ha":821,"x_min":44,"x_max":771,"o":"m 44 0 l 44 149 l 594 878 l 621 824 l 63 824 l 63 972 l 767 972 l 767 829 l 207 94 l 183 149 l 771 149 l 771 0 l 44 0 m 326 1092 l 326 1260 l 504 1260 l 504 1092 l 326 1092 z "},"a":{"ha":718,"x_min":46,"x_max":636,"o":"m 493 0 l 493 228 l 474 286 l 474 429 q 438 522 474 493 q 340 550 403 550 q 236 531 292 550 q 139 475 181 511 l 67 583 q 190 661 114 632 q 350 690 265 690 q 497 661 433 690 q 596 576 560 632 q 632 436 632 519 l 632 218 q 633 109 632 163 q 636 0 633 56 l 493 0 m 300 -14 q 115 42 185 -14 q 46 186 46 97 q 78 293 46 246 q 172 368 110 340 q 322 396 233 396 q 505 342 443 396 q 567 201 567 289 l 525 201 q 469 42 525 99 q 300 -14 414 -14 m 340 104 q 438 128 401 104 q 474 194 474 153 q 438 259 474 235 q 340 283 401 283 q 244 259 281 283 q 207 194 207 235 q 244 128 207 153 q 340 104 281 104 z "},"á":{"ha":717,"x_min":46,"x_max":636,"o":"m 493 0 l 493 228 l 474 286 l 474 429 q 438 522 474 493 q 340 550 403 550 q 236 531 292 550 q 139 475 181 511 l 67 583 q 190 661 114 632 q 350 690 265 690 q 497 661 433 690 q 596 576 560 632 q 632 436 632 519 l 632 218 q 633 109 632 163 q 636 0 633 56 l 493 0 m 300 -14 q 115 42 185 -14 q 46 186 46 97 q 78 293 46 246 q 172 368 110 340 q 322 396 233 396 q 505 342 443 396 q 567 201 567 289 l 525 201 q 469 42 525 99 q 300 -14 414 -14 m 340 104 q 438 128 401 104 q 474 194 474 153 q 438 259 474 235 q 340 283 401 283 q 244 259 281 283 q 207 194 207 235 q 244 128 207 153 q 340 104 281 104 m 265 779 l 385 1003 l 575 1003 l 432 779 l 265 779 z "},"ă":{"ha":717,"x_min":46,"x_max":636,"o":"m 493 0 l 493 228 l 474 286 l 474 429 q 438 522 474 493 q 340 550 403 550 q 236 531 292 550 q 139 475 181 511 l 67 583 q 190 661 114 632 q 350 690 265 690 q 497 661 433 690 q 596 576 560 632 q 632 436 632 519 l 632 218 q 633 109 632 163 q 636 0 633 56 l 493 0 m 300 -14 q 115 42 185 -14 q 46 186 46 97 q 78 293 46 246 q 172 368 110 340 q 322 396 233 396 q 505 342 443 396 q 567 201 567 289 l 525 201 q 469 42 525 99 q 300 -14 414 -14 m 340 104 q 438 128 401 104 q 474 194 474 153 q 438 259 474 235 q 340 283 401 283 q 244 259 281 283 q 207 194 207 235 q 244 128 207 153 q 340 104 281 104 m 349 772 q 231 794 283 772 q 151 867 179 817 q 122 1003 122 918 l 251 1003 q 275 910 251 938 q 349 882 299 882 q 423 910 399 882 q 447 1003 447 938 l 575 1003 q 546 867 575 918 q 466 794 517 817 q 349 772 415 772 z "},"ǎ":{"ha":717,"x_min":46,"x_max":636,"o":"m 493 0 l 493 228 l 474 286 l 474 429 q 438 522 474 493 q 340 550 403 550 q 236 531 292 550 q 139 475 181 511 l 67 583 q 190 661 114 632 q 350 690 265 690 q 497 661 433 690 q 596 576 560 632 q 632 436 632 519 l 632 218 q 633 109 632 163 q 636 0 633 56 l 493 0 m 300 -14 q 115 42 185 -14 q 46 186 46 97 q 78 293 46 246 q 172 368 110 340 q 322 396 233 396 q 505 342 443 396 q 567 201 567 289 l 525 201 q 469 42 525 99 q 300 -14 414 -14 m 340 104 q 438 128 401 104 q 474 194 474 153 q 438 259 474 235 q 340 283 401 283 q 244 259 281 283 q 207 194 207 235 q 244 128 207 153 q 340 104 281 104 m 263 779 l 89 1003 l 244 1003 l 396 826 l 304 826 l 453 1003 l 607 1003 l 433 779 l 263 779 z "},"â":{"ha":717,"x_min":46,"x_max":636,"o":"m 493 0 l 493 228 l 474 286 l 474 429 q 438 522 474 493 q 340 550 403 550 q 236 531 292 550 q 139 475 181 511 l 67 583 q 190 661 114 632 q 350 690 265 690 q 497 661 433 690 q 596 576 560 632 q 632 436 632 519 l 632 218 q 633 109 632 163 q 636 0 633 56 l 493 0 m 300 -14 q 115 42 185 -14 q 46 186 46 97 q 78 293 46 246 q 172 368 110 340 q 322 396 233 396 q 505 342 443 396 q 567 201 567 289 l 525 201 q 469 42 525 99 q 300 -14 414 -14 m 340 104 q 438 128 401 104 q 474 194 474 153 q 438 259 474 235 q 340 283 401 283 q 244 259 281 283 q 207 194 207 235 q 244 128 207 153 q 340 104 281 104 m 90 779 l 264 1003 l 435 1003 l 608 779 l 453 779 l 301 956 l 393 956 l 244 779 l 90 779 z "},"ä":{"ha":717,"x_min":46,"x_max":636,"o":"m 493 0 l 493 228 l 474 286 l 474 429 q 438 522 474 493 q 340 550 403 550 q 236 531 292 550 q 139 475 181 511 l 67 583 q 190 661 114 632 q 350 690 265 690 q 497 661 433 690 q 596 576 560 632 q 632 436 632 519 l 632 218 q 633 109 632 163 q 636 0 633 56 l 493 0 m 300 -14 q 115 42 185 -14 q 46 186 46 97 q 78 293 46 246 q 172 368 110 340 q 322 396 233 396 q 505 342 443 396 q 567 201 567 289 l 525 201 q 469 42 525 99 q 300 -14 414 -14 m 340 104 q 438 128 401 104 q 474 194 474 153 q 438 259 474 235 q 340 283 401 283 q 244 259 281 283 q 207 194 207 235 q 244 128 207 153 q 340 104 281 104 m 414 815 l 414 992 l 572 992 l 572 815 l 414 815 m 124 815 l 124 992 l 282 992 l 282 815 l 124 815 z "},"à":{"ha":717,"x_min":46,"x_max":636,"o":"m 493 0 l 493 228 l 474 286 l 474 429 q 438 522 474 493 q 340 550 403 550 q 236 531 292 550 q 139 475 181 511 l 67 583 q 190 661 114 632 q 350 690 265 690 q 497 661 433 690 q 596 576 560 632 q 632 436 632 519 l 632 218 q 633 109 632 163 q 636 0 633 56 l 493 0 m 300 -14 q 115 42 185 -14 q 46 186 46 97 q 78 293 46 246 q 172 368 110 340 q 322 396 233 396 q 505 342 443 396 q 567 201 567 289 l 525 201 q 469 42 525 99 q 300 -14 414 -14 m 340 104 q 438 128 401 104 q 474 194 474 153 q 438 259 474 235 q 340 283 401 283 q 244 259 281 283 q 207 194 207 235 q 244 128 207 153 q 340 104 281 104 m 265 779 l 122 1003 l 313 1003 l 432 779 l 265 779 z "},"ā":{"ha":717,"x_min":46,"x_max":636,"o":"m 493 0 l 493 228 l 474 286 l 474 429 q 438 522 474 493 q 340 550 403 550 q 236 531 292 550 q 139 475 181 511 l 67 583 q 190 661 114 632 q 350 690 265 690 q 497 661 433 690 q 596 576 560 632 q 632 436 632 519 l 632 218 q 633 109 632 163 q 636 0 633 56 l 493 0 m 300 -14 q 115 42 185 -14 q 46 186 46 97 q 78 293 46 246 q 172 368 110 340 q 322 396 233 396 q 505 342 443 396 q 567 201 567 289 l 525 201 q 469 42 525 99 q 300 -14 414 -14 m 340 104 q 438 128 401 104 q 474 194 474 153 q 438 259 474 235 q 340 283 401 283 q 244 259 281 283 q 207 194 207 235 q 244 128 207 153 q 340 104 281 104 m 136 804 l 136 928 l 563 928 l 563 804 l 136 804 z "},"ą":{"ha":717,"x_min":46,"x_max":636,"o":"m 493 0 l 493 228 l 474 286 l 474 429 q 438 522 474 493 q 340 550 403 550 q 236 531 292 550 q 139 475 181 511 l 67 583 q 190 661 114 632 q 350 690 265 690 q 497 661 433 690 q 596 576 560 632 q 632 436 632 519 l 632 218 q 633 109 632 163 q 636 0 633 56 l 493 0 m 300 -14 q 115 42 185 -14 q 46 186 46 97 q 78 293 46 246 q 172 368 110 340 q 322 396 233 396 q 505 342 443 396 q 567 201 567 289 l 525 201 q 469 42 525 99 q 300 -14 414 -14 m 340 104 q 438 128 401 104 q 474 194 474 153 q 438 259 474 235 q 340 283 401 283 q 244 259 281 283 q 207 194 207 235 q 244 128 207 153 q 340 104 281 104 m 553 -278 q 453 -243 489 -278 q 418 -154 418 -208 q 435 -84 418 -117 q 492 -6 451 -51 l 560 76 l 635 0 l 578 -83 q 565 -106 571 -93 q 560 -131 560 -118 q 568 -156 560 -143 q 600 -168 576 -168 l 632 -168 l 632 -278 l 553 -278 z "},"å":{"ha":717,"x_min":46,"x_max":636,"o":"m 493 0 l 493 228 l 474 286 l 474 429 q 438 522 474 493 q 340 550 403 550 q 236 531 292 550 q 139 475 181 511 l 67 583 q 190 661 114 632 q 350 690 265 690 q 497 661 433 690 q 596 576 560 632 q 632 436 632 519 l 632 218 q 633 109 632 163 q 636 0 633 56 l 493 0 m 300 -14 q 115 42 185 -14 q 46 186 46 97 q 78 293 46 246 q 172 368 110 340 q 322 396 233 396 q 505 342 443 396 q 567 201 567 289 l 525 201 q 469 42 525 99 q 300 -14 414 -14 m 340 104 q 438 128 401 104 q 474 194 474 153 q 438 259 474 235 q 340 283 401 283 q 244 259 281 283 q 207 194 207 235 q 244 128 207 153 q 340 104 281 104 m 347 757 q 226 801 274 757 q 179 915 179 844 q 226 1028 179 983 q 347 1072 274 1072 q 469 1028 422 1072 q 517 915 517 983 q 469 801 517 844 q 347 757 422 757 m 347 839 q 401 860 381 839 q 421 914 421 881 q 401 969 421 949 q 347 989 381 989 q 294 969 315 989 q 274 914 274 949 q 294 860 274 881 q 347 839 315 839 z "},"ã":{"ha":717,"x_min":46,"x_max":636,"o":"m 493 0 l 493 228 l 474 286 l 474 429 q 438 522 474 493 q 340 550 403 550 q 236 531 292 550 q 139 475 181 511 l 67 583 q 190 661 114 632 q 350 690 265 690 q 497 661 433 690 q 596 576 560 632 q 632 436 632 519 l 632 218 q 633 109 632 163 q 636 0 633 56 l 493 0 m 300 -14 q 115 42 185 -14 q 46 186 46 97 q 78 293 46 246 q 172 368 110 340 q 322 396 233 396 q 505 342 443 396 q 567 201 567 289 l 525 201 q 469 42 525 99 q 300 -14 414 -14 m 340 104 q 438 128 401 104 q 474 194 474 153 q 438 259 474 235 q 340 283 401 283 q 244 259 281 283 q 207 194 207 235 q 244 128 207 153 q 340 104 281 104 m 450 765 q 385 783 414 765 q 332 824 356 801 q 289 864 308 846 q 254 882 269 882 q 229 861 236 882 q 222 810 222 840 l 103 810 q 141 954 104 903 q 244 1006 178 1006 q 308 988 279 1006 q 360 948 336 971 q 406 908 385 925 q 442 890 426 890 q 471 913 464 890 q 478 965 478 935 l 596 965 q 558 817 596 869 q 450 765 519 765 z "},"æ":{"ha":1126,"x_min":51,"x_max":1089,"o":"m 799 -14 q 622 30 697 -14 q 503 152 546 74 q 461 335 461 231 l 461 433 q 425 522 461 494 q 332 550 389 550 q 229 531 283 550 q 136 476 175 513 l 65 583 q 186 663 110 635 q 343 690 263 690 q 497 655 433 690 q 585 553 560 619 l 525 553 q 628 652 563 614 q 781 690 694 690 q 952 641 882 690 q 1056 502 1022 592 q 1074 292 1089 413 l 575 292 l 575 406 l 993 406 l 914 329 q 915 455 929 403 q 865 534 900 507 q 781 561 831 561 q 691 533 726 561 q 638 458 656 506 q 619 349 619 410 l 619 331 q 641 226 619 274 q 705 152 663 179 q 807 125 747 125 q 892 141 857 125 q 954 185 928 157 l 1046 86 q 939 10 1004 35 q 799 -14 874 -14 m 304 -14 q 174 11 231 -14 q 84 82 117 36 q 51 188 51 128 q 81 294 51 247 q 171 368 111 340 q 319 396 231 396 q 501 342 439 396 q 563 201 563 289 l 574 201 q 538 88 574 136 q 442 13 503 39 q 304 -14 382 -14 m 338 104 q 433 129 397 104 q 469 194 469 154 q 434 258 469 233 q 338 283 399 283 q 245 259 278 283 q 213 194 213 235 q 247 128 213 153 q 338 104 282 104 z "},"b":{"ha":829,"x_min":93,"x_max":778,"o":"m 460 -14 q 310 26 376 -14 q 207 136 244 67 l 238 169 l 238 0 l 93 0 l 93 1014 l 253 1014 l 253 521 l 221 558 q 320 655 258 619 q 458 690 382 690 q 622 647 550 690 q 736 526 694 604 q 778 346 778 449 l 778 332 q 736 150 778 228 q 623 29 694 72 q 460 -14 551 -14 m 433 126 q 527 151 485 126 q 594 223 569 176 q 618 332 618 269 l 618 346 q 594 455 618 410 q 527 524 569 500 q 433 549 485 549 q 335 524 379 549 q 267 451 292 499 q 243 338 243 404 q 267 225 243 272 q 335 152 292 178 q 433 126 379 126 z "},"c":{"ha":682,"x_min":50,"x_max":651,"o":"m 403 -14 q 222 30 301 -14 q 96 151 142 74 q 50 331 50 229 l 50 346 q 97 526 50 449 q 223 647 143 604 q 403 690 303 690 q 543 660 478 690 q 649 578 608 631 l 551 479 q 485 528 524 513 q 404 543 447 543 q 305 519 349 543 q 235 451 261 494 q 210 346 210 407 l 210 331 q 235 226 210 271 q 306 158 261 182 q 406 133 351 133 q 485 148 447 133 q 556 194 524 163 l 651 99 q 544 16 611 46 q 403 -14 478 -14 z "},"ć":{"ha":682,"x_min":50,"x_max":651,"o":"m 403 -14 q 222 30 301 -14 q 96 151 142 74 q 50 331 50 229 l 50 346 q 97 526 50 449 q 223 647 143 604 q 403 690 303 690 q 543 660 478 690 q 649 578 608 631 l 551 479 q 485 528 524 513 q 404 543 447 543 q 305 519 349 543 q 235 451 261 494 q 210 346 210 407 l 210 331 q 235 226 210 271 q 306 158 261 182 q 406 133 351 133 q 485 148 447 133 q 556 194 524 163 l 651 99 q 544 16 611 46 q 403 -14 478 -14 m 322 779 l 442 1003 l 632 1003 l 489 779 l 322 779 z "},"č":{"ha":682,"x_min":50,"x_max":664,"o":"m 403 -14 q 222 30 301 -14 q 96 151 142 74 q 50 331 50 229 l 50 346 q 97 526 50 449 q 223 647 143 604 q 403 690 303 690 q 543 660 478 690 q 649 578 608 631 l 551 479 q 485 528 524 513 q 404 543 447 543 q 305 519 349 543 q 235 451 261 494 q 210 346 210 407 l 210 331 q 235 226 210 271 q 306 158 261 182 q 406 133 351 133 q 485 148 447 133 q 556 194 524 163 l 651 99 q 544 16 611 46 q 403 -14 478 -14 m 319 779 l 146 1003 l 301 1003 l 453 826 l 361 826 l 510 1003 l 664 1003 l 490 779 l 319 779 z "},"ç":{"ha":682,"x_min":50,"x_max":651,"o":"m 403 -14 q 222 30 301 -14 q 96 151 142 74 q 50 331 50 229 l 50 346 q 97 526 50 449 q 223 647 143 604 q 403 690 303 690 q 543 660 478 690 q 649 578 608 631 l 551 479 q 485 528 524 513 q 404 543 447 543 q 305 519 349 543 q 235 451 261 494 q 210 346 210 407 l 210 331 q 235 226 210 271 q 306 158 261 182 q 406 133 351 133 q 485 148 447 133 q 556 194 524 163 l 651 99 q 544 16 611 46 q 403 -14 478 -14 m 394 -293 l 272 -293 l 272 -214 l 394 -214 q 432 -203 419 -214 q 444 -174 444 -192 q 432 -145 444 -156 q 394 -135 419 -135 l 310 -135 l 343 38 l 453 38 l 426 -86 l 351 -60 l 424 -60 q 526 -90 490 -60 q 561 -171 561 -119 q 518 -261 561 -229 q 394 -293 475 -293 z "},"ċ":{"ha":682,"x_min":50,"x_max":651,"o":"m 403 -14 q 222 30 301 -14 q 96 151 142 74 q 50 331 50 229 l 50 346 q 97 526 50 449 q 223 647 143 604 q 403 690 303 690 q 543 660 478 690 q 649 578 608 631 l 551 479 q 485 528 524 513 q 404 543 447 543 q 305 519 349 543 q 235 451 261 494 q 210 346 210 407 l 210 331 q 235 226 210 271 q 306 158 261 182 q 406 133 351 133 q 485 148 447 133 q 556 194 524 163 l 651 99 q 544 16 611 46 q 403 -14 478 -14 m 317 811 l 317 996 l 494 996 l 494 811 l 317 811 z "},"d":{"ha":829,"x_min":51,"x_max":738,"o":"m 371 -14 q 207 29 279 -14 q 93 150 135 72 q 51 332 51 228 l 51 346 q 94 526 51 449 q 209 647 136 604 q 372 690 282 690 q 511 655 450 690 q 610 558 572 619 l 578 521 l 578 1014 l 738 1014 l 738 0 l 593 0 l 593 171 l 624 139 q 519 26 585 67 q 371 -14 454 -14 m 396 126 q 494 152 451 126 q 563 225 538 178 q 588 338 588 272 q 563 451 588 404 q 494 524 538 499 q 396 549 451 549 q 303 524 344 549 q 236 455 261 500 q 211 346 211 410 l 211 332 q 236 223 211 269 q 303 151 261 176 q 396 126 344 126 z "},"ď":{"ha":892,"x_min":51,"x_max":988,"o":"m 371 -14 q 207 29 279 -14 q 93 150 135 72 q 51 332 51 228 l 51 346 q 94 526 51 449 q 209 647 136 604 q 372 690 282 690 q 511 655 450 690 q 610 558 572 619 l 578 521 l 578 1014 l 738 1014 l 738 0 l 593 0 l 593 171 l 624 139 q 519 26 585 67 q 371 -14 454 -14 m 396 126 q 494 152 451 126 q 563 225 538 178 q 588 338 588 272 q 563 451 588 404 q 494 524 538 499 q 396 549 451 549 q 303 524 344 549 q 236 455 261 500 q 211 346 211 410 l 211 332 q 236 223 211 269 q 303 151 261 176 q 396 126 344 126 m 836 739 l 836 1014 l 988 1014 l 968 739 l 836 739 z "},"đ":{"ha":829,"x_min":51,"x_max":824,"o":"m 447 771 l 447 900 l 824 900 l 824 771 l 447 771 m 371 -14 q 207 29 279 -14 q 93 150 135 72 q 51 332 51 228 l 51 346 q 94 526 51 449 q 209 647 136 604 q 372 690 282 690 q 511 655 450 690 q 610 558 572 619 l 578 521 l 578 1014 l 738 1014 l 738 0 l 593 0 l 593 171 l 624 139 q 519 26 585 67 q 371 -14 454 -14 m 396 126 q 494 152 451 126 q 563 225 538 178 q 588 338 588 272 q 563 451 588 404 q 494 524 538 499 q 396 549 451 549 q 303 524 344 549 q 236 455 261 500 q 211 346 211 410 l 211 332 q 236 223 211 269 q 303 151 261 176 q 396 126 344 126 z "},"ð":{"ha":790,"x_min":51,"x_max":739,"o":"m 396 -14 q 216 31 294 -14 q 94 155 138 75 q 51 343 51 235 q 91 513 51 442 q 199 622 131 583 q 353 661 267 661 q 498 617 438 661 q 597 486 558 574 l 574 454 q 494 601 554 529 q 326 763 433 674 l 135 926 l 246 1033 l 447 857 q 613 684 549 768 q 708 516 678 600 q 739 342 739 432 q 697 156 739 236 q 577 31 654 75 q 396 -14 500 -14 m 396 126 q 493 151 451 126 q 557 222 535 176 q 579 326 579 267 q 556 432 579 386 q 492 503 533 478 q 396 528 451 528 q 299 503 340 528 q 234 434 257 479 q 211 328 211 389 q 235 222 211 268 q 299 151 258 176 q 396 126 340 126 m 107 668 l 72 782 l 553 985 l 588 872 l 107 668 z "},"e":{"ha":722,"x_min":51,"x_max":686,"o":"m 393 -14 q 215 30 292 -14 q 94 152 138 74 q 51 335 51 231 l 51 349 q 92 523 51 446 q 205 645 132 600 q 374 690 278 690 q 548 641 476 690 q 653 501 619 592 q 671 289 686 411 l 167 289 l 167 403 l 586 403 l 515 344 q 509 462 525 414 q 458 535 493 510 q 375 561 424 561 q 284 533 321 561 q 228 458 247 506 q 210 349 210 411 l 210 321 q 232 219 210 264 q 297 150 254 175 q 401 125 340 125 q 488 140 453 125 q 553 181 524 154 l 643 86 q 538 11 603 36 q 393 -14 474 -14 z "},"é":{"ha":722,"x_min":51,"x_max":686,"o":"m 393 -14 q 215 30 292 -14 q 94 152 138 74 q 51 335 51 231 l 51 349 q 92 523 51 446 q 205 645 132 600 q 374 690 278 690 q 548 641 476 690 q 653 501 619 592 q 671 289 686 411 l 167 289 l 167 403 l 586 403 l 515 344 q 509 462 525 414 q 458 535 493 510 q 375 561 424 561 q 284 533 321 561 q 228 458 247 506 q 210 349 210 411 l 210 321 q 232 219 210 264 q 297 150 254 175 q 401 125 340 125 q 488 140 453 125 q 553 181 524 154 l 643 86 q 538 11 603 36 q 393 -14 474 -14 m 292 779 l 411 1003 l 601 1003 l 458 779 l 292 779 z "},"ě":{"ha":722,"x_min":51,"x_max":686,"o":"m 393 -14 q 215 30 292 -14 q 94 152 138 74 q 51 335 51 231 l 51 349 q 92 523 51 446 q 205 645 132 600 q 374 690 278 690 q 548 641 476 690 q 653 501 619 592 q 671 289 686 411 l 167 289 l 167 403 l 586 403 l 515 344 q 509 462 525 414 q 458 535 493 510 q 375 561 424 561 q 284 533 321 561 q 228 458 247 506 q 210 349 210 411 l 210 321 q 232 219 210 264 q 297 150 254 175 q 401 125 340 125 q 488 140 453 125 q 553 181 524 154 l 643 86 q 538 11 603 36 q 393 -14 474 -14 m 289 779 l 115 1003 l 271 1003 l 422 826 l 331 826 l 479 1003 l 633 1003 l 460 779 l 289 779 z "},"ê":{"ha":722,"x_min":51,"x_max":686,"o":"m 393 -14 q 215 30 292 -14 q 94 152 138 74 q 51 335 51 231 l 51 349 q 92 523 51 446 q 205 645 132 600 q 374 690 278 690 q 548 641 476 690 q 653 501 619 592 q 671 289 686 411 l 167 289 l 167 403 l 586 403 l 515 344 q 509 462 525 414 q 458 535 493 510 q 375 561 424 561 q 284 533 321 561 q 228 458 247 506 q 210 349 210 411 l 210 321 q 232 219 210 264 q 297 150 254 175 q 401 125 340 125 q 488 140 453 125 q 553 181 524 154 l 643 86 q 538 11 603 36 q 393 -14 474 -14 m 117 779 l 290 1003 l 461 1003 l 635 779 l 479 779 l 328 956 l 419 956 l 271 779 l 117 779 z "},"ë":{"ha":722,"x_min":51,"x_max":686,"o":"m 393 -14 q 215 30 292 -14 q 94 152 138 74 q 51 335 51 231 l 51 349 q 92 523 51 446 q 205 645 132 600 q 374 690 278 690 q 548 641 476 690 q 653 501 619 592 q 671 289 686 411 l 167 289 l 167 403 l 586 403 l 515 344 q 509 462 525 414 q 458 535 493 510 q 375 561 424 561 q 284 533 321 561 q 228 458 247 506 q 210 349 210 411 l 210 321 q 232 219 210 264 q 297 150 254 175 q 401 125 340 125 q 488 140 453 125 q 553 181 524 154 l 643 86 q 538 11 603 36 q 393 -14 474 -14 m 440 815 l 440 992 l 599 992 l 599 815 l 440 815 m 150 815 l 150 992 l 308 992 l 308 815 l 150 815 z "},"ė":{"ha":722,"x_min":51,"x_max":686,"o":"m 393 -14 q 215 30 292 -14 q 94 152 138 74 q 51 335 51 231 l 51 349 q 92 523 51 446 q 205 645 132 600 q 374 690 278 690 q 548 641 476 690 q 653 501 619 592 q 671 289 686 411 l 167 289 l 167 403 l 586 403 l 515 344 q 509 462 525 414 q 458 535 493 510 q 375 561 424 561 q 284 533 321 561 q 228 458 247 506 q 210 349 210 411 l 210 321 q 232 219 210 264 q 297 150 254 175 q 401 125 340 125 q 488 140 453 125 q 553 181 524 154 l 643 86 q 538 11 603 36 q 393 -14 474 -14 m 286 811 l 286 996 l 464 996 l 464 811 l 286 811 z "},"è":{"ha":722,"x_min":51,"x_max":686,"o":"m 393 -14 q 215 30 292 -14 q 94 152 138 74 q 51 335 51 231 l 51 349 q 92 523 51 446 q 205 645 132 600 q 374 690 278 690 q 548 641 476 690 q 653 501 619 592 q 671 289 686 411 l 167 289 l 167 403 l 586 403 l 515 344 q 509 462 525 414 q 458 535 493 510 q 375 561 424 561 q 284 533 321 561 q 228 458 247 506 q 210 349 210 411 l 210 321 q 232 219 210 264 q 297 150 254 175 q 401 125 340 125 q 488 140 453 125 q 553 181 524 154 l 643 86 q 538 11 603 36 q 393 -14 474 -14 m 292 779 l 149 1003 l 339 1003 l 458 779 l 292 779 z "},"ē":{"ha":722,"x_min":51,"x_max":686,"o":"m 393 -14 q 215 30 292 -14 q 94 152 138 74 q 51 335 51 231 l 51 349 q 92 523 51 446 q 205 645 132 600 q 374 690 278 690 q 548 641 476 690 q 653 501 619 592 q 671 289 686 411 l 167 289 l 167 403 l 586 403 l 515 344 q 509 462 525 414 q 458 535 493 510 q 375 561 424 561 q 284 533 321 561 q 228 458 247 506 q 210 349 210 411 l 210 321 q 232 219 210 264 q 297 150 254 175 q 401 125 340 125 q 488 140 453 125 q 553 181 524 154 l 643 86 q 538 11 603 36 q 393 -14 474 -14 m 163 804 l 163 928 l 589 928 l 589 804 l 163 804 z "},"ę":{"ha":722,"x_min":51,"x_max":686,"o":"m 504 -278 q 405 -244 440 -278 q 369 -158 369 -210 q 385 -90 369 -119 q 435 -21 401 -61 l 490 51 l 581 50 q 488 0 536 14 q 393 -14 439 -14 q 215 30 292 -14 q 94 152 138 74 q 51 335 51 231 l 51 349 q 92 523 51 446 q 205 645 132 600 q 374 690 278 690 q 548 641 476 690 q 653 501 619 592 q 671 289 686 411 l 167 289 l 167 403 l 592 403 l 511 329 q 512 454 526 403 q 461 533 497 506 q 375 561 425 561 q 284 533 321 561 q 228 458 247 506 q 210 349 210 411 l 210 321 q 232 219 210 264 q 297 150 254 175 q 401 125 340 125 q 488 140 453 125 q 553 181 524 154 l 643 86 l 531 -83 q 517 -107 522 -96 q 511 -131 511 -118 q 519 -155 511 -143 q 551 -167 528 -167 l 585 -167 l 585 -278 l 504 -278 z "},"f":{"ha":500,"x_min":32,"x_max":476,"o":"m 149 0 l 149 817 q 207 961 149 908 q 363 1014 265 1014 l 476 1014 l 476 881 l 360 881 q 324 866 339 881 q 310 829 310 851 l 310 0 l 149 0 m 32 540 l 32 676 l 476 676 l 476 540 l 32 540 z "},"g":{"ha":701,"x_min":40,"x_max":668,"o":"m 40 -278 l 40 -146 l 450 -146 q 501 -130 485 -146 q 518 -85 518 -114 q 501 -42 518 -57 q 450 -28 485 -28 l 215 -28 q 133 -1 163 -28 q 99 66 103 25 q 115 150 94 107 l 183 286 l 318 253 l 258 132 q 253 117 254 125 q 258 103 253 108 q 276 97 264 97 l 474 97 q 614 53 560 97 q 668 -87 668 8 q 642 -185 668 -142 q 572 -253 617 -228 q 467 -278 526 -278 l 40 -278 m 317 589 l 425 822 l 586 822 l 458 589 l 317 589 m 350 185 q 194 217 261 185 q 88 305 126 249 q 50 435 50 361 l 50 447 q 88 573 50 518 q 194 659 126 628 q 350 690 261 690 q 505 660 438 690 q 610 574 572 629 q 649 449 649 519 l 649 435 q 610 305 649 361 q 505 217 572 249 q 350 185 438 185 m 350 307 q 452 342 413 307 q 492 433 492 378 l 492 442 q 452 528 492 496 q 350 561 413 561 q 247 528 286 561 q 207 440 207 494 l 207 433 q 247 342 207 378 q 350 307 286 307 z "},"ğ":{"ha":701,"x_min":40,"x_max":668,"o":"m 40 -278 l 40 -146 l 450 -146 q 501 -130 485 -146 q 518 -85 518 -114 q 501 -42 518 -57 q 450 -28 485 -28 l 204 -28 q 125 -1 153 -28 q 95 67 97 26 q 115 150 93 107 l 169 256 l 318 253 l 258 132 q 253 117 254 125 q 258 103 253 108 q 276 97 264 97 l 474 97 q 614 53 560 97 q 668 -87 668 8 q 642 -185 668 -142 q 572 -253 617 -228 q 467 -278 526 -278 l 40 -278 m 350 185 q 194 217 261 185 q 88 305 126 249 q 50 435 50 361 l 50 447 q 88 573 50 518 q 194 659 126 628 q 350 690 261 690 q 505 660 438 690 q 610 574 572 629 q 649 449 649 519 l 649 435 q 610 305 649 361 q 505 217 572 249 q 350 185 438 185 m 350 307 q 452 342 413 307 q 492 433 492 378 l 492 442 q 452 528 492 496 q 350 561 413 561 q 247 528 286 561 q 207 440 207 494 l 207 433 q 247 342 207 378 q 350 307 286 307 m 353 772 q 235 794 286 772 q 154 867 183 817 q 125 1003 125 918 l 256 1003 q 279 910 256 938 q 353 882 303 882 q 426 910 403 882 q 450 1003 450 938 l 578 1003 q 549 867 578 918 q 469 794 521 817 q 353 772 418 772 z "},"ģ":{"ha":701,"x_min":40,"x_max":668,"o":"m 40 -278 l 40 -146 l 450 -146 q 501 -130 485 -146 q 518 -85 518 -114 q 501 -42 518 -57 q 450 -28 485 -28 l 204 -28 q 125 -1 153 -28 q 95 67 97 26 q 115 150 93 107 l 169 256 l 318 253 l 258 132 q 253 117 254 125 q 258 103 253 108 q 276 97 264 97 l 474 97 q 614 53 560 97 q 668 -87 668 8 q 642 -185 668 -142 q 572 -253 617 -228 q 467 -278 526 -278 l 40 -278 m 350 185 q 194 217 261 185 q 88 305 126 249 q 50 435 50 361 l 50 447 q 88 573 50 518 q 194 659 126 628 q 350 690 261 690 q 505 660 438 690 q 610 574 572 629 q 649 449 649 519 l 649 435 q 610 305 649 361 q 505 217 572 249 q 350 185 438 185 m 350 307 q 452 342 413 307 q 492 433 492 378 l 492 442 q 452 528 492 496 q 350 561 413 561 q 247 528 286 561 q 207 440 207 494 l 207 433 q 247 342 207 378 q 350 307 286 307 m 268 779 l 268 915 q 282 969 268 950 q 317 995 296 988 q 360 1003 339 1003 l 456 1003 l 456 940 l 363 940 q 344 921 344 940 l 344 892 l 436 892 l 436 779 l 268 779 z "},"ġ":{"ha":701,"x_min":40,"x_max":668,"o":"m 40 -278 l 40 -146 l 450 -146 q 501 -130 485 -146 q 518 -85 518 -114 q 501 -42 518 -57 q 450 -28 485 -28 l 204 -28 q 125 -1 153 -28 q 95 67 97 26 q 115 150 93 107 l 169 256 l 318 253 l 258 132 q 253 117 254 125 q 258 103 253 108 q 276 97 264 97 l 474 97 q 614 53 560 97 q 668 -87 668 8 q 642 -185 668 -142 q 572 -253 617 -228 q 467 -278 526 -278 l 40 -278 m 350 185 q 194 217 261 185 q 88 305 126 249 q 50 435 50 361 l 50 447 q 88 573 50 518 q 194 659 126 628 q 350 690 261 690 q 505 660 438 690 q 610 574 572 629 q 649 449 649 519 l 649 435 q 610 305 649 361 q 505 217 572 249 q 350 185 438 185 m 350 307 q 452 342 413 307 q 492 433 492 378 l 492 442 q 452 528 492 496 q 350 561 413 561 q 247 528 286 561 q 207 440 207 494 l 207 433 q 247 342 207 378 q 350 307 286 307 m 264 811 l 264 996 l 440 996 l 440 811 l 264 811 z "},"h":{"ha":788,"x_min":93,"x_max":703,"o":"m 93 0 l 93 1014 l 247 1014 l 247 490 l 204 490 q 247 590 219 551 q 310 651 275 629 q 383 681 346 672 q 451 690 421 690 q 634 616 565 690 q 703 403 703 542 l 703 0 l 543 0 l 543 376 q 506 505 543 465 q 407 544 468 544 q 328 525 364 544 q 273 467 293 506 q 253 374 253 429 l 253 0 l 93 0 z "},"ħ":{"ha":788,"x_min":7,"x_max":703,"o":"m 7 771 l 7 900 l 382 900 l 382 771 l 7 771 m 93 0 l 93 1014 l 247 1014 l 247 490 l 204 490 q 247 590 219 551 q 310 651 275 629 q 383 681 346 672 q 451 690 421 690 q 634 616 565 690 q 703 403 703 542 l 703 0 l 543 0 l 543 376 q 506 505 543 465 q 407 544 468 544 q 328 525 364 544 q 273 467 293 506 q 253 374 253 429 l 253 0 l 93 0 z "},"i":{"ha":403,"x_min":28,"x_max":319,"o":"m 151 0 l 151 613 l 222 540 l 28 540 l 28 676 l 311 676 l 311 0 l 151 0 m 143 811 l 143 996 l 321 996 l 321 811 l 143 811 z "},"ı":{"ha":403,"x_min":28,"x_max":311,"o":"m 151 0 l 151 613 l 222 540 l 28 540 l 28 676 l 311 676 l 311 0 l 151 0 z "},"í":{"ha":403,"x_min":28,"x_max":458,"o":"m 151 0 l 151 613 l 222 540 l 28 540 l 28 676 l 311 676 l 311 0 l 151 0 m 149 779 l 268 1003 l 458 1003 l 315 779 l 149 779 z "},"î":{"ha":403,"x_min":-26,"x_max":492,"o":"m 151 0 l 151 613 l 222 540 l 28 540 l 28 676 l 311 676 l 311 0 l 151 0 m -26 779 l 147 1003 l 318 1003 l 492 779 l 336 779 l 185 956 l 276 956 l 128 779 l -26 779 z "},"ï":{"ha":403,"x_min":7,"x_max":456,"o":"m 151 0 l 151 613 l 222 540 l 28 540 l 28 676 l 311 676 l 311 0 l 151 0 m 297 815 l 297 992 l 456 992 l 456 815 l 297 815 m 7 815 l 7 992 l 165 992 l 165 815 l 7 815 z "},"ì":{"ha":403,"x_min":6,"x_max":314,"o":"m 151 0 l 151 613 l 222 540 l 28 540 l 28 676 l 311 676 l 311 0 l 151 0 m 149 779 l 6 1003 l 196 1003 l 315 779 l 149 779 z "},"ī":{"ha":403,"x_min":19,"x_max":446,"o":"m 151 0 l 151 613 l 222 540 l 28 540 l 28 676 l 311 676 l 311 0 l 151 0 m 19 804 l 19 928 l 446 928 l 446 804 l 19 804 z "},"į":{"ha":403,"x_min":28,"x_max":319,"o":"m 151 0 l 151 613 l 222 540 l 28 540 l 28 676 l 311 676 l 311 0 l 151 0 m 143 811 l 143 996 l 321 996 l 321 811 l 143 811 m 229 -278 q 130 -243 165 -278 q 94 -154 94 -208 q 111 -84 94 -117 q 168 -6 128 -51 l 236 76 l 311 0 l 254 -83 q 242 -106 247 -93 q 236 -131 236 -118 q 244 -156 236 -143 q 276 -168 253 -168 l 308 -168 l 308 -278 l 229 -278 z "},"j":{"ha":403,"x_min":19,"x_max":324,"o":"m 19 -278 l 19 -144 l 100 -144 q 136 -130 121 -144 q 151 -93 151 -115 l 151 613 l 222 540 l 28 540 l 28 676 l 311 676 l 311 -62 q 249 -220 311 -162 q 79 -278 186 -278 l 19 -278 m 146 811 l 146 996 l 324 996 l 324 811 l 146 811 z "},"ȷ":{"ha":403,"x_min":19,"x_max":311,"o":"m 19 -278 l 19 -144 l 100 -144 q 136 -130 121 -144 q 151 -93 151 -115 l 151 613 l 222 540 l 28 540 l 28 676 l 311 676 l 311 -62 q 249 -220 311 -162 q 79 -278 186 -278 l 19 -278 z "},"k":{"ha":721,"x_min":93,"x_max":717,"o":"m 181 110 l 169 311 l 508 676 l 706 676 l 181 110 m 93 0 l 93 1014 l 253 1014 l 253 0 l 93 0 m 519 0 l 294 368 l 418 475 l 717 0 l 519 0 z "},"ķ":{"ha":721,"x_min":93,"x_max":717,"o":"m 181 110 l 169 311 l 508 676 l 706 676 l 181 110 m 93 0 l 93 1014 l 253 1014 l 253 0 l 93 0 m 519 0 l 294 368 l 418 475 l 717 0 l 519 0 m 279 -293 l 279 -231 l 372 -231 q 390 -211 390 -231 l 390 -182 l 297 -182 l 297 -81 l 467 -81 l 467 -206 q 453 -258 467 -239 q 417 -285 439 -278 q 375 -293 396 -293 l 279 -293 z "},"l":{"ha":407,"x_min":-21,"x_max":374,"o":"m 293 0 q 147 50 201 0 q 92 188 92 100 l 92 950 l 164 878 l -21 878 l -21 1014 l 251 1014 l 251 185 q 267 148 251 163 q 303 133 282 133 l 374 133 l 374 0 l 293 0 z "},"ĺ":{"ha":407,"x_min":-21,"x_max":399,"o":"m 293 0 q 147 50 201 0 q 92 188 92 100 l 92 950 l 164 878 l -21 878 l -21 1014 l 251 1014 l 251 185 q 267 148 251 163 q 303 133 282 133 l 374 133 l 374 0 l 293 0 m 89 1103 l 208 1308 l 399 1308 l 256 1103 l 89 1103 z "},"ľ":{"ha":438,"x_min":-21,"x_max":506,"o":"m 293 0 q 147 50 201 0 q 92 188 92 100 l 92 950 l 164 878 l -21 878 l -21 1014 l 251 1014 l 251 185 q 267 148 251 163 q 303 133 282 133 l 374 133 l 374 0 l 293 0 m 354 739 l 354 1014 l 506 1014 l 486 739 l 354 739 z "},"ļ":{"ha":407,"x_min":-21,"x_max":374,"o":"m 293 0 q 147 50 201 0 q 92 188 92 100 l 92 950 l 164 878 l -21 878 l -21 1014 l 251 1014 l 251 185 q 267 148 251 163 q 303 133 282 133 l 374 133 l 374 0 l 293 0 m 143 -293 l 143 -231 l 236 -231 q 254 -211 254 -231 l 254 -182 l 161 -182 l 161 -81 l 331 -81 l 331 -206 q 317 -258 331 -239 q 281 -285 303 -278 q 239 -293 260 -293 l 143 -293 z "},"ł":{"ha":490,"x_min":36,"x_max":433,"o":"m 42 317 l 42 478 l 433 697 l 433 536 l 42 317 m 350 0 q 203 50 258 0 q 147 188 147 100 l 147 950 l 219 878 l 36 878 l 36 1014 l 308 1014 l 308 185 q 323 148 308 163 q 358 133 338 133 l 431 133 l 431 0 l 350 0 z "},"m":{"ha":1196,"x_min":93,"x_max":1111,"o":"m 93 0 l 93 676 l 246 676 l 246 492 l 203 493 q 263 615 222 572 q 351 674 303 657 q 443 690 399 690 q 587 646 528 690 q 668 511 646 601 l 607 511 q 678 622 632 583 q 774 676 724 661 q 863 690 824 690 q 1042 620 972 690 q 1111 411 1111 550 l 1111 0 l 953 0 l 953 388 q 917 507 953 469 q 822 544 882 544 q 722 503 761 544 q 682 388 682 463 l 682 0 l 522 0 l 522 388 q 487 507 522 469 q 393 544 451 544 q 292 503 333 544 q 251 388 251 463 l 251 0 l 93 0 z "},"n":{"ha":788,"x_min":93,"x_max":703,"o":"m 93 0 l 93 676 l 247 676 l 247 490 l 204 490 q 247 590 219 551 q 310 651 275 629 q 383 681 346 672 q 451 690 421 690 q 634 616 565 690 q 703 403 703 542 l 703 0 l 543 0 l 543 376 q 506 505 543 465 q 407 544 468 544 q 328 525 364 544 q 273 467 293 506 q 253 374 253 429 l 253 0 l 93 0 z "},"ń":{"ha":788,"x_min":93,"x_max":703,"o":"m 93 0 l 93 676 l 247 676 l 247 490 l 204 490 q 247 590 219 551 q 310 651 275 629 q 383 681 346 672 q 451 690 421 690 q 634 616 565 690 q 703 403 703 542 l 703 0 l 543 0 l 543 376 q 506 505 543 465 q 407 544 468 544 q 328 525 364 544 q 273 467 293 506 q 253 374 253 429 l 253 0 l 93 0 m 315 779 l 435 1003 l 625 1003 l 482 779 l 315 779 z "},"ň":{"ha":788,"x_min":93,"x_max":703,"o":"m 93 0 l 93 676 l 247 676 l 247 490 l 204 490 q 247 590 219 551 q 310 651 275 629 q 383 681 346 672 q 451 690 421 690 q 634 616 565 690 q 703 403 703 542 l 703 0 l 543 0 l 543 376 q 506 505 543 465 q 407 544 468 544 q 328 525 364 544 q 273 467 293 506 q 253 374 253 429 l 253 0 l 93 0 m 313 779 l 139 1003 l 294 1003 l 446 826 l 354 826 l 503 1003 l 657 1003 l 483 779 l 313 779 z "},"ņ":{"ha":788,"x_min":93,"x_max":703,"o":"m 93 0 l 93 676 l 247 676 l 247 490 l 204 490 q 247 590 219 551 q 310 651 275 629 q 383 681 346 672 q 451 690 421 690 q 634 616 565 690 q 703 403 703 542 l 703 0 l 543 0 l 543 376 q 506 505 543 465 q 407 544 468 544 q 328 525 364 544 q 273 467 293 506 q 253 374 253 429 l 253 0 l 93 0 m 293 -293 l 293 -231 l 386 -231 q 404 -211 404 -231 l 404 -182 l 311 -182 l 311 -81 l 481 -81 l 481 -206 q 467 -258 481 -239 q 431 -285 453 -278 q 389 -293 410 -293 l 293 -293 z "},"ñ":{"ha":788,"x_min":93,"x_max":703,"o":"m 93 0 l 93 676 l 247 676 l 247 490 l 204 490 q 247 590 219 551 q 310 651 275 629 q 383 681 346 672 q 451 690 421 690 q 634 616 565 690 q 703 403 703 542 l 703 0 l 543 0 l 543 376 q 506 505 543 465 q 407 544 468 544 q 328 525 364 544 q 273 467 293 506 q 253 374 253 429 l 253 0 l 93 0 m 500 765 q 435 783 464 765 q 382 824 406 801 q 339 864 358 846 q 304 882 319 882 q 279 861 286 882 q 272 810 272 840 l 153 810 q 191 954 154 903 q 294 1006 228 1006 q 358 988 329 1006 q 410 948 386 971 q 456 908 435 925 q 492 890 476 890 q 521 913 514 890 q 528 965 528 935 l 646 965 q 608 817 646 869 q 500 765 569 765 z "},"ŋ":{"ha":788,"x_min":93,"x_max":703,"o":"m 411 -278 l 411 -144 l 493 -144 q 528 -130 514 -144 q 543 -93 543 -115 l 543 376 q 506 505 543 465 q 407 544 468 544 q 328 525 364 544 q 273 467 293 506 q 253 374 253 429 l 253 0 l 93 0 l 93 676 l 247 676 l 247 490 l 204 490 q 247 590 219 551 q 310 651 275 629 q 383 681 346 672 q 451 690 421 690 q 634 616 565 690 q 703 403 703 542 l 703 -62 q 640 -220 703 -162 q 472 -278 578 -278 l 411 -278 z "},"o":{"ha":796,"x_min":50,"x_max":746,"o":"m 399 -14 q 221 31 300 -14 q 96 153 142 75 q 50 333 50 232 l 50 346 q 96 525 50 447 q 221 647 142 603 q 399 690 300 690 q 576 647 499 690 q 700 526 654 603 q 746 347 746 449 l 746 333 q 700 153 746 232 q 576 31 654 75 q 399 -14 499 -14 m 399 126 q 497 153 454 126 q 563 226 539 179 q 586 333 586 274 l 586 347 q 563 452 586 407 q 497 523 539 497 q 399 549 454 549 q 302 523 344 549 q 235 451 260 497 q 211 346 211 406 l 211 333 q 235 226 211 274 q 302 153 260 179 q 399 126 344 126 z "},"ó":{"ha":796,"x_min":50,"x_max":746,"o":"m 399 -14 q 221 31 300 -14 q 96 153 142 75 q 50 333 50 232 l 50 346 q 96 525 50 447 q 221 647 142 603 q 399 690 300 690 q 576 647 499 690 q 700 526 654 603 q 746 347 746 449 l 746 333 q 700 153 746 232 q 576 31 654 75 q 399 -14 499 -14 m 399 126 q 497 153 454 126 q 563 226 539 179 q 586 333 586 274 l 586 347 q 563 452 586 407 q 497 523 539 497 q 399 549 454 549 q 302 523 344 549 q 235 451 260 497 q 211 346 211 406 l 211 333 q 235 226 211 274 q 302 153 260 179 q 399 126 344 126 m 314 779 l 433 1003 l 624 1003 l 481 779 l 314 779 z "},"ô":{"ha":796,"x_min":50,"x_max":746,"o":"m 399 -14 q 221 31 300 -14 q 96 153 142 75 q 50 333 50 232 l 50 346 q 96 525 50 447 q 221 647 142 603 q 399 690 300 690 q 576 647 499 690 q 700 526 654 603 q 746 347 746 449 l 746 333 q 700 153 746 232 q 576 31 654 75 q 399 -14 499 -14 m 399 126 q 497 153 454 126 q 563 226 539 179 q 586 333 586 274 l 586 347 q 563 452 586 407 q 497 523 539 497 q 399 549 454 549 q 302 523 344 549 q 235 451 260 497 q 211 346 211 406 l 211 333 q 235 226 211 274 q 302 153 260 179 q 399 126 344 126 m 139 779 l 313 1003 l 483 1003 l 657 779 l 501 779 l 350 956 l 442 956 l 293 779 l 139 779 z "},"ö":{"ha":796,"x_min":50,"x_max":746,"o":"m 399 -14 q 221 31 300 -14 q 96 153 142 75 q 50 333 50 232 l 50 346 q 96 525 50 447 q 221 647 142 603 q 399 690 300 690 q 576 647 499 690 q 700 526 654 603 q 746 347 746 449 l 746 333 q 700 153 746 232 q 576 31 654 75 q 399 -14 499 -14 m 399 126 q 497 153 454 126 q 563 226 539 179 q 586 333 586 274 l 586 347 q 563 452 586 407 q 497 523 539 497 q 399 549 454 549 q 302 523 344 549 q 235 451 260 497 q 211 346 211 406 l 211 333 q 235 226 211 274 q 302 153 260 179 q 399 126 344 126 m 463 815 l 463 992 l 621 992 l 621 815 l 463 815 m 172 815 l 172 992 l 331 992 l 331 815 l 172 815 z "},"ò":{"ha":796,"x_min":50,"x_max":746,"o":"m 399 -14 q 221 31 300 -14 q 96 153 142 75 q 50 333 50 232 l 50 346 q 96 525 50 447 q 221 647 142 603 q 399 690 300 690 q 576 647 499 690 q 700 526 654 603 q 746 347 746 449 l 746 333 q 700 153 746 232 q 576 31 654 75 q 399 -14 499 -14 m 399 126 q 497 153 454 126 q 563 226 539 179 q 586 333 586 274 l 586 347 q 563 452 586 407 q 497 523 539 497 q 399 549 454 549 q 302 523 344 549 q 235 451 260 497 q 211 346 211 406 l 211 333 q 235 226 211 274 q 302 153 260 179 q 399 126 344 126 m 314 779 l 171 1003 l 361 1003 l 481 779 l 314 779 z "},"ő":{"ha":796,"x_min":50,"x_max":746,"o":"m 399 -14 q 221 31 300 -14 q 96 153 142 75 q 50 333 50 232 l 50 346 q 96 525 50 447 q 221 647 142 603 q 399 690 300 690 q 576 647 499 690 q 700 526 654 603 q 746 347 746 449 l 746 333 q 700 153 746 232 q 576 31 654 75 q 399 -14 499 -14 m 399 126 q 497 153 454 126 q 563 226 539 179 q 586 333 586 274 l 586 347 q 563 452 586 407 q 497 523 539 497 q 399 549 454 549 q 302 523 344 549 q 235 451 260 497 q 211 346 211 406 l 211 333 q 235 226 211 274 q 302 153 260 179 q 399 126 344 126 m 213 779 l 324 1003 l 479 1003 l 356 779 l 213 779 m 461 779 l 575 1003 l 743 1003 l 608 779 l 461 779 z "},"ō":{"ha":796,"x_min":50,"x_max":746,"o":"m 399 -14 q 221 31 300 -14 q 96 153 142 75 q 50 333 50 232 l 50 346 q 96 525 50 447 q 221 647 142 603 q 399 690 300 690 q 576 647 499 690 q 700 526 654 603 q 746 347 746 449 l 746 333 q 700 153 746 232 q 576 31 654 75 q 399 -14 499 -14 m 399 126 q 497 153 454 126 q 563 226 539 179 q 586 333 586 274 l 586 347 q 563 452 586 407 q 497 523 539 497 q 399 549 454 549 q 302 523 344 549 q 235 451 260 497 q 211 346 211 406 l 211 333 q 235 226 211 274 q 302 153 260 179 q 399 126 344 126 m 185 804 l 185 928 l 611 928 l 611 804 l 185 804 z "},"ø":{"ha":804,"x_min":54,"x_max":750,"o":"m 133 -39 l 54 36 l 133 124 l 221 213 l 508 535 l 578 619 l 667 717 l 749 643 l 671 557 l 578 464 l 296 146 l 226 63 l 133 -39 m 403 -14 q 225 31 304 -14 q 100 153 146 75 q 54 333 54 232 l 54 346 q 100 525 54 447 q 225 647 146 603 q 403 690 304 690 q 580 647 501 690 q 704 526 658 603 q 750 347 750 449 l 750 333 q 704 153 750 232 q 580 31 658 75 q 403 -14 501 -14 m 403 126 q 501 153 458 126 q 567 226 543 179 q 590 333 590 274 l 590 347 q 567 452 590 407 q 501 523 543 497 q 403 549 458 549 q 306 523 347 549 q 240 451 264 497 q 215 346 215 406 l 215 333 q 240 226 215 274 q 306 153 264 179 q 403 126 347 126 z "},"õ":{"ha":796,"x_min":50,"x_max":746,"o":"m 399 -14 q 221 31 300 -14 q 96 153 142 75 q 50 333 50 232 l 50 346 q 96 525 50 447 q 221 647 142 603 q 399 690 300 690 q 576 647 499 690 q 700 526 654 603 q 746 347 746 449 l 746 333 q 700 153 746 232 q 576 31 654 75 q 399 -14 499 -14 m 399 126 q 497 153 454 126 q 563 226 539 179 q 586 333 586 274 l 586 347 q 563 452 586 407 q 497 523 539 497 q 399 549 454 549 q 302 523 344 549 q 235 451 260 497 q 211 346 211 406 l 211 333 q 235 226 211 274 q 302 153 260 179 q 399 126 344 126 m 499 765 q 433 783 463 765 q 381 824 404 801 q 338 864 357 846 q 303 882 318 882 q 278 861 285 882 q 271 810 271 840 l 151 810 q 190 954 153 903 q 293 1006 226 1006 q 356 988 328 1006 q 409 948 385 971 q 454 908 433 925 q 490 890 475 890 q 519 913 513 890 q 526 965 526 935 l 644 965 q 606 817 644 869 q 499 765 568 765 z "},"œ":{"ha":1239,"x_min":51,"x_max":1203,"o":"m 392 -14 q 217 31 294 -14 q 96 153 140 75 q 51 333 51 232 l 51 347 q 96 526 51 449 q 217 647 140 603 q 392 690 294 690 q 562 644 490 690 q 669 519 633 599 l 621 519 q 728 645 657 600 q 893 690 800 690 q 1066 641 994 690 q 1170 501 1138 592 q 1188 289 1203 411 l 690 289 l 690 403 l 1107 403 l 1028 329 q 1029 454 1043 403 q 980 533 1015 506 q 894 561 944 561 q 804 533 840 561 q 750 458 768 506 q 732 349 732 411 l 732 314 q 754 214 732 257 q 819 148 776 171 q 921 125 861 125 q 1005 138 971 125 q 1068 181 1039 151 l 1160 86 q 1055 10 1119 35 q 913 -14 990 -14 q 733 33 808 -14 q 624 163 658 81 l 675 163 q 566 33 639 81 q 392 -14 493 -14 m 392 128 q 488 154 447 128 q 549 227 528 181 q 571 333 571 274 l 571 349 q 549 453 571 407 q 488 524 528 499 q 392 550 447 550 q 298 524 339 550 q 234 452 257 497 q 211 347 211 407 l 211 333 q 234 227 211 274 q 298 154 257 181 q 392 128 339 128 z "},"p":{"ha":829,"x_min":93,"x_max":778,"o":"m 93 -278 l 93 676 l 243 676 l 243 513 l 211 549 q 315 652 250 614 q 458 690 379 690 q 622 647 550 690 q 736 526 694 604 q 778 346 778 449 l 778 332 q 736 150 778 228 q 623 29 694 72 q 460 -14 551 -14 q 321 22 383 -14 q 219 118 258 57 l 253 156 l 253 -278 l 93 -278 m 433 126 q 527 151 485 126 q 594 223 569 176 q 618 332 618 269 l 618 346 q 594 455 618 410 q 527 524 569 500 q 433 549 485 549 q 335 524 379 549 q 267 451 292 499 q 243 338 243 404 q 267 225 243 272 q 335 152 292 178 q 433 126 379 126 z "},"þ":{"ha":840,"x_min":93,"x_max":789,"o":"m 93 -278 l 93 1014 l 253 1014 l 253 513 l 221 549 q 324 652 260 614 q 468 690 389 690 q 632 647 560 690 q 747 526 704 604 q 789 346 789 449 l 789 332 q 747 150 789 228 q 633 29 706 72 q 469 -14 561 -14 q 324 24 389 -14 q 221 131 260 63 l 253 165 l 253 -278 l 93 -278 m 444 126 q 538 151 496 126 q 603 223 579 176 q 628 332 628 269 l 628 346 q 603 455 628 410 q 538 524 579 500 q 444 549 496 549 q 346 524 389 549 q 278 451 303 499 q 253 338 253 404 q 278 225 253 272 q 346 152 303 178 q 444 126 389 126 z "},"q":{"ha":829,"x_min":51,"x_max":738,"o":"m 578 -278 l 578 156 l 611 118 q 510 22 571 57 q 371 -14 449 -14 q 207 29 279 -14 q 93 150 135 72 q 51 332 51 228 l 51 346 q 94 526 51 449 q 209 647 136 604 q 372 690 282 690 q 517 651 453 690 q 619 546 582 613 l 589 511 l 589 676 l 738 676 l 738 -278 l 578 -278 m 396 126 q 494 152 451 126 q 563 225 538 178 q 588 338 588 272 q 563 451 588 404 q 494 524 538 499 q 396 549 451 549 q 303 524 344 549 q 236 455 261 500 q 211 346 211 410 l 211 332 q 236 223 211 269 q 303 151 261 176 q 396 126 344 126 z "},"r":{"ha":510,"x_min":93,"x_max":485,"o":"m 93 0 l 93 676 l 247 676 l 247 481 l 228 482 q 260 602 232 558 q 332 664 288 646 q 429 682 376 682 l 485 682 l 485 524 l 417 524 q 295 488 338 524 q 253 382 253 451 l 253 0 l 93 0 z "},"ŕ":{"ha":510,"x_min":93,"x_max":524,"o":"m 93 0 l 93 676 l 247 676 l 247 481 l 228 482 q 260 602 232 558 q 332 664 288 646 q 429 682 376 682 l 485 682 l 485 524 l 417 524 q 295 488 338 524 q 253 382 253 451 l 253 0 l 93 0 m 214 779 l 333 1003 l 524 1003 l 381 779 l 214 779 z "},"ř":{"ha":510,"x_min":38,"x_max":556,"o":"m 93 0 l 93 676 l 247 676 l 247 481 l 228 482 q 260 602 232 558 q 332 664 288 646 q 429 682 376 682 l 485 682 l 485 524 l 417 524 q 295 488 338 524 q 253 382 253 451 l 253 0 l 93 0 m 211 779 l 38 1003 l 193 1003 l 344 826 l 253 826 l 401 1003 l 556 1003 l 382 779 l 211 779 z "},"ŗ":{"ha":510,"x_min":71,"x_max":485,"o":"m 93 0 l 93 676 l 247 676 l 247 481 l 228 482 q 260 602 232 558 q 332 664 288 646 q 429 682 376 682 l 485 682 l 485 524 l 417 524 q 295 488 338 524 q 253 382 253 451 l 253 0 l 93 0 m 71 -293 l 71 -231 l 164 -231 q 182 -211 182 -231 l 182 -182 l 89 -182 l 89 -81 l 258 -81 l 258 -206 q 244 -258 258 -239 q 209 -285 231 -278 q 167 -293 188 -293 l 71 -293 z "},"s":{"ha":615,"x_min":36,"x_max":567,"o":"m 296 -12 q 148 11 215 -12 q 36 69 81 35 l 106 179 q 196 131 147 150 q 296 113 244 113 q 376 133 346 113 q 406 188 406 154 q 381 237 406 221 q 318 264 357 253 q 235 286 279 275 q 153 318 192 297 q 89 376 114 339 q 64 478 64 414 q 135 631 64 572 q 325 690 206 690 q 451 672 392 690 q 558 622 511 654 l 488 515 q 410 554 451 540 q 324 568 368 568 q 246 547 275 568 q 217 492 217 525 q 242 444 217 461 q 308 416 268 426 q 392 393 347 406 q 476 359 436 381 q 541 300 515 338 q 567 199 567 263 q 531 89 567 136 q 435 15 496 42 q 296 -12 375 -12 z "},"ś":{"ha":615,"x_min":36,"x_max":567,"o":"m 296 -12 q 148 11 215 -12 q 36 69 81 35 l 106 179 q 196 131 147 150 q 296 113 244 113 q 376 133 346 113 q 406 188 406 154 q 381 237 406 221 q 318 264 357 253 q 235 286 279 275 q 153 318 192 297 q 89 376 114 339 q 64 478 64 414 q 135 631 64 572 q 325 690 206 690 q 451 672 392 690 q 558 622 511 654 l 488 515 q 410 554 451 540 q 324 568 368 568 q 246 547 275 568 q 217 492 217 525 q 242 444 217 461 q 308 416 268 426 q 392 393 347 406 q 476 359 436 381 q 541 300 515 338 q 567 199 567 263 q 531 89 567 136 q 435 15 496 42 q 296 -12 375 -12 m 233 779 l 353 1003 l 543 1003 l 400 779 l 233 779 z "},"š":{"ha":615,"x_min":36,"x_max":576,"o":"m 296 -12 q 148 11 215 -12 q 36 69 81 35 l 106 179 q 196 131 147 150 q 296 113 244 113 q 376 133 346 113 q 406 188 406 154 q 381 237 406 221 q 318 264 357 253 q 235 286 279 275 q 153 318 192 297 q 89 376 114 339 q 64 478 64 414 q 135 631 64 572 q 325 690 206 690 q 451 672 392 690 q 558 622 511 654 l 488 515 q 410 554 451 540 q 324 568 368 568 q 246 547 275 568 q 217 492 217 525 q 242 444 217 461 q 308 416 268 426 q 392 393 347 406 q 476 359 436 381 q 541 300 515 338 q 567 199 567 263 q 531 89 567 136 q 435 15 496 42 q 296 -12 375 -12 m 231 779 l 57 1003 l 213 1003 l 364 826 l 272 826 l 421 1003 l 575 1003 l 401 779 l 231 779 z "},"ş":{"ha":615,"x_min":36,"x_max":567,"o":"m 296 -12 q 148 11 215 -12 q 36 69 81 35 l 106 179 q 196 131 147 150 q 296 113 244 113 q 376 133 346 113 q 406 188 406 154 q 381 237 406 221 q 318 264 357 253 q 235 286 279 275 q 153 318 192 297 q 89 376 114 339 q 64 478 64 414 q 135 631 64 572 q 325 690 206 690 q 451 672 392 690 q 558 622 511 654 l 488 515 q 410 554 451 540 q 324 568 368 568 q 246 547 275 568 q 217 492 217 525 q 242 444 217 461 q 308 416 268 426 q 392 393 347 406 q 476 359 436 381 q 541 300 515 338 q 567 199 567 263 q 531 89 567 136 q 435 15 496 42 q 296 -12 375 -12 m 306 -293 l 183 -293 l 183 -214 l 306 -214 q 343 -203 331 -214 q 356 -174 356 -192 q 343 -145 356 -156 q 306 -135 331 -135 l 221 -135 l 254 38 l 364 38 l 338 -86 l 263 -60 l 335 -60 q 437 -90 401 -60 q 472 -171 472 -119 q 429 -261 472 -229 q 306 -293 386 -293 z "},"ș":{"ha":615,"x_min":36,"x_max":567,"o":"m 296 -12 q 148 11 215 -12 q 36 69 81 35 l 106 179 q 196 131 147 150 q 296 113 244 113 q 376 133 346 113 q 406 188 406 154 q 381 237 406 221 q 318 264 357 253 q 235 286 279 275 q 153 318 192 297 q 89 376 114 339 q 64 478 64 414 q 135 631 64 572 q 325 690 206 690 q 451 672 392 690 q 558 622 511 654 l 488 515 q 410 554 451 540 q 324 568 368 568 q 246 547 275 568 q 217 492 217 525 q 242 444 217 461 q 308 416 268 426 q 392 393 347 406 q 476 359 436 381 q 541 300 515 338 q 567 199 567 263 q 531 89 567 136 q 435 15 496 42 q 296 -12 375 -12 m 203 -293 l 203 -231 l 296 -231 q 314 -211 314 -231 l 314 -182 l 221 -182 l 221 -81 l 390 -81 l 390 -206 q 376 -258 390 -239 q 341 -285 363 -278 q 299 -293 319 -293 l 203 -293 z "},"ß":{"ha":843,"x_min":93,"x_max":793,"o":"m 486 0 l 369 0 l 369 143 l 464 143 q 592 183 550 143 q 633 290 633 224 q 589 398 633 357 q 468 439 544 439 l 415 439 l 415 572 q 544 622 497 581 q 590 731 590 664 q 549 838 590 800 q 435 876 508 876 q 301 823 349 876 q 253 672 253 769 l 253 0 l 93 0 l 93 660 q 183 922 93 826 q 435 1017 272 1017 q 600 983 529 1017 q 710 886 671 949 q 749 739 749 824 q 719 604 749 663 q 631 513 690 546 q 482 479 572 479 l 482 532 q 716 462 639 532 q 793 264 793 392 q 754 122 793 181 q 647 31 715 63 q 486 0 578 0 z "},"t":{"ha":507,"x_min":28,"x_max":460,"o":"m 350 0 q 277 9 314 0 q 210 40 240 18 q 160 101 179 63 q 142 199 142 140 l 142 842 l 301 842 l 301 186 q 316 151 301 165 q 353 136 331 136 l 460 136 l 460 0 l 350 0 m 28 540 l 28 676 l 460 676 l 460 540 l 28 540 z "},"ŧ":{"ha":517,"x_min":35,"x_max":467,"o":"m 58 311 l 58 440 l 435 440 l 435 311 l 58 311 m 357 0 q 284 9 321 0 q 217 40 247 18 q 167 101 186 63 q 149 199 149 140 l 149 842 l 308 842 l 308 186 q 324 151 308 165 q 360 136 339 136 l 467 136 l 467 0 l 357 0 m 35 540 l 35 676 l 467 676 l 467 540 l 35 540 z "},"ť":{"ha":507,"x_min":28,"x_max":549,"o":"m 350 0 q 277 9 314 0 q 210 40 240 18 q 160 101 179 63 q 142 199 142 140 l 142 842 l 301 842 l 301 186 q 316 151 301 165 q 353 136 331 136 l 460 136 l 460 0 l 350 0 m 28 540 l 28 676 l 460 676 l 460 540 l 28 540 m 397 760 l 397 1003 l 549 1003 l 529 760 l 397 760 z "},"ţ":{"ha":507,"x_min":28,"x_max":478,"o":"m 350 0 q 277 9 314 0 q 210 40 240 18 q 160 101 179 63 q 142 199 142 140 l 142 842 l 301 842 l 301 186 q 316 151 301 165 q 353 136 331 136 l 460 136 l 460 0 l 350 0 m 28 540 l 28 676 l 460 676 l 460 540 l 28 540 m 311 -286 l 189 -286 l 189 -207 l 311 -207 q 349 -196 336 -207 q 361 -167 361 -185 q 349 -138 361 -149 q 311 -128 336 -128 l 226 -128 l 260 44 l 369 44 l 343 -79 l 268 -53 l 340 -53 q 442 -83 407 -53 q 478 -164 478 -112 q 435 -254 478 -222 q 311 -286 392 -286 z "},"ț":{"ha":507,"x_min":28,"x_max":460,"o":"m 350 0 q 277 9 314 0 q 210 40 240 18 q 160 101 179 63 q 142 199 142 140 l 142 842 l 301 842 l 301 186 q 316 151 301 165 q 353 136 331 136 l 460 136 l 460 0 l 350 0 m 28 540 l 28 676 l 460 676 l 460 540 l 28 540 m 208 -286 l 208 -224 l 301 -224 q 319 -204 319 -224 l 319 -175 l 226 -175 l 226 -74 l 396 -74 l 396 -199 q 382 -251 396 -232 q 347 -278 368 -271 q 304 -286 325 -286 l 208 -286 z "},"u":{"ha":782,"x_min":85,"x_max":689,"o":"m 344 -14 q 212 16 271 -14 q 119 107 153 46 q 85 260 85 168 l 85 676 l 244 676 l 244 290 q 262 197 244 232 q 310 147 279 163 q 381 132 342 132 q 457 150 424 132 q 510 205 490 168 q 529 297 529 242 l 529 676 l 689 676 l 689 0 l 551 0 l 551 186 l 596 186 q 553 85 582 125 q 488 24 524 46 q 414 -6 451 3 q 344 -14 376 -14 z "},"ú":{"ha":782,"x_min":85,"x_max":689,"o":"m 344 -14 q 212 16 271 -14 q 119 107 153 46 q 85 260 85 168 l 85 676 l 244 676 l 244 290 q 262 197 244 232 q 310 147 279 163 q 381 132 342 132 q 457 150 424 132 q 510 205 490 168 q 529 297 529 242 l 529 676 l 689 676 l 689 0 l 551 0 l 551 186 l 596 186 q 553 85 582 125 q 488 24 524 46 q 414 -6 451 3 q 344 -14 376 -14 m 304 779 l 424 1003 l 614 1003 l 471 779 l 304 779 z "},"ŭ":{"ha":782,"x_min":85,"x_max":689,"o":"m 344 -14 q 212 16 271 -14 q 119 107 153 46 q 85 260 85 168 l 85 676 l 244 676 l 244 290 q 262 197 244 232 q 310 147 279 163 q 381 132 342 132 q 457 150 424 132 q 510 205 490 168 q 529 297 529 242 l 529 676 l 689 676 l 689 0 l 551 0 l 551 186 l 596 186 q 553 85 582 125 q 488 24 524 46 q 414 -6 451 3 q 344 -14 376 -14 m 388 772 q 270 794 322 772 q 190 867 218 817 q 161 1003 161 918 l 290 1003 q 314 910 290 938 q 388 882 338 882 q 462 910 438 882 q 486 1003 486 938 l 614 1003 q 585 867 614 918 q 505 794 556 817 q 388 772 454 772 z "},"û":{"ha":782,"x_min":85,"x_max":689,"o":"m 344 -14 q 212 16 271 -14 q 119 107 153 46 q 85 260 85 168 l 85 676 l 244 676 l 244 290 q 262 197 244 232 q 310 147 279 163 q 381 132 342 132 q 457 150 424 132 q 510 205 490 168 q 529 297 529 242 l 529 676 l 689 676 l 689 0 l 551 0 l 551 186 l 596 186 q 553 85 582 125 q 488 24 524 46 q 414 -6 451 3 q 344 -14 376 -14 m 129 779 l 303 1003 l 474 1003 l 647 779 l 492 779 l 340 956 l 432 956 l 283 779 l 129 779 z "},"ü":{"ha":782,"x_min":85,"x_max":689,"o":"m 344 -14 q 212 16 271 -14 q 119 107 153 46 q 85 260 85 168 l 85 676 l 244 676 l 244 290 q 262 197 244 232 q 310 147 279 163 q 381 132 342 132 q 457 150 424 132 q 510 205 490 168 q 529 297 529 242 l 529 676 l 689 676 l 689 0 l 551 0 l 551 186 l 596 186 q 553 85 582 125 q 488 24 524 46 q 414 -6 451 3 q 344 -14 376 -14 m 453 815 l 453 992 l 611 992 l 611 815 l 453 815 m 163 815 l 163 992 l 321 992 l 321 815 l 163 815 z "},"ù":{"ha":782,"x_min":85,"x_max":689,"o":"m 344 -14 q 212 16 271 -14 q 119 107 153 46 q 85 260 85 168 l 85 676 l 244 676 l 244 290 q 262 197 244 232 q 310 147 279 163 q 381 132 342 132 q 457 150 424 132 q 510 205 490 168 q 529 297 529 242 l 529 676 l 689 676 l 689 0 l 551 0 l 551 186 l 596 186 q 553 85 582 125 q 488 24 524 46 q 414 -6 451 3 q 344 -14 376 -14 m 304 779 l 161 1003 l 351 1003 l 471 779 l 304 779 z "},"ű":{"ha":782,"x_min":85,"x_max":733,"o":"m 344 -14 q 212 16 271 -14 q 119 107 153 46 q 85 260 85 168 l 85 676 l 244 676 l 244 290 q 262 197 244 232 q 310 147 279 163 q 381 132 342 132 q 457 150 424 132 q 510 205 490 168 q 529 297 529 242 l 529 676 l 689 676 l 689 0 l 551 0 l 551 186 l 596 186 q 553 85 582 125 q 488 24 524 46 q 414 -6 451 3 q 344 -14 376 -14 m 203 779 l 314 1003 l 469 1003 l 346 779 l 203 779 m 451 779 l 565 1003 l 733 1003 l 599 779 l 451 779 z "},"ū":{"ha":782,"x_min":85,"x_max":689,"o":"m 344 -14 q 212 16 271 -14 q 119 107 153 46 q 85 260 85 168 l 85 676 l 244 676 l 244 290 q 262 197 244 232 q 310 147 279 163 q 381 132 342 132 q 457 150 424 132 q 510 205 490 168 q 529 297 529 242 l 529 676 l 689 676 l 689 0 l 551 0 l 551 186 l 596 186 q 553 85 582 125 q 488 24 524 46 q 414 -6 451 3 q 344 -14 376 -14 m 175 804 l 175 928 l 601 928 l 601 804 l 175 804 z "},"ų":{"ha":782,"x_min":85,"x_max":689,"o":"m 344 -14 q 212 16 271 -14 q 119 107 153 46 q 85 260 85 168 l 85 676 l 244 676 l 244 290 q 262 197 244 232 q 310 147 279 163 q 381 132 342 132 q 457 150 424 132 q 510 205 490 168 q 529 297 529 242 l 529 676 l 689 676 l 689 0 l 551 0 l 551 186 l 596 186 q 553 85 582 125 q 488 24 524 46 q 414 -6 451 3 q 344 -14 376 -14 m 607 -278 q 508 -243 543 -278 q 472 -154 472 -208 q 489 -84 472 -117 q 546 -6 506 -51 l 614 76 l 689 0 l 632 -83 q 619 -106 625 -93 q 614 -131 614 -118 q 622 -156 614 -143 q 654 -168 631 -168 l 686 -168 l 686 -278 l 607 -278 z "},"ů":{"ha":782,"x_min":85,"x_max":689,"o":"m 344 -14 q 212 16 271 -14 q 119 107 153 46 q 85 260 85 168 l 85 676 l 244 676 l 244 290 q 262 197 244 232 q 310 147 279 163 q 381 132 342 132 q 457 150 424 132 q 510 205 490 168 q 529 297 529 242 l 529 676 l 689 676 l 689 0 l 551 0 l 551 186 l 596 186 q 553 85 582 125 q 488 24 524 46 q 414 -6 451 3 q 344 -14 376 -14 m 386 757 q 265 801 313 757 q 218 915 218 844 q 265 1028 218 983 q 386 1072 313 1072 q 508 1028 461 1072 q 556 915 556 983 q 508 801 556 844 q 386 757 461 757 m 386 839 q 440 860 419 839 q 460 914 460 881 q 440 969 460 949 q 386 989 419 989 q 333 969 354 989 q 313 914 313 949 q 333 860 313 881 q 386 839 354 839 z "},"v":{"ha":704,"x_min":7,"x_max":696,"o":"m 268 0 l 7 676 l 174 676 l 383 106 l 321 106 l 529 676 l 696 676 l 438 0 l 268 0 z "},"w":{"ha":1060,"x_min":26,"x_max":1033,"o":"m 207 0 l 26 676 l 186 676 l 324 101 l 292 101 l 446 676 l 614 676 l 769 103 l 736 101 l 875 676 l 1033 676 l 853 0 l 668 0 l 503 638 l 557 638 l 392 0 l 207 0 z "},"ẃ":{"ha":1060,"x_min":26,"x_max":1033,"o":"m 207 0 l 26 676 l 186 676 l 324 101 l 292 101 l 446 676 l 614 676 l 769 103 l 736 101 l 875 676 l 1033 676 l 853 0 l 668 0 l 503 638 l 557 638 l 392 0 l 207 0 m 446 779 l 565 1003 l 756 1003 l 613 779 l 446 779 z "},"ŵ":{"ha":1060,"x_min":26,"x_max":1033,"o":"m 207 0 l 26 676 l 186 676 l 324 101 l 292 101 l 446 676 l 614 676 l 769 103 l 736 101 l 875 676 l 1033 676 l 853 0 l 668 0 l 503 638 l 557 638 l 392 0 l 207 0 m 271 779 l 444 1003 l 615 1003 l 789 779 l 633 779 l 482 956 l 574 956 l 425 779 l 271 779 z "},"ẅ":{"ha":1060,"x_min":26,"x_max":1033,"o":"m 207 0 l 26 676 l 186 676 l 324 101 l 292 101 l 446 676 l 614 676 l 769 103 l 736 101 l 875 676 l 1033 676 l 853 0 l 668 0 l 503 638 l 557 638 l 392 0 l 207 0 m 594 815 l 594 992 l 753 992 l 753 815 l 594 815 m 304 815 l 304 992 l 463 992 l 463 815 l 304 815 z "},"ẁ":{"ha":1060,"x_min":26,"x_max":1033,"o":"m 207 0 l 26 676 l 186 676 l 324 101 l 292 101 l 446 676 l 614 676 l 769 103 l 736 101 l 875 676 l 1033 676 l 853 0 l 668 0 l 503 638 l 557 638 l 392 0 l 207 0 m 446 779 l 303 1003 l 493 1003 l 613 779 l 446 779 z "},"x":{"ha":699,"x_min":13,"x_max":683,"o":"m 13 0 l 243 338 l 19 676 l 207 676 l 351 440 l 494 676 l 679 676 l 456 339 l 683 0 l 493 0 l 346 233 l 199 0 l 13 0 z "},"y":{"ha":719,"x_min":6,"x_max":711,"o":"m 42 -278 l 42 -142 l 189 -142 q 219 -131 207 -142 q 239 -101 231 -119 l 347 132 l 533 676 l 711 676 l 399 -108 q 360 -187 385 -147 q 294 -252 336 -226 q 181 -278 251 -278 l 42 -278 m 304 -68 l 6 676 l 183 676 l 399 97 l 304 -68 z "},"ý":{"ha":719,"x_min":6,"x_max":711,"o":"m 42 -278 l 42 -142 l 189 -142 q 219 -131 207 -142 q 239 -101 231 -119 l 347 132 l 533 676 l 711 676 l 399 -108 q 360 -187 385 -147 q 294 -252 336 -226 q 181 -278 251 -278 l 42 -278 m 304 -68 l 6 676 l 183 676 l 399 97 l 304 -68 m 285 779 l 404 1003 l 594 1003 l 451 779 l 285 779 z "},"ŷ":{"ha":719,"x_min":6,"x_max":711,"o":"m 42 -278 l 42 -142 l 189 -142 q 219 -131 207 -142 q 239 -101 231 -119 l 347 132 l 533 676 l 711 676 l 399 -108 q 360 -187 385 -147 q 294 -252 336 -226 q 181 -278 251 -278 l 42 -278 m 304 -68 l 6 676 l 183 676 l 399 97 l 304 -68 m 110 779 l 283 1003 l 454 1003 l 628 779 l 472 779 l 321 956 l 413 956 l 264 779 l 110 779 z "},"ÿ":{"ha":719,"x_min":6,"x_max":711,"o":"m 42 -278 l 42 -142 l 189 -142 q 219 -131 207 -142 q 239 -101 231 -119 l 347 132 l 533 676 l 711 676 l 399 -108 q 360 -187 385 -147 q 294 -252 336 -226 q 181 -278 251 -278 l 42 -278 m 304 -68 l 6 676 l 183 676 l 399 97 l 304 -68 m 433 815 l 433 992 l 592 992 l 592 815 l 433 815 m 143 815 l 143 992 l 301 992 l 301 815 l 143 815 z "},"ỳ":{"ha":719,"x_min":6,"x_max":711,"o":"m 42 -278 l 42 -142 l 189 -142 q 219 -131 207 -142 q 239 -101 231 -119 l 347 132 l 533 676 l 711 676 l 399 -108 q 360 -187 385 -147 q 294 -252 336 -226 q 181 -278 251 -278 l 42 -278 m 304 -68 l 6 676 l 183 676 l 399 97 l 304 -68 m 285 779 l 142 1003 l 332 1003 l 451 779 l 285 779 z "},"z":{"ha":633,"x_min":50,"x_max":586,"o":"m 50 0 l 50 122 l 429 599 l 464 535 l 54 535 l 54 676 l 576 676 l 576 551 l 194 81 l 164 140 l 586 140 l 586 0 l 50 0 z "},"ź":{"ha":633,"x_min":50,"x_max":586,"o":"m 50 0 l 50 122 l 429 599 l 464 535 l 54 535 l 54 676 l 576 676 l 576 551 l 194 81 l 164 140 l 586 140 l 586 0 l 50 0 m 233 779 l 353 1003 l 543 1003 l 400 779 l 233 779 z "},"ž":{"ha":633,"x_min":50,"x_max":586,"o":"m 50 0 l 50 122 l 429 599 l 464 535 l 54 535 l 54 676 l 576 676 l 576 551 l 194 81 l 164 140 l 586 140 l 586 0 l 50 0 m 231 779 l 57 1003 l 213 1003 l 364 826 l 272 826 l 421 1003 l 575 1003 l 401 779 l 231 779 z "},"ż":{"ha":633,"x_min":50,"x_max":586,"o":"m 50 0 l 50 122 l 429 599 l 464 535 l 54 535 l 54 676 l 576 676 l 576 551 l 194 81 l 164 140 l 586 140 l 586 0 l 50 0 m 228 811 l 228 996 l 406 996 l 406 811 l 228 811 z "},"ﬁ":{"ha":843,"x_min":32,"x_max":760,"o":"m 590 0 l 590 613 l 661 540 l 32 540 l 32 676 l 750 676 l 750 0 l 590 0 m 149 0 l 149 817 q 207 961 149 908 q 363 1014 265 1014 l 481 1014 l 481 881 l 360 881 q 324 866 339 881 q 310 829 310 851 l 310 0 l 149 0 m 583 811 l 583 996 l 760 996 l 760 811 l 583 811 z "},"ﬂ":{"ha":878,"x_min":32,"x_max":844,"o":"m 149 0 l 149 817 q 207 961 149 908 q 363 1014 265 1014 l 460 1014 l 460 881 l 360 881 q 324 866 339 881 q 310 829 310 851 l 310 0 l 149 0 m 32 540 l 32 676 l 649 676 l 649 540 l 32 540 m 764 0 q 617 50 672 0 q 563 188 563 100 l 563 1014 l 722 1014 l 722 185 q 737 148 722 163 q 774 133 751 133 l 844 133 l 844 0 l 764 0 z "},"ª":{"ha":578,"x_min":58,"x_max":499,"o":"m 386 472 l 385 622 l 369 669 l 369 788 q 343 852 369 833 q 276 871 317 871 q 201 858 242 871 q 129 818 161 846 l 72 903 q 165 961 107 940 q 285 982 222 982 q 437 934 378 982 q 496 794 496 886 l 496 632 q 497 549 496 589 q 499 472 497 508 l 386 472 m 243 463 q 109 503 160 463 q 58 608 58 544 q 111 719 58 676 q 261 761 164 761 q 397 722 351 761 q 442 617 442 682 l 406 617 q 366 503 406 544 q 243 463 326 463 m 279 557 q 346 574 321 557 q 371 615 371 590 q 346 658 371 642 q 279 674 321 674 q 212 658 238 674 q 186 615 186 642 q 212 574 186 590 q 279 557 238 557 z "},"º":{"ha":619,"x_min":50,"x_max":569,"o":"m 310 463 q 177 495 236 463 q 84 585 118 528 q 50 718 50 643 l 50 728 q 85 860 50 803 q 178 949 119 917 q 310 982 238 982 q 442 949 383 982 q 535 860 500 917 q 569 728 569 803 l 569 718 q 535 585 569 643 q 442 495 501 528 q 310 463 383 463 m 310 574 q 405 614 368 574 q 442 718 442 654 l 442 728 q 405 831 442 792 q 310 869 368 869 q 215 830 251 869 q 178 728 178 790 l 178 718 q 215 615 178 656 q 310 574 251 574 z "},"⁄":{"ha":304,"x_min":-214,"x_max":517,"o":"m -214 0 l 86 489 l 375 972 l 517 972 l 203 456 l -71 0 l -214 0 z "},"½":{"ha":1318,"x_min":61,"x_max":1267,"o":"m 199 426 l 199 838 q 193 853 199 847 q 178 860 188 860 l 61 860 l 61 972 l 218 972 q 291 944 263 972 q 319 872 319 915 l 319 426 l 199 426 m 65 382 l 65 494 l 450 494 l 450 382 l 65 382 m 303 0 l 603 489 l 892 972 l 1033 972 l 719 456 l 446 0 l 303 0 m 854 0 l 854 92 l 1056 293 q 1102 353 1089 325 q 1115 408 1115 381 q 1094 463 1115 442 q 1039 483 1074 483 q 976 465 1004 483 q 921 408 949 446 l 843 488 q 930 569 879 540 q 1043 599 981 599 q 1145 576 1100 599 q 1216 515 1190 554 q 1242 422 1242 475 q 1218 326 1242 375 q 1140 222 1194 278 l 996 76 l 990 111 l 1267 111 l 1267 0 l 854 0 z "},"⅓":{"ha":1324,"x_min":56,"x_max":1281,"o":"m 193 426 l 193 838 q 188 853 193 847 q 172 860 182 860 l 56 860 l 56 972 l 213 972 q 285 944 257 972 q 314 872 314 915 l 314 426 l 193 426 m 60 382 l 60 494 l 444 494 l 444 382 l 60 382 m 300 0 l 600 489 l 889 972 l 1031 972 l 717 456 l 443 0 l 300 0 m 1056 -8 q 945 12 994 -8 q 857 71 896 32 l 925 153 q 983 110 951 125 q 1057 94 1015 94 q 1131 116 1103 94 q 1158 172 1158 138 q 1134 224 1158 206 q 1072 242 1110 242 l 982 242 l 982 347 l 1063 347 q 1123 367 1100 347 q 1146 419 1146 388 q 1122 474 1146 454 q 1057 494 1099 494 q 990 479 1022 494 q 933 436 958 464 l 865 518 q 953 577 901 556 q 1063 599 1004 599 q 1210 553 1153 599 q 1267 435 1267 508 q 1216 317 1267 365 q 1075 269 1165 269 l 1075 331 q 1231 283 1182 331 q 1279 167 1279 235 q 1250 76 1279 115 q 1170 14 1221 36 q 1056 -8 1119 -8 z "},"⅔":{"ha":1329,"x_min":46,"x_max":1285,"o":"m 57 382 l 57 472 l 258 674 q 305 735 292 707 q 318 790 318 763 q 297 844 318 824 q 242 864 276 864 q 180 846 207 864 q 125 790 153 828 l 46 868 q 133 951 82 922 q 246 981 183 981 q 349 958 304 981 q 419 897 393 936 q 444 804 444 857 q 422 708 444 757 q 343 604 399 660 l 200 458 l 193 493 l 469 493 l 469 382 l 57 382 m 315 0 l 615 489 l 904 972 l 1046 972 l 732 456 l 458 0 l 315 0 m 1061 -8 q 951 12 1000 -8 q 863 71 901 32 l 931 153 q 989 110 957 125 q 1063 94 1021 94 q 1136 116 1108 94 q 1164 172 1164 138 q 1140 224 1164 206 q 1078 242 1115 242 l 988 242 l 988 347 l 1068 347 q 1128 367 1106 347 q 1151 419 1151 388 q 1128 474 1151 454 q 1063 494 1104 494 q 996 479 1028 494 q 939 436 964 464 l 871 518 q 958 577 907 556 q 1068 599 1010 599 q 1215 553 1158 599 q 1272 435 1272 508 q 1222 317 1272 365 q 1081 269 1171 269 l 1081 331 q 1236 283 1188 331 q 1285 167 1285 235 q 1256 76 1285 115 q 1176 14 1226 36 q 1061 -8 1125 -8 z "},"¼":{"ha":1264,"x_min":56,"x_max":1238,"o":"m 193 426 l 193 838 q 188 853 193 847 q 172 860 182 860 l 56 860 l 56 972 l 213 972 q 285 944 257 972 q 314 872 314 915 l 314 426 l 193 426 m 60 382 l 60 494 l 444 494 l 444 382 l 60 382 m 297 0 l 597 489 l 886 972 l 1028 972 l 714 456 l 440 0 l 297 0 m 781 126 l 781 228 l 954 590 l 1075 590 l 894 197 l 867 233 l 1238 233 l 1238 126 l 781 126 m 1042 0 l 1042 378 l 1160 378 l 1160 0 l 1042 0 z "},"¾":{"ha":1224,"x_min":42,"x_max":1194,"o":"m 240 374 q 130 394 179 374 q 42 453 81 414 l 110 533 q 169 492 138 507 q 242 476 200 476 q 315 498 288 476 q 343 554 343 519 q 319 606 343 588 q 257 624 294 624 l 167 624 l 167 729 l 247 729 q 308 749 285 729 q 331 801 331 769 q 307 856 331 836 q 242 876 283 876 q 176 861 207 876 q 118 817 144 846 l 50 900 q 138 959 86 938 q 247 981 189 981 q 395 935 339 981 q 451 817 451 890 q 401 699 451 747 q 260 651 350 651 l 260 713 q 415 665 367 713 q 464 549 464 617 q 435 458 464 497 q 355 396 406 418 q 240 374 304 374 m 264 0 l 564 489 l 853 972 l 994 972 l 681 456 l 407 0 l 264 0 m 738 126 l 738 228 l 911 590 l 1032 590 l 851 197 l 824 233 l 1194 233 l 1194 126 l 738 126 m 999 0 l 999 378 l 1117 378 l 1117 0 l 999 0 z "},"⅕":{"ha":1299,"x_min":54,"x_max":1240,"o":"m 192 426 l 192 838 q 186 853 192 847 q 171 860 181 860 l 54 860 l 54 972 l 211 972 q 284 944 256 972 q 313 872 313 915 l 313 426 l 192 426 m 58 382 l 58 494 l 443 494 l 443 382 l 58 382 m 296 0 l 596 489 l 885 972 l 1026 972 l 713 456 l 439 0 l 296 0 m 1014 -8 q 907 11 957 -8 q 817 71 857 31 l 885 153 q 944 109 913 124 q 1015 94 976 94 q 1092 119 1065 94 q 1119 188 1119 144 q 1097 247 1119 225 q 1033 269 1074 269 q 986 258 1007 269 q 954 224 965 246 l 856 224 l 861 494 q 892 565 861 540 q 960 590 922 590 l 1218 590 l 1218 482 l 986 482 q 977 478 981 482 q 972 469 974 474 l 967 281 l 919 281 q 969 348 935 324 q 1060 372 1003 372 q 1190 323 1140 372 q 1240 193 1240 274 q 1176 44 1240 97 q 1014 -8 1111 -8 z "},"⅖":{"ha":1306,"x_min":46,"x_max":1251,"o":"m 57 382 l 57 472 l 258 674 q 305 735 292 707 q 318 790 318 763 q 297 844 318 824 q 242 864 276 864 q 180 846 207 864 q 125 790 153 828 l 46 868 q 133 951 82 922 q 246 981 183 981 q 349 958 304 981 q 419 897 393 936 q 444 804 444 857 q 422 708 444 757 q 343 604 399 660 l 200 458 l 193 493 l 469 493 l 469 382 l 57 382 m 311 0 l 611 489 l 900 972 l 1042 972 l 728 456 l 454 0 l 311 0 m 1026 -8 q 919 11 969 -8 q 829 71 869 31 l 897 153 q 957 109 925 124 q 1028 94 989 94 q 1105 119 1078 94 q 1132 188 1132 144 q 1109 247 1132 225 q 1046 269 1086 269 q 999 258 1019 269 q 967 224 978 246 l 868 224 l 874 494 q 904 565 874 540 q 972 590 935 590 l 1231 590 l 1231 482 l 999 482 q 990 478 993 482 q 985 469 986 474 l 979 281 l 932 281 q 981 348 947 324 q 1072 372 1015 372 q 1203 323 1153 372 q 1253 193 1253 274 q 1188 44 1253 97 q 1026 -8 1124 -8 z "},"⅗":{"ha":1260,"x_min":42,"x_max":1208,"o":"m 240 374 q 130 394 179 374 q 42 453 81 414 l 110 533 q 169 492 138 507 q 242 476 200 476 q 315 498 288 476 q 343 554 343 519 q 319 606 343 588 q 257 624 294 624 l 167 624 l 167 729 l 247 729 q 308 749 285 729 q 331 801 331 769 q 307 856 331 836 q 242 876 283 876 q 176 861 207 876 q 118 817 144 846 l 50 900 q 138 959 86 938 q 247 981 189 981 q 395 935 339 981 q 451 817 451 890 q 401 699 451 747 q 260 651 350 651 l 260 713 q 415 665 367 713 q 464 549 464 617 q 435 458 464 497 q 355 396 406 418 q 240 374 304 374 m 264 0 l 564 489 l 853 972 l 994 972 l 681 456 l 407 0 l 264 0 m 982 -8 q 875 11 925 -8 q 785 71 825 31 l 853 153 q 913 109 881 124 q 983 94 944 94 q 1060 119 1033 94 q 1088 188 1088 144 q 1065 247 1088 225 q 1001 269 1042 269 q 954 258 975 269 q 922 224 933 246 l 824 224 l 829 494 q 860 565 829 540 q 928 590 890 590 l 1186 590 l 1186 482 l 954 482 q 945 478 949 482 q 940 469 942 474 l 935 281 l 888 281 q 937 348 903 324 q 1028 372 971 372 q 1158 323 1108 372 q 1208 193 1208 274 q 1144 44 1208 97 q 982 -8 1079 -8 z "},"⅘":{"ha":1313,"x_min":46,"x_max":1254,"o":"m 46 508 l 46 610 l 218 972 l 339 972 l 160 579 l 132 615 l 501 615 l 501 508 l 46 508 m 306 382 l 306 758 l 425 758 l 425 382 l 306 382 m 310 0 l 610 489 l 899 972 l 1040 972 l 726 456 l 453 0 l 310 0 m 1028 -8 q 921 11 971 -8 q 831 71 871 31 l 899 153 q 958 109 926 124 q 1029 94 990 94 q 1106 119 1079 94 q 1133 188 1133 144 q 1110 247 1133 225 q 1047 269 1088 269 q 1000 258 1021 269 q 968 224 979 246 l 869 224 l 875 494 q 906 565 875 540 q 974 590 936 590 l 1232 590 l 1232 482 l 1000 482 q 991 478 994 482 q 986 469 988 474 l 981 281 l 933 281 q 983 348 949 324 q 1074 372 1017 372 q 1204 323 1154 372 q 1254 193 1254 274 q 1190 44 1254 97 q 1028 -8 1125 -8 z "},"⅙":{"ha":1242,"x_min":64,"x_max":1211,"o":"m 201 426 l 201 838 q 196 853 201 847 q 181 860 190 860 l 64 860 l 64 972 l 221 972 q 294 944 265 972 q 322 872 322 915 l 322 426 l 201 426 m 68 382 l 68 494 l 453 494 l 453 382 l 68 382 m 306 0 l 606 489 l 894 972 l 1036 972 l 722 456 l 449 0 l 306 0 m 990 -8 q 827 48 888 -8 q 767 199 767 104 q 786 288 767 243 q 838 381 806 333 l 982 590 l 1129 590 l 942 340 l 890 335 q 949 375 918 361 q 1015 389 981 389 q 1157 333 1103 389 q 1211 192 1211 278 q 1150 46 1211 100 q 990 -8 1089 -8 m 988 97 q 1058 124 1031 97 q 1086 192 1086 150 q 1059 260 1086 233 q 989 288 1032 288 q 920 260 947 288 q 893 192 893 233 q 919 124 893 150 q 988 97 946 97 z "},"⅚":{"ha":1197,"x_min":38,"x_max":1163,"o":"m 235 374 q 128 393 178 374 q 36 453 78 413 l 104 533 q 165 491 133 506 q 236 476 197 476 q 313 501 286 476 q 340 569 340 526 q 317 629 340 607 q 254 651 294 651 q 207 640 228 651 q 174 606 186 628 l 76 606 l 81 876 q 113 947 82 922 q 181 972 143 972 l 439 972 l 439 864 l 207 864 q 197 860 201 864 q 193 850 193 856 l 188 663 l 140 663 q 190 730 156 706 q 281 754 224 754 q 411 705 361 754 q 461 575 461 656 q 397 426 461 479 q 235 374 332 374 m 257 0 l 557 489 l 846 972 l 988 972 l 674 456 l 400 0 l 257 0 m 942 -8 q 778 48 839 -8 q 718 199 718 104 q 738 288 718 243 q 789 381 757 333 l 933 590 l 1081 590 l 893 340 l 842 335 q 901 375 869 361 q 967 389 932 389 q 1108 333 1054 389 q 1163 192 1163 278 q 1101 46 1163 100 q 942 -8 1040 -8 m 939 97 q 1010 124 982 97 q 1038 192 1038 150 q 1010 260 1038 233 q 940 288 983 288 q 872 260 899 288 q 844 192 844 233 q 871 124 844 150 q 939 97 897 97 z "},"⅛":{"ha":1306,"x_min":64,"x_max":1264,"o":"m 201 426 l 201 838 q 196 853 201 847 q 181 860 190 860 l 64 860 l 64 972 l 221 972 q 294 944 265 972 q 322 872 322 915 l 322 426 l 201 426 m 68 382 l 68 494 l 453 494 l 453 382 l 68 382 m 306 0 l 606 489 l 894 972 l 1036 972 l 722 456 l 449 0 l 306 0 m 1039 -8 q 874 39 936 -8 q 813 165 813 86 q 861 279 813 235 q 993 324 910 324 l 993 286 q 875 330 919 286 q 831 438 831 374 q 887 554 831 510 q 1039 599 943 599 q 1190 555 1133 599 q 1247 439 1247 511 q 1203 331 1247 375 q 1085 286 1158 286 l 1085 324 q 1216 280 1168 324 q 1264 165 1264 236 q 1203 39 1264 86 q 1039 -8 1142 -8 m 1039 96 q 1111 118 1085 96 q 1138 176 1138 140 q 1111 235 1138 214 q 1039 256 1085 256 q 967 235 994 256 q 940 176 940 214 q 967 118 940 140 q 1039 96 994 96 m 1039 350 q 1103 369 1079 350 q 1126 421 1126 389 q 1102 473 1126 454 q 1039 492 1078 492 q 976 473 1000 492 q 951 421 951 454 q 976 369 951 389 q 1039 350 1000 350 z "},"⅜":{"ha":1268,"x_min":42,"x_max":1222,"o":"m 240 374 q 130 394 179 374 q 42 453 81 414 l 110 533 q 169 492 138 507 q 242 476 200 476 q 315 498 288 476 q 343 554 343 519 q 319 606 343 588 q 257 624 294 624 l 167 624 l 167 729 l 247 729 q 308 749 285 729 q 331 801 331 769 q 307 856 331 836 q 242 876 283 876 q 176 861 207 876 q 118 817 144 846 l 50 900 q 138 959 86 938 q 247 981 189 981 q 395 935 339 981 q 451 817 451 890 q 401 699 451 747 q 260 651 350 651 l 260 713 q 415 665 367 713 q 464 549 464 617 q 435 458 464 497 q 355 396 406 418 q 240 374 304 374 m 264 0 l 564 489 l 853 972 l 994 972 l 681 456 l 407 0 l 264 0 m 997 -8 q 833 39 894 -8 q 771 165 771 86 q 819 279 771 235 q 951 324 868 324 l 951 286 q 833 330 878 286 q 789 438 789 374 q 845 554 789 510 q 997 599 901 599 q 1149 555 1092 599 q 1206 439 1206 511 q 1161 331 1206 375 q 1043 286 1117 286 l 1043 324 q 1174 280 1126 324 q 1222 165 1222 236 q 1161 39 1222 86 q 997 -8 1100 -8 m 997 96 q 1069 118 1043 96 q 1096 176 1096 140 q 1069 235 1096 214 q 997 256 1043 256 q 926 235 953 256 q 899 176 899 214 q 926 118 899 140 q 997 96 953 96 m 997 350 q 1061 369 1038 350 q 1085 421 1085 389 q 1060 473 1085 454 q 997 492 1036 492 q 934 473 958 492 q 910 421 910 454 q 934 369 910 389 q 997 350 958 350 z "},"⅝":{"ha":1260,"x_min":38,"x_max":1217,"o":"m 235 374 q 128 393 178 374 q 36 453 78 413 l 104 533 q 165 491 133 506 q 236 476 197 476 q 313 501 286 476 q 340 569 340 526 q 317 629 340 607 q 254 651 294 651 q 207 640 228 651 q 174 606 186 628 l 76 606 l 81 876 q 113 947 82 922 q 181 972 143 972 l 439 972 l 439 864 l 207 864 q 197 860 201 864 q 193 850 193 856 l 188 663 l 140 663 q 190 730 156 706 q 281 754 224 754 q 411 705 361 754 q 461 575 461 656 q 397 426 461 479 q 235 374 332 374 m 257 0 l 557 489 l 846 972 l 988 972 l 674 456 l 400 0 l 257 0 m 990 -8 q 826 39 888 -8 q 764 165 764 86 q 813 279 764 235 q 944 324 861 324 l 944 286 q 826 330 871 286 q 782 438 782 374 q 838 554 782 510 q 990 599 894 599 q 1142 555 1085 599 q 1199 439 1199 511 q 1154 331 1199 375 q 1036 286 1110 286 l 1036 324 q 1167 280 1119 324 q 1215 165 1215 236 q 1154 39 1215 86 q 990 -8 1093 -8 m 990 96 q 1063 118 1036 96 q 1089 176 1089 140 q 1063 235 1089 214 q 990 256 1036 256 q 919 235 946 256 q 892 176 892 214 q 919 118 892 140 q 990 96 946 96 m 990 350 q 1054 369 1031 350 q 1078 421 1078 389 q 1053 473 1078 454 q 990 492 1029 492 q 927 473 951 492 q 903 421 903 454 q 927 369 903 389 q 990 350 951 350 z "},"⅞":{"ha":1168,"x_min":39,"x_max":1125,"o":"m 78 382 l 338 893 l 364 863 l 39 863 l 39 972 l 457 972 l 457 886 l 214 382 l 78 382 m 163 0 l 463 489 l 751 972 l 893 972 l 579 456 l 306 0 l 163 0 m 899 -8 q 734 39 796 -8 q 672 165 672 86 q 721 279 672 235 q 853 324 769 324 l 853 286 q 735 330 779 286 q 690 438 690 374 q 747 554 690 510 q 899 599 803 599 q 1050 555 993 599 q 1107 439 1107 511 q 1063 331 1107 375 q 944 286 1018 286 l 944 324 q 1076 280 1028 324 q 1124 165 1124 236 q 1063 39 1124 86 q 899 -8 1001 -8 m 899 96 q 971 118 944 96 q 997 176 997 140 q 971 235 997 214 q 899 256 944 256 q 827 235 854 256 q 800 176 800 214 q 827 118 800 140 q 899 96 854 96 m 899 350 q 963 369 939 350 q 986 421 986 389 q 962 473 986 454 q 899 492 938 492 q 835 473 860 492 q 811 421 811 454 q 835 369 811 389 q 899 350 860 350 z "},"₀":{"ha":551,"x_min":49,"x_max":503,"o":"m 276 -258 q 109 -180 169 -258 q 49 43 49 -101 q 109 269 49 190 q 276 349 169 349 q 443 269 383 349 q 503 43 503 189 q 443 -180 503 -101 q 276 -258 383 -258 m 276 -147 q 352 -100 326 -147 q 378 43 378 -53 q 352 190 378 143 q 276 238 326 238 q 199 189 225 238 q 172 43 172 140 q 199 -100 172 -53 q 276 -147 225 -147 z "},"₁":{"ha":454,"x_min":44,"x_max":433,"o":"m 183 -206 l 183 206 q 177 222 183 215 q 161 228 171 228 l 44 228 l 44 340 l 201 340 q 275 312 246 340 q 304 240 304 283 l 304 -206 l 183 -206 m 49 -250 l 49 -137 l 433 -137 l 433 -250 l 49 -250 z "},"₂":{"ha":497,"x_min":33,"x_max":457,"o":"m 44 -250 l 44 -158 l 246 43 q 292 103 279 75 q 306 158 306 131 q 285 213 306 192 q 229 233 264 233 q 167 215 194 233 q 111 158 139 196 l 33 238 q 120 319 69 290 q 233 349 171 349 q 335 326 290 349 q 406 265 381 304 q 432 172 432 225 q 408 76 432 125 q 331 -28 385 28 l 186 -174 l 181 -139 l 457 -139 l 457 -250 l 44 -250 z "},"₃":{"ha":500,"x_min":29,"x_max":451,"o":"m 228 -258 q 117 -238 167 -258 q 29 -179 68 -218 l 97 -97 q 156 -140 124 -125 q 229 -156 188 -156 q 303 -134 275 -156 q 331 -78 331 -112 q 306 -26 331 -44 q 244 -8 282 -8 l 154 -8 l 154 97 l 235 97 q 295 117 272 97 q 318 169 318 138 q 294 224 318 204 q 229 244 271 244 q 163 229 194 244 q 106 186 131 214 l 38 268 q 125 327 74 306 q 235 349 176 349 q 382 303 325 349 q 439 185 439 258 q 388 67 439 115 q 247 19 338 19 l 247 81 q 403 33 354 81 q 451 -83 451 -15 q 422 -174 451 -135 q 342 -236 393 -214 q 228 -258 292 -258 z "},"₄":{"ha":517,"x_min":32,"x_max":489,"o":"m 32 -124 l 32 -22 l 206 340 l 326 340 l 146 -53 l 118 -17 l 489 -17 l 489 -124 l 32 -124 m 293 -250 l 293 128 l 411 128 l 411 -250 l 293 -250 z "},"₅":{"ha":500,"x_min":33,"x_max":457,"o":"m 231 -258 q 124 -239 174 -258 q 33 -179 74 -219 l 101 -97 q 161 -141 129 -126 q 232 -156 193 -156 q 309 -131 282 -156 q 336 -62 336 -106 q 313 -3 336 -25 q 250 19 290 19 q 203 8 224 19 q 171 -26 182 -4 l 72 -26 l 78 244 q 108 315 78 290 q 176 340 139 340 l 435 340 l 435 232 l 210 232 q 196 226 201 232 q 189 214 190 221 l 183 31 l 138 32 q 185 97 151 72 q 276 122 218 122 q 407 73 357 122 q 457 -57 457 24 q 392 -206 457 -153 q 231 -258 328 -258 z "},"₆":{"ha":515,"x_min":40,"x_max":485,"o":"m 264 -258 q 101 -202 161 -258 q 40 -51 40 -146 q 60 38 40 -7 q 111 131 79 83 l 256 340 l 403 340 l 215 90 l 164 85 q 223 125 192 111 q 289 139 254 139 q 431 83 376 139 q 485 -58 485 28 q 424 -204 485 -150 q 264 -258 363 -258 m 261 -153 q 332 -126 304 -153 q 360 -58 360 -100 q 333 10 360 -17 q 263 38 306 38 q 194 10 221 38 q 167 -58 167 -17 q 193 -126 167 -100 q 261 -153 219 -153 z "},"₇":{"ha":471,"x_min":26,"x_max":446,"o":"m 26 231 l 26 340 l 446 340 l 446 254 l 203 -250 l 65 -250 l 325 261 l 351 231 l 26 231 z "},"₈":{"ha":543,"x_min":46,"x_max":497,"o":"m 272 -258 q 108 -211 169 -258 q 46 -85 46 -164 q 94 29 46 -15 q 226 74 143 74 l 226 36 q 108 80 153 36 q 64 188 64 124 q 120 304 64 260 q 272 349 176 349 q 424 305 367 349 q 481 189 481 261 q 436 81 481 125 q 318 36 392 36 l 318 74 q 449 30 401 74 q 497 -85 497 -14 q 436 -211 497 -164 q 272 -258 375 -258 m 272 -154 q 344 -132 318 -154 q 371 -74 371 -110 q 344 -15 371 -36 q 272 6 318 6 q 201 -15 228 6 q 174 -74 174 -36 q 201 -132 174 -110 q 272 -154 228 -154 m 272 100 q 336 119 313 100 q 360 171 360 139 q 335 223 360 204 q 272 242 311 242 q 209 223 233 242 q 185 171 185 204 q 209 119 185 139 q 272 100 233 100 z "},"₉":{"ha":515,"x_min":31,"x_max":475,"o":"m 114 -250 l 300 1 l 351 6 q 294 -35 325 -21 q 226 -49 263 -49 q 85 7 140 -49 q 31 149 31 63 q 92 295 31 242 q 251 349 154 349 q 415 292 354 349 q 475 142 475 236 q 456 53 475 99 q 404 -40 438 8 l 261 -250 l 114 -250 m 253 53 q 324 81 297 53 q 350 150 350 108 q 323 217 350 190 q 254 243 296 243 q 184 217 211 243 q 157 150 157 190 q 184 81 157 108 q 253 53 211 53 z "},"⁰":{"ha":543,"x_min":44,"x_max":499,"o":"m 272 374 q 105 452 165 374 q 44 675 44 531 q 105 901 44 821 q 272 981 165 981 q 439 901 379 981 q 499 675 499 821 q 439 452 499 531 q 272 374 379 374 m 272 485 q 348 532 322 485 q 374 675 374 579 q 348 822 374 775 q 272 869 322 869 q 194 821 221 869 q 168 675 168 772 q 194 532 168 579 q 272 485 221 485 z "},"¹":{"ha":449,"x_min":42,"x_max":431,"o":"m 179 426 l 179 838 q 174 853 179 847 q 158 860 168 860 l 42 860 l 42 972 l 199 972 q 272 944 243 972 q 300 872 300 915 l 300 426 l 179 426 m 46 382 l 46 494 l 431 494 l 431 382 l 46 382 z "},"²":{"ha":492,"x_min":29,"x_max":453,"o":"m 40 382 l 40 472 l 242 674 q 288 735 275 707 q 301 790 301 763 q 281 844 301 824 q 225 864 260 864 q 163 846 190 864 q 108 790 136 828 l 29 868 q 116 951 65 922 q 229 981 167 981 q 332 958 288 981 q 402 897 376 936 q 428 804 428 857 q 405 708 428 757 q 326 604 382 660 l 183 458 l 176 493 l 453 493 l 453 382 l 40 382 z "},"³":{"ha":492,"x_min":25,"x_max":447,"o":"m 224 374 q 113 394 163 374 q 25 453 64 414 l 93 533 q 152 492 121 507 q 225 476 183 476 q 299 498 271 476 q 326 554 326 519 q 302 606 326 588 q 240 624 278 624 l 150 624 l 150 729 l 231 729 q 291 749 268 729 q 314 801 314 769 q 290 856 314 836 q 225 876 267 876 q 159 861 190 876 q 101 817 128 846 l 33 900 q 121 959 69 938 q 231 981 172 981 q 378 935 322 981 q 435 817 435 890 q 384 699 435 747 q 243 651 333 651 l 243 713 q 399 665 350 713 q 447 549 447 617 q 418 458 447 497 q 338 396 389 418 q 224 374 288 374 z "},"⁴":{"ha":513,"x_min":31,"x_max":486,"o":"m 31 508 l 31 610 l 203 972 l 324 972 l 144 579 l 117 615 l 486 615 l 486 508 l 31 508 m 290 382 l 290 758 l 410 758 l 410 382 l 290 382 z "},"⁵":{"ha":494,"x_min":29,"x_max":454,"o":"m 228 374 q 121 393 171 374 q 29 453 71 413 l 97 533 q 158 491 126 506 q 229 476 190 476 q 306 501 279 476 q 333 569 333 526 q 310 629 333 607 q 247 651 288 651 q 200 640 221 651 q 167 606 179 628 l 69 606 l 74 876 q 106 947 75 922 q 174 972 136 972 l 432 972 l 432 864 l 207 864 q 192 858 199 864 q 186 846 186 853 l 181 663 l 135 663 q 181 728 149 703 q 274 754 214 754 q 404 705 354 754 q 454 575 454 656 q 390 426 454 479 q 228 374 325 374 z "},"⁶":{"ha":513,"x_min":38,"x_max":482,"o":"m 261 374 q 98 430 158 374 q 38 581 38 486 q 56 669 38 625 q 108 763 75 714 l 253 972 l 399 972 l 213 721 l 161 717 q 220 757 189 743 q 286 771 251 771 q 428 715 374 771 q 482 574 482 660 q 420 427 482 481 q 261 374 358 374 m 258 479 q 329 506 301 479 q 357 572 357 532 q 330 642 357 615 q 260 669 303 669 q 190 642 217 669 q 164 572 164 615 q 190 506 164 532 q 258 479 217 479 z "},"⁷":{"ha":465,"x_min":25,"x_max":443,"o":"m 64 382 l 324 893 l 350 863 l 25 863 l 25 972 l 443 972 l 443 886 l 200 382 l 64 382 z "},"⁸":{"ha":536,"x_min":42,"x_max":493,"o":"m 268 374 q 103 420 165 374 q 42 546 42 467 q 90 660 42 617 q 222 704 139 704 l 222 668 q 104 712 149 668 q 60 819 60 756 q 116 936 60 892 q 268 981 172 981 q 419 937 363 981 q 476 819 476 893 q 432 712 476 756 q 314 668 388 668 l 314 704 q 445 661 397 704 q 493 547 493 618 q 432 420 493 467 q 268 374 371 374 m 268 478 q 340 500 314 478 q 367 558 367 522 q 340 617 367 596 q 269 638 314 638 q 197 617 225 638 q 169 558 169 596 q 197 500 169 522 q 268 478 224 478 m 269 732 q 332 751 308 732 q 356 803 356 771 q 331 854 356 835 q 268 874 307 874 q 205 854 228 874 q 182 803 182 835 q 205 751 182 771 q 269 732 228 732 z "},"⁹":{"ha":513,"x_min":31,"x_max":475,"o":"m 114 382 l 300 632 l 351 638 q 294 597 325 611 q 226 583 263 583 q 85 639 140 583 q 31 781 31 694 q 92 927 31 874 q 251 981 154 981 q 415 924 354 981 q 475 774 475 868 q 456 685 475 731 q 404 592 438 640 l 261 382 l 114 382 m 253 685 q 324 712 297 685 q 350 781 350 739 q 323 849 350 822 q 254 875 296 875 q 184 849 211 875 q 157 781 157 822 q 184 712 157 739 q 253 685 211 685 z "}," ":{"ha":308,"x_min":0,"x_max":0,"o":""}," ":{"ha":308,"x_min":0,"x_max":0,"o":""}," ":{"ha":833,"x_min":0,"x_max":0,"o":""}," ":{"ha":338,"x_min":0,"x_max":0,"o":""}," ":{"ha":174,"x_min":0,"x_max":0,"o":""}," ":{"ha":58,"x_min":0,"x_max":0,"o":""},"​":{"ha":0,"x_min":0,"x_max":0,"o":""},".":{"ha":338,"x_min":74,"x_max":264,"o":"m 74 0 l 74 188 l 264 188 l 264 0 l 74 0 z "},",":{"ha":339,"x_min":64,"x_max":260,"o":"m 69 0 l 69 188 l 260 188 l 260 -81 q 240 -158 260 -131 q 190 -197 219 -186 q 129 -207 160 -207 l 64 -207 l 64 -114 l 126 -114 q 154 -103 144 -114 q 164 -75 164 -92 l 164 0 l 69 0 z "},":":{"ha":338,"x_min":74,"x_max":264,"o":"m 74 676 l 264 676 l 264 489 l 74 489 l 74 676 m 74 0 l 74 188 l 264 188 l 264 0 l 74 0 z "},";":{"ha":369,"x_min":85,"x_max":285,"o":"m 94 676 l 285 676 l 285 489 l 94 489 l 94 676 m 90 0 l 90 188 l 281 188 l 281 -81 q 260 -158 281 -131 q 210 -197 240 -186 q 149 -207 179 -207 l 85 -207 l 85 -114 l 146 -114 q 174 -103 164 -114 q 183 -75 183 -92 l 183 0 l 90 0 z "},"…":{"ha":965,"x_min":74,"x_max":892,"o":"m 388 0 l 388 188 l 578 188 l 578 0 l 388 0 m 701 0 l 701 188 l 892 188 l 892 0 l 701 0 m 74 0 l 74 188 l 264 188 l 264 0 l 74 0 z "},"!":{"ha":364,"x_min":92,"x_max":272,"o":"m 99 333 l 92 972 l 272 972 l 264 333 l 99 333 m 96 0 l 96 175 l 268 175 l 268 0 l 96 0 z "},"¡":{"ha":351,"x_min":86,"x_max":265,"o":"m 258 361 l 265 -278 l 86 -278 l 94 361 l 258 361 m 261 694 l 261 519 l 90 519 l 90 694 l 261 694 z "},"?":{"ha":624,"x_min":22,"x_max":574,"o":"m 185 333 q 200 440 185 396 q 240 515 215 483 q 293 570 265 546 q 346 617 321 594 q 386 666 371 639 q 401 729 401 693 q 368 813 401 782 q 279 844 335 844 q 194 825 236 844 q 115 769 151 806 l 22 883 q 145 964 78 936 q 299 992 213 992 q 499 923 424 992 q 574 739 574 854 q 556 646 574 685 q 513 578 539 607 q 457 526 486 550 q 401 475 428 501 q 357 415 374 449 q 340 333 340 381 l 185 333 m 175 0 l 175 175 l 347 175 l 347 0 l 175 0 z "},"¿":{"ha":608,"x_min":39,"x_max":590,"o":"m 428 361 q 413 255 428 299 q 372 180 397 211 q 319 124 347 149 q 267 78 292 100 q 226 29 242 56 q 211 -35 211 3 q 245 -119 211 -87 q 333 -150 279 -150 q 419 -130 378 -150 q 497 -75 461 -110 l 590 -189 q 467 -269 535 -240 q 314 -297 400 -297 q 114 -228 189 -297 q 39 -44 39 -160 q 56 49 39 10 q 100 116 74 88 q 156 169 126 144 q 212 219 185 193 q 256 280 239 246 q 272 361 272 314 l 428 361 m 438 694 l 438 519 l 265 519 l 265 694 l 438 694 z "},"·":{"ha":338,"x_min":74,"x_max":264,"o":"m 74 307 l 74 494 l 264 494 l 264 307 l 74 307 z "},"•":{"ha":563,"x_min":103,"x_max":460,"o":"m 279 235 q 190 258 231 235 q 126 322 150 282 q 103 413 103 363 q 126 503 103 463 q 190 567 150 543 q 279 590 231 590 q 371 567 331 590 q 435 503 411 543 q 460 413 460 463 q 435 322 460 363 q 371 258 411 282 q 279 235 331 235 z "},"*":{"ha":688,"x_min":61,"x_max":626,"o":"m 286 389 l 294 585 l 121 467 l 61 563 l 253 671 l 61 781 l 121 878 l 296 757 l 288 972 l 400 972 l 392 757 l 565 876 l 626 781 l 435 672 l 626 563 l 565 465 l 392 585 l 400 389 l 286 389 z "},"#":{"ha":1035,"x_min":36,"x_max":996,"o":"m 160 0 l 331 972 l 478 972 l 307 0 l 160 0 m 36 222 l 61 365 l 925 365 l 900 222 l 36 222 m 560 0 l 731 972 l 878 972 l 708 0 l 560 0 m 108 622 l 132 756 l 996 756 l 972 622 l 108 622 z "},"/":{"ha":689,"x_min":15,"x_max":674,"o":"m 15 -200 l 510 1054 l 674 1054 l 176 -200 l 15 -200 z "},"\\":{"ha":689,"x_min":15,"x_max":674,"o":"m 513 -200 l 15 1054 l 178 1054 l 674 -200 l 513 -200 z "},"-":{"ha":557,"x_min":68,"x_max":489,"o":"m 68 304 l 68 464 l 489 464 l 489 304 l 68 304 z "},"­":{"ha":0,"x_min":0,"x_max":0,"o":""},"–":{"ha":694,"x_min":69,"x_max":625,"o":"m 69 311 l 69 461 l 625 461 l 625 311 l 69 311 z "},"—":{"ha":1389,"x_min":69,"x_max":1319,"o":"m 69 313 l 69 463 l 1319 463 l 1319 313 l 69 313 z "},"_":{"ha":660,"x_min":51,"x_max":607,"o":"m 51 -278 l 51 -144 l 607 -144 l 607 -278 l 51 -278 z "},"(":{"ha":431,"x_min":56,"x_max":425,"o":"m 424 -200 l 276 -200 q 113 95 169 -68 q 56 426 56 258 q 113 760 56 596 q 276 1056 171 924 l 425 1056 q 271 767 331 929 q 211 426 211 606 q 272 86 211 247 q 424 -200 332 -75 z "},")":{"ha":431,"x_min":6,"x_max":375,"o":"m 7 1056 l 156 1056 q 319 760 263 924 q 375 429 375 597 q 318 96 375 260 q 154 -200 261 -68 l 6 -200 q 160 88 100 -75 q 221 429 221 250 q 160 769 221 608 q 7 1056 100 931 z "},"{":{"ha":522,"x_min":40,"x_max":489,"o":"m 346 -200 q 230 -179 274 -200 q 168 -110 186 -158 q 150 18 150 -62 l 150 293 q 135 343 150 326 q 85 360 119 360 l 40 360 l 40 494 l 86 494 q 135 510 119 494 q 150 560 150 526 l 150 838 q 168 965 150 918 q 230 1033 186 1013 q 346 1054 274 1054 l 489 1054 l 489 931 l 392 931 q 326 908 344 931 q 308 833 308 886 l 308 576 q 291 476 308 514 q 230 422 274 439 q 104 406 186 406 l 104 453 q 230 433 186 453 q 291 375 274 414 q 308 278 308 336 l 308 21 q 326 -54 308 -32 q 392 -76 344 -76 l 489 -76 l 489 -200 l 346 -200 z "},"}":{"ha":522,"x_min":33,"x_max":482,"o":"m 176 1054 q 293 1033 250 1054 q 354 965 336 1013 q 372 836 372 917 l 372 561 q 388 511 372 528 q 439 494 404 494 l 482 494 l 482 360 l 436 360 q 388 344 403 360 q 372 294 372 328 l 372 17 q 354 -110 372 -62 q 293 -179 336 -158 q 176 -200 250 -200 l 33 -200 l 33 -76 l 132 -76 q 197 -54 179 -76 q 214 21 214 -32 l 214 278 q 231 378 214 340 q 293 432 249 415 q 418 449 338 449 l 418 401 q 293 421 338 401 q 231 479 249 440 q 214 576 214 518 l 214 833 q 197 908 214 886 q 132 931 179 931 l 33 931 l 33 1054 l 176 1054 z "},"[":{"ha":478,"x_min":108,"x_max":446,"o":"m 108 -200 l 108 1054 l 446 1054 l 446 938 l 250 938 l 250 -83 l 446 -83 l 446 -200 l 108 -200 z "},"]":{"ha":478,"x_min":32,"x_max":368,"o":"m 368 1054 l 368 -200 l 32 -200 l 32 -83 l 228 -83 l 228 938 l 32 938 l 32 1054 l 368 1054 z "},"‚":{"ha":332,"x_min":64,"x_max":260,"o":"m 69 0 l 69 188 l 260 188 l 260 -81 q 240 -158 260 -131 q 190 -197 219 -186 q 129 -207 160 -207 l 64 -207 l 64 -114 l 126 -114 q 154 -103 144 -114 q 164 -75 164 -92 l 164 0 l 69 0 z "},"„":{"ha":604,"x_min":64,"x_max":532,"o":"m 349 1 l 349 182 l 532 182 l 532 -78 q 513 -153 532 -126 q 464 -189 493 -179 q 406 -199 435 -199 l 343 -199 l 343 -110 l 403 -110 q 429 -99 419 -110 q 439 -71 439 -87 l 439 1 l 349 1 m 69 1 l 69 182 l 253 182 l 253 -78 q 233 -153 253 -126 q 185 -189 214 -179 q 126 -199 156 -199 l 64 -199 l 64 -110 l 124 -110 q 150 -99 140 -110 q 160 -71 160 -87 l 160 1 l 69 1 z "},"“":{"ha":618,"x_min":75,"x_max":543,"o":"m 258 774 l 258 592 l 75 592 l 75 851 q 94 926 75 900 q 143 963 114 953 q 201 974 172 974 l 264 974 l 264 885 l 204 885 q 177 874 186 885 q 168 846 168 863 l 168 774 l 258 774 m 538 774 l 538 592 l 354 592 l 354 851 q 374 926 354 900 q 422 963 393 953 q 482 974 451 974 l 543 974 l 543 885 l 485 885 q 457 874 467 885 q 447 846 447 863 l 447 774 l 538 774 z "},"”":{"ha":618,"x_min":81,"x_max":549,"o":"m 367 800 l 367 981 l 549 981 l 549 721 q 530 646 549 672 q 482 610 511 619 q 422 600 453 600 l 361 600 l 361 689 l 419 689 q 447 699 438 689 q 457 726 457 710 l 457 800 l 367 800 m 86 800 l 86 981 l 269 981 l 269 721 q 250 646 269 672 q 201 610 231 619 q 143 600 172 600 l 81 600 l 81 689 l 140 689 q 167 699 158 689 q 176 726 176 710 l 176 800 l 86 800 z "},"‘":{"ha":347,"x_min":76,"x_max":272,"o":"m 267 769 l 267 586 l 76 586 l 76 850 q 97 925 76 899 q 147 962 117 951 q 207 972 178 972 l 272 972 l 272 882 l 210 882 q 182 871 192 882 q 172 843 172 860 l 172 769 l 267 769 z "},"’":{"ha":346,"x_min":82,"x_max":278,"o":"m 88 797 l 88 981 l 278 981 l 278 718 q 258 642 278 669 q 208 606 238 615 q 147 596 178 596 l 82 596 l 82 685 l 144 685 q 172 696 163 685 q 182 724 182 707 l 182 797 l 88 797 z "},"«":{"ha":683,"x_min":58,"x_max":615,"o":"m 468 125 l 329 372 l 468 619 l 615 619 l 442 308 l 442 435 l 615 125 l 468 125 m 197 125 l 58 372 l 197 619 l 344 619 l 171 308 l 171 435 l 344 125 l 197 125 z "},"»":{"ha":683,"x_min":68,"x_max":625,"o":"m 215 619 l 354 371 l 215 125 l 68 125 l 242 435 l 242 308 l 68 619 l 215 619 m 486 619 l 625 371 l 486 125 l 339 125 l 513 435 l 513 308 l 339 619 l 486 619 z "},"‹":{"ha":422,"x_min":58,"x_max":353,"o":"m 201 125 l 58 372 l 201 619 l 353 619 l 176 308 l 176 435 l 353 125 l 201 125 z "},"›":{"ha":422,"x_min":69,"x_max":364,"o":"m 221 619 l 364 371 l 221 125 l 69 125 l 246 435 l 246 308 l 69 619 l 221 619 z "},"\"":{"ha":565,"x_min":83,"x_max":482,"o":"m 336 600 l 336 972 l 483 972 l 483 600 l 336 600 m 83 600 l 83 972 l 231 972 l 231 600 l 83 600 z "},"'":{"ha":313,"x_min":83,"x_max":231,"o":"m 83 600 l 83 972 l 231 972 l 231 600 l 83 600 z "},"ƒ":{"ha":833,"x_min":69,"x_max":751,"o":"m 160 0 l 69 0 l 69 138 l 164 138 q 242 153 210 138 q 294 200 275 168 q 314 282 313 232 l 336 678 q 379 843 342 778 q 486 940 417 908 q 654 972 556 972 l 744 972 l 744 838 l 644 838 q 571 822 603 838 q 520 772 539 806 q 499 683 501 739 l 479 289 q 435 126 474 190 q 328 31 397 63 q 160 0 258 0 m 108 443 l 108 568 l 751 568 l 751 443 l 108 443 z "},"❛":{"ha":703,"x_min":101,"x_max":618,"o":"m 101 0 l 101 644 q 146 815 101 742 q 267 931 190 889 q 446 972 344 972 l 618 972 l 618 817 l 435 817 q 351 797 388 817 q 294 741 315 776 q 274 660 274 706 l 274 499 l 618 499 l 618 0 l 101 0 z "},"❜":{"ha":703,"x_min":85,"x_max":601,"o":"m 601 972 l 601 326 q 557 158 601 232 q 435 42 513 83 q 257 0 358 0 l 85 0 l 85 156 l 268 156 q 352 176 315 156 q 410 231 389 196 q 431 313 431 267 l 431 474 l 85 474 l 85 972 l 601 972 z "},"❝":{"ha":1300,"x_min":101,"x_max":1215,"o":"m 101 0 l 101 644 q 146 815 101 742 q 267 931 190 889 q 446 972 344 972 l 618 972 l 618 817 l 435 817 q 351 797 388 817 q 294 741 315 776 q 274 660 274 706 l 274 499 l 618 499 l 618 0 l 101 0 m 699 0 l 699 644 q 743 815 699 742 q 865 931 788 889 q 1043 972 942 972 l 1215 972 l 1215 817 l 1032 817 q 949 797 985 817 q 892 741 913 776 q 871 660 871 706 l 871 499 l 1215 499 l 1215 0 l 699 0 z "},"❞":{"ha":1300,"x_min":85,"x_max":1199,"o":"m 1199 972 l 1199 326 q 1154 158 1199 232 q 1033 42 1110 83 q 854 0 956 0 l 682 0 l 682 156 l 865 156 q 949 176 913 156 q 1007 231 986 196 q 1028 313 1028 267 l 1028 474 l 682 474 l 682 972 l 1199 972 m 601 972 l 601 326 q 557 158 601 232 q 435 42 513 83 q 257 0 358 0 l 85 0 l 85 156 l 268 156 q 352 176 315 156 q 410 231 389 196 q 431 313 431 267 l 431 474 l 85 474 l 85 972 l 601 972 z "},"@":{"ha":1251,"x_min":53,"x_max":1194,"o":"m 632 -228 q 406 -187 511 -228 q 221 -71 300 -147 q 97 115 142 6 q 53 360 53 224 q 96 597 53 490 q 217 783 139 704 q 403 904 296 861 q 639 947 510 947 q 863 908 761 947 q 1038 798 964 869 q 1153 628 1113 726 q 1194 414 1194 531 q 1163 231 1194 308 q 1074 112 1131 154 q 942 69 1017 69 q 814 112 867 69 q 749 228 761 154 l 785 228 q 712 116 763 156 q 585 76 661 76 q 460 110 515 76 q 374 207 406 144 q 343 351 343 269 q 374 495 343 433 q 460 591 406 557 q 585 625 515 625 q 699 594 651 625 q 774 507 746 563 l 746 475 l 746 613 l 869 613 l 869 285 q 895 213 869 236 q 954 189 921 189 q 1033 241 1000 189 q 1067 400 1067 293 q 1013 625 1067 528 q 862 778 958 722 q 639 833 765 833 q 403 774 506 833 q 242 608 300 714 q 183 361 183 501 q 240 113 183 219 q 399 -53 297 6 q 631 -112 500 -112 q 785 -87 715 -112 q 918 -17 854 -62 l 969 -118 q 817 -199 900 -169 q 632 -228 735 -228 m 607 194 q 705 237 668 194 q 742 351 742 279 q 705 463 742 421 q 607 506 668 506 q 508 463 546 506 q 471 351 471 421 q 508 238 471 281 q 607 194 546 194 z "},"&":{"ha":983,"x_min":56,"x_max":958,"o":"m 739 0 l 299 429 q 197 540 235 490 q 141 635 158 589 q 124 731 124 682 q 158 860 124 803 q 256 952 193 918 q 406 986 319 986 q 556 952 492 986 q 661 856 619 918 l 536 767 q 476 826 507 806 q 408 846 446 846 q 319 813 354 846 q 285 729 285 779 q 299 668 285 697 q 344 602 313 639 q 431 513 376 565 l 958 0 l 739 0 m 385 -14 q 212 21 286 -14 q 97 117 138 56 q 56 260 56 179 q 83 388 56 335 q 158 478 111 442 q 260 542 204 515 l 353 451 q 286 408 317 432 q 236 350 256 383 q 217 271 217 317 q 240 193 217 226 q 303 141 263 160 q 396 122 343 122 q 510 148 464 122 q 581 221 557 174 q 606 331 606 268 l 606 446 q 626 521 606 489 q 681 571 646 553 q 756 589 715 589 l 921 589 l 921 454 l 782 454 q 760 446 769 454 q 751 422 751 438 l 751 321 q 704 150 751 225 q 574 31 657 75 q 385 -14 492 -14 z "},"¶":{"ha":1086,"x_min":29,"x_max":971,"o":"m 485 -278 l 485 283 l 422 283 q 218 322 307 283 q 79 437 129 361 q 29 621 29 513 q 81 815 29 736 q 222 933 132 893 q 422 972 311 972 l 647 972 l 647 -278 l 485 -278 m 808 -278 l 808 972 l 971 972 l 971 -278 l 808 -278 z "},"§":{"ha":793,"x_min":67,"x_max":728,"o":"m 567 151 l 478 231 q 548 288 529 256 q 567 351 567 319 q 542 421 567 396 q 477 460 518 446 q 388 484 436 474 q 290 508 339 494 q 201 548 242 522 q 135 617 160 574 q 111 728 111 660 q 197 922 111 853 q 426 992 283 992 q 586 960 514 992 q 704 878 658 929 l 601 775 q 519 835 563 815 q 424 856 476 856 q 313 824 354 856 q 271 739 271 792 q 295 676 271 699 q 360 642 319 654 q 449 619 400 629 q 548 595 499 610 q 638 555 597 581 q 703 485 678 529 q 728 371 728 442 q 684 235 728 294 q 567 151 640 176 m 367 -235 q 208 -203 279 -235 q 89 -121 136 -172 l 192 -18 q 274 -78 231 -58 q 369 -99 317 -99 q 482 -67 440 -99 q 524 18 524 -35 q 499 80 524 57 q 433 115 474 103 q 344 137 393 126 q 247 162 296 147 q 157 202 197 176 q 92 272 117 228 q 67 386 67 315 q 110 521 67 463 q 226 606 153 579 l 315 526 q 246 469 265 501 q 226 404 226 438 q 251 336 226 361 q 316 297 275 311 q 406 272 357 282 q 503 249 454 263 q 592 209 551 235 q 658 140 633 183 q 682 29 682 97 q 596 -165 682 -96 q 367 -235 510 -235 z "},"©":{"ha":1243,"x_min":72,"x_max":1169,"o":"m 621 -50 q 400 -10 500 -50 q 226 103 300 31 q 113 274 153 175 q 72 490 72 374 q 113 706 72 607 q 226 876 153 804 q 400 989 300 949 q 621 1029 500 1029 q 842 989 742 1029 q 1017 876 943 949 q 1130 706 1090 804 q 1169 490 1169 607 q 1130 274 1169 374 q 1017 103 1090 175 q 842 -10 943 31 q 621 -50 742 -50 m 638 190 q 486 227 553 190 q 381 328 419 264 q 342 476 342 393 l 342 489 q 381 639 342 575 q 488 739 421 703 q 638 775 554 775 q 753 750 699 775 q 840 682 807 725 l 760 600 q 706 639 738 626 q 638 651 674 651 q 556 632 593 651 q 497 576 519 613 q 475 489 475 540 l 475 476 q 497 390 475 428 q 557 333 519 353 q 640 314 594 314 q 707 326 675 314 q 764 364 739 338 l 843 283 q 754 215 810 239 q 638 190 699 190 m 621 58 q 796 90 717 58 q 933 181 875 122 q 1022 317 990 239 q 1054 490 1054 396 q 1022 663 1054 583 q 933 799 990 742 q 796 889 875 857 q 621 921 717 921 q 447 889 526 921 q 309 799 367 857 q 219 663 251 742 q 188 490 188 583 q 219 317 188 396 q 309 181 251 239 q 447 90 367 122 q 621 58 526 58 z "},"®":{"ha":807,"x_min":67,"x_max":739,"o":"m 403 367 q 231 408 307 367 q 110 525 154 450 q 67 697 67 600 q 110 870 67 796 q 231 986 154 944 q 403 1028 307 1028 q 577 986 501 1028 q 696 870 653 944 q 739 697 739 796 q 696 525 739 600 q 577 408 653 450 q 403 367 501 367 m 403 431 q 541 464 481 431 q 636 558 601 497 q 671 697 671 618 q 636 837 671 776 q 541 931 601 897 q 403 965 481 965 q 265 931 326 965 q 169 837 204 897 q 133 697 133 776 q 169 558 133 618 q 265 464 204 497 q 403 431 326 431 m 463 547 l 394 681 l 464 681 l 543 547 l 463 547 m 297 547 l 297 858 l 415 858 q 501 830 468 858 q 535 753 535 801 q 501 674 535 703 q 415 646 468 646 l 331 646 l 331 704 l 413 704 q 450 717 435 704 q 465 751 465 729 q 451 785 465 774 q 413 797 438 797 l 339 797 l 367 824 l 367 547 l 297 547 z "},"℗":{"ha":1243,"x_min":72,"x_max":1169,"o":"m 449 214 l 449 750 l 654 750 q 799 700 742 750 q 856 564 856 650 q 799 431 856 481 q 654 381 742 381 l 504 381 l 504 481 l 638 481 q 713 502 685 481 q 740 564 740 524 q 713 627 740 606 q 638 649 685 649 l 519 649 l 568 699 l 568 214 l 449 214 m 621 -50 q 400 -10 500 -50 q 226 103 300 31 q 113 274 153 175 q 72 490 72 374 q 113 706 72 607 q 226 876 153 804 q 400 989 300 949 q 621 1029 500 1029 q 842 989 742 1029 q 1017 876 943 949 q 1130 706 1090 804 q 1169 490 1169 607 q 1130 274 1169 374 q 1017 103 1090 175 q 842 -10 943 31 q 621 -50 742 -50 m 621 58 q 796 90 717 58 q 933 181 875 122 q 1022 317 990 239 q 1054 490 1054 396 q 1022 663 1054 583 q 933 799 990 742 q 796 889 875 857 q 621 921 717 921 q 447 889 526 921 q 309 799 367 857 q 219 663 251 742 q 188 490 188 583 q 219 317 188 396 q 309 181 251 239 q 447 90 367 122 q 621 58 526 58 z "},"™":{"ha":1014,"x_min":36,"x_max":921,"o":"m 176 535 l 176 940 l 279 940 l 279 535 l 176 535 m 36 885 l 36 972 l 419 972 l 419 885 l 36 885 m 482 535 l 482 972 l 586 972 l 715 726 l 685 726 l 815 972 l 921 972 l 921 535 l 821 535 l 821 925 l 872 925 l 728 632 l 674 632 l 529 925 l 579 925 l 579 535 l 482 535 z "},"°":{"ha":607,"x_min":64,"x_max":543,"o":"m 303 522 q 179 552 233 522 q 94 634 125 582 q 64 754 64 686 q 94 876 64 824 q 179 957 125 928 q 304 986 233 986 q 428 957 374 986 q 513 876 482 928 q 543 754 543 824 q 513 634 543 686 q 428 552 482 582 q 303 522 374 522 m 303 622 q 397 659 360 622 q 435 754 435 696 q 398 850 435 814 q 303 886 361 886 q 209 850 246 886 q 172 754 172 814 q 209 659 172 696 q 303 622 246 622 z "},"|":{"ha":379,"x_min":111,"x_max":268,"o":"m 111 -200 l 111 1054 l 268 1054 l 268 -200 l 111 -200 z "},"¦":{"ha":379,"x_min":113,"x_max":271,"o":"m 113 499 l 113 1054 l 271 1054 l 271 499 l 113 499 m 113 -200 l 113 356 l 271 356 l 271 -200 l 113 -200 z "},"†":{"ha":538,"x_min":56,"x_max":482,"o":"m 208 340 l 208 972 l 328 972 l 328 340 l 208 340 m 56 699 l 56 817 l 482 817 l 482 699 l 56 699 z "},"‡":{"ha":578,"x_min":75,"x_max":503,"o":"m 228 340 l 228 972 l 349 972 l 349 340 l 228 340 m 75 492 l 75 601 l 503 601 l 503 492 l 75 492 m 75 711 l 75 821 l 503 821 l 503 711 l 75 711 z "},"№":{"ha":1626,"x_min":110,"x_max":1568,"o":"m 1075 233 l 1075 361 l 1543 361 l 1543 233 l 1075 233 m 110 0 l 110 972 l 264 972 l 785 194 l 714 182 l 714 972 l 883 972 l 883 0 l 732 0 l 214 771 l 279 782 l 279 0 l 110 0 m 1310 463 q 1176 495 1235 463 q 1084 585 1118 528 q 1050 718 1050 643 l 1050 728 q 1084 860 1050 803 q 1177 949 1118 917 q 1310 982 1236 982 q 1442 949 1383 982 q 1534 860 1500 917 q 1568 728 1568 803 l 1568 718 q 1534 585 1568 643 q 1442 495 1500 528 q 1310 463 1383 463 m 1310 574 q 1405 614 1368 574 q 1442 718 1442 654 l 1442 728 q 1405 831 1442 792 q 1310 869 1368 869 q 1215 830 1251 869 q 1178 728 1178 790 l 1178 718 q 1215 615 1178 656 q 1310 574 1251 574 z "},"¢":{"ha":833,"x_min":126,"x_max":728,"o":"m 479 131 q 297 174 376 131 q 172 296 218 218 q 126 475 126 374 l 126 490 q 172 671 126 593 q 298 792 218 749 q 479 835 378 835 q 619 805 554 835 q 725 722 683 775 l 626 624 q 561 672 599 657 q 479 688 524 688 q 381 663 425 688 q 311 595 336 639 q 286 490 286 551 l 286 475 q 312 371 286 415 q 382 302 338 326 q 482 278 426 278 q 562 292 524 278 q 632 339 600 307 l 728 243 q 620 160 686 190 q 479 131 554 131 m 390 -10 l 390 203 l 528 203 l 528 -10 l 390 -10 m 390 768 l 390 982 l 528 982 l 528 768 l 390 768 z "},"¤":{"ha":833,"x_min":65,"x_max":769,"o":"m 415 203 q 272 240 335 203 q 173 340 208 276 q 138 486 138 404 q 173 633 138 569 q 272 733 208 696 q 415 769 335 769 q 563 733 499 769 q 663 633 626 696 q 699 486 699 569 q 663 340 699 404 q 563 240 626 276 q 415 203 499 203 m 417 340 q 490 359 458 340 q 540 411 522 378 q 557 486 557 444 q 540 561 557 528 q 490 613 522 594 q 417 631 458 631 q 346 613 378 631 q 297 561 314 594 q 279 486 279 528 q 297 411 279 444 q 346 359 314 378 q 417 340 378 340 m 197 617 l 65 747 l 157 840 l 286 707 l 197 617 m 158 135 l 65 224 l 199 361 l 292 269 l 158 135 m 676 135 l 546 264 l 639 357 l 769 224 l 676 135 m 639 617 l 544 707 l 675 840 l 767 747 l 639 617 z "},"$":{"ha":833,"x_min":107,"x_max":719,"o":"m 401 42 q 231 78 303 42 q 107 174 160 114 l 213 279 q 311 208 265 229 q 408 188 357 188 q 508 217 472 188 q 543 293 543 246 q 520 355 543 332 q 460 392 497 378 q 379 419 424 407 q 290 447 335 431 q 209 488 246 463 q 149 556 172 514 q 126 661 126 597 q 165 803 126 742 q 270 897 203 864 q 426 931 338 931 q 583 901 513 931 q 699 818 654 871 l 589 710 q 512 767 551 749 q 428 785 472 785 q 333 757 369 785 q 297 682 297 729 q 320 624 297 646 q 381 589 343 603 q 463 563 418 575 q 553 535 508 551 q 636 493 599 519 q 697 425 674 467 q 719 318 719 383 q 680 172 719 235 q 569 76 640 110 q 401 42 497 42 m 350 -90 l 350 119 l 494 119 l 494 -90 l 350 -90 m 350 881 l 350 1063 l 494 1063 l 494 881 l 350 881 z "},"€":{"ha":833,"x_min":42,"x_max":801,"o":"m 150 582 q 210 794 157 706 q 353 932 263 883 q 564 981 443 981 q 692 963 635 981 q 794 915 750 946 l 722 779 q 648 814 688 803 q 563 825 608 825 q 403 762 465 825 q 332 582 340 699 l 150 582 m 560 -8 q 352 40 442 -8 q 210 175 263 88 q 151 385 158 263 l 333 385 q 398 210 336 274 q 564 147 460 147 q 652 158 610 147 q 731 192 694 169 l 801 57 q 690 7 753 22 q 560 -8 626 -8 m 42 328 l 42 438 l 689 438 l 689 328 l 42 328 m 42 532 l 42 642 l 689 642 l 689 532 l 42 532 z "},"₺":{"ha":833,"x_min":72,"x_max":804,"o":"m 386 0 q 269 46 315 0 q 222 163 222 92 l 222 450 l 393 507 l 393 211 q 408 175 393 190 q 444 160 424 160 l 506 160 q 604 191 561 160 q 688 286 647 222 l 804 194 q 674 49 746 99 q 506 0 603 0 l 386 0 m 72 346 l 72 465 l 613 613 l 613 493 l 72 346 m 72 569 l 72 689 l 613 836 l 613 717 l 72 569 m 222 667 l 222 972 l 393 972 l 393 715 l 222 667 z "},"₹":{"ha":833,"x_min":97,"x_max":761,"o":"m 404 0 l 99 321 l 99 469 l 297 469 q 438 519 394 469 q 481 653 481 568 q 438 781 481 733 q 297 828 394 828 l 97 828 l 97 972 l 761 972 l 761 846 l 474 846 l 510 881 q 604 792 571 849 q 638 653 638 735 q 546 420 638 507 q 293 333 454 333 l 207 333 l 250 383 l 633 0 l 404 0 m 99 596 l 99 707 l 761 707 l 761 596 l 99 596 z "},"£":{"ha":833,"x_min":76,"x_max":768,"o":"m 113 0 l 113 129 l 172 375 l 347 375 l 278 76 l 224 147 l 768 147 l 768 0 l 113 0 m 76 310 l 76 419 l 707 419 l 707 310 l 76 310 m 76 514 l 76 624 l 707 624 l 707 514 l 76 514 m 221 576 l 276 810 q 344 928 296 885 q 478 972 392 972 l 722 972 l 722 813 l 494 813 q 457 799 469 813 q 440 761 444 785 l 396 576 l 221 576 z "},"¥":{"ha":833,"x_min":36,"x_max":799,"o":"m 318 443 l 36 972 l 215 972 l 449 508 l 385 508 l 618 972 l 799 972 l 517 443 l 318 443 m 332 0 l 332 243 l 501 243 l 501 0 l 332 0 m 97 206 l 97 315 l 738 315 l 738 206 l 97 206 m 97 406 l 97 514 l 738 514 l 738 406 l 97 406 z "},"+":{"ha":833,"x_min":85,"x_max":749,"o":"m 350 154 l 350 422 l 85 422 l 85 553 l 350 553 l 350 819 l 483 819 l 483 553 l 749 553 l 749 422 l 483 422 l 483 154 l 350 154 z "},"−":{"ha":833,"x_min":85,"x_max":749,"o":"m 85 421 l 85 551 l 749 551 l 749 421 l 85 421 z "},"×":{"ha":833,"x_min":104,"x_max":728,"o":"m 197 188 l 104 279 l 324 497 l 106 719 l 197 810 l 417 590 l 638 810 l 728 719 l 508 497 l 728 279 l 638 189 l 417 407 l 197 188 z "},"÷":{"ha":833,"x_min":92,"x_max":740,"o":"m 92 421 l 92 551 l 740 551 l 740 421 l 92 421 m 335 132 l 335 296 l 497 296 l 497 132 l 335 132 m 335 678 l 335 842 l 497 842 l 497 678 l 335 678 z "},"=":{"ha":833,"x_min":85,"x_max":749,"o":"m 85 269 l 85 400 l 749 400 l 749 269 l 85 269 m 85 574 l 85 703 l 749 703 l 749 574 l 85 574 z "},"≠":{"ha":833,"x_min":85,"x_max":749,"o":"m 149 108 l 540 865 l 686 865 l 294 108 l 149 108 m 85 269 l 85 400 l 749 400 l 749 269 l 85 269 m 85 574 l 85 703 l 749 703 l 749 574 l 85 574 z "},">":{"ha":833,"x_min":99,"x_max":761,"o":"m 99 172 l 99 321 l 656 510 l 656 467 l 99 656 l 99 806 l 761 557 l 761 419 l 99 172 z "},"<":{"ha":833,"x_min":72,"x_max":735,"o":"m 735 806 l 735 656 l 178 467 l 178 510 l 735 322 l 735 172 l 72 419 l 72 557 l 735 806 z "},"≥":{"ha":833,"x_min":92,"x_max":756,"o":"m 92 304 l 92 449 l 631 606 l 631 568 l 92 725 l 92 868 l 756 658 l 756 514 l 92 304 m 92 101 l 92 232 l 756 232 l 756 101 l 92 101 z "},"≤":{"ha":833,"x_min":78,"x_max":742,"o":"m 742 304 l 79 514 l 79 658 l 742 868 l 742 725 l 203 568 l 203 606 l 742 449 l 742 304 m 78 101 l 78 232 l 742 232 l 742 101 l 78 101 z "},"±":{"ha":833,"x_min":85,"x_max":749,"o":"m 350 315 l 350 518 l 85 518 l 85 650 l 350 650 l 350 853 l 483 853 l 483 650 l 749 650 l 749 518 l 483 518 l 483 315 l 350 315 m 85 101 l 85 232 l 749 232 l 749 101 l 85 101 z "},"≈":{"ha":833,"x_min":88,"x_max":750,"o":"m 565 238 q 481 250 517 238 q 413 279 444 263 q 344 308 381 296 q 261 321 308 321 q 188 310 226 321 q 88 274 149 299 l 88 406 q 175 438 126 424 q 271 453 224 453 q 356 440 319 453 q 426 411 393 428 q 494 382 458 394 q 576 369 529 369 q 651 380 611 369 q 750 414 690 390 l 750 285 q 664 251 713 265 q 565 238 615 238 m 565 515 q 481 528 517 515 q 413 557 444 540 q 344 586 381 574 q 261 599 308 599 q 188 588 226 599 q 88 553 149 578 l 88 685 q 175 717 126 703 q 271 732 224 732 q 356 719 319 732 q 426 690 393 707 q 494 661 458 674 q 576 649 529 649 q 651 659 611 649 q 750 693 690 669 l 750 563 q 664 530 713 544 q 565 515 615 515 z "},"~":{"ha":833,"x_min":88,"x_max":750,"o":"m 565 381 q 481 393 517 381 q 413 422 444 406 q 344 451 381 439 q 260 464 308 464 q 187 453 225 464 q 88 419 149 443 l 88 549 q 174 583 125 569 q 271 596 222 596 q 356 583 319 596 q 425 554 393 571 q 493 525 457 538 q 578 513 529 513 q 651 524 613 513 q 750 558 690 535 l 750 428 q 663 394 713 408 q 565 381 614 381 z "},"^":{"ha":833,"x_min":106,"x_max":728,"o":"m 483 972 l 728 488 l 569 488 l 388 881 l 447 881 l 263 488 l 106 488 l 350 972 l 483 972 z "},"%":{"ha":1281,"x_min":35,"x_max":1246,"o":"m 260 0 l 558 489 l 849 972 l 1021 972 l 706 456 l 432 0 l 260 0 m 296 471 q 160 503 219 471 q 68 594 101 536 q 35 729 35 653 q 68 863 35 806 q 160 953 101 921 q 296 986 219 986 q 430 953 371 986 q 522 863 489 921 q 556 729 556 806 q 522 594 556 653 q 430 503 489 536 q 296 471 371 471 m 296 597 q 360 615 332 597 q 403 662 388 632 q 418 728 418 692 q 383 822 418 785 q 296 858 349 858 q 207 822 242 858 q 172 728 172 785 q 188 662 172 692 q 232 615 204 632 q 296 597 260 597 m 986 -14 q 851 19 910 -14 q 758 110 792 51 q 725 244 725 169 q 758 378 725 321 q 851 469 792 436 q 986 501 910 501 q 1121 469 1063 501 q 1213 378 1179 436 q 1246 244 1246 321 q 1213 110 1246 169 q 1121 19 1179 51 q 986 -14 1063 -14 m 986 114 q 1050 131 1022 114 q 1094 177 1078 147 q 1110 244 1110 207 q 1074 338 1110 300 q 986 375 1039 375 q 897 338 932 375 q 863 244 863 300 q 897 151 863 188 q 986 114 932 114 z "},"‰":{"ha":1863,"x_min":35,"x_max":1829,"o":"m 260 0 l 558 489 l 849 972 l 1021 972 l 706 456 l 432 0 l 260 0 m 296 471 q 160 503 219 471 q 68 594 101 536 q 35 729 35 653 q 68 863 35 806 q 160 953 101 921 q 296 986 219 986 q 430 953 371 986 q 522 863 489 921 q 556 729 556 806 q 522 594 556 653 q 430 503 489 536 q 296 471 371 471 m 296 597 q 360 615 332 597 q 403 662 388 632 q 418 728 418 692 q 383 822 418 785 q 296 858 349 858 q 207 822 242 858 q 172 728 172 785 q 188 662 172 692 q 232 615 204 632 q 296 597 260 597 m 986 -14 q 851 19 910 -14 q 758 110 792 51 q 725 244 725 169 q 758 378 725 321 q 851 469 792 436 q 986 501 910 501 q 1121 469 1063 501 q 1213 378 1179 436 q 1246 244 1246 321 q 1213 110 1246 169 q 1121 19 1179 51 q 986 -14 1063 -14 m 986 114 q 1050 131 1022 114 q 1094 177 1078 147 q 1110 244 1110 207 q 1074 338 1110 300 q 986 375 1039 375 q 897 338 932 375 q 863 244 863 300 q 897 151 863 188 q 986 114 932 114 m 1571 -14 q 1434 19 1493 -14 q 1342 110 1375 51 q 1308 244 1308 169 q 1342 378 1308 321 q 1434 469 1375 436 q 1571 501 1493 501 q 1704 469 1646 501 q 1796 378 1763 436 q 1829 244 1829 321 q 1796 110 1829 169 q 1704 19 1763 51 q 1571 -14 1646 -14 m 1571 114 q 1658 151 1624 114 q 1693 244 1693 188 q 1658 338 1693 300 q 1571 375 1624 375 q 1481 338 1517 375 q 1446 244 1446 300 q 1462 177 1446 207 q 1506 131 1478 147 q 1571 114 1535 114 z "},"↑":{"ha":971,"x_min":53,"x_max":918,"o":"m 918 415 l 489 854 l 53 415 l 53 603 l 489 1036 l 918 603 l 918 415 m 550 -62 l 421 -62 l 421 913 l 550 913 l 550 -62 z "},"↗":{"ha":961,"x_min":49,"x_max":875,"o":"m 739 143 l 746 757 l 126 756 l 258 889 l 875 886 l 872 276 l 739 143 m 140 65 l 49 157 l 738 846 l 829 754 l 140 65 z "},"→":{"ha":1228,"x_min":67,"x_max":1165,"o":"m 544 53 l 983 482 l 546 919 l 733 919 l 1165 482 l 733 53 l 544 53 m 67 421 l 67 551 l 1042 551 l 1042 421 l 67 421 z "},"↘":{"ha":969,"x_min":54,"x_max":879,"o":"m 744 828 l 876 694 l 879 85 l 264 82 l 132 215 l 751 214 l 744 828 m 146 906 l 835 217 l 743 125 l 54 814 l 146 906 z "},"↓":{"ha":971,"x_min":53,"x_max":918,"o":"m 918 556 l 918 368 l 489 -65 l 53 368 l 53 556 l 489 117 l 918 556 m 550 1033 l 550 58 l 421 58 l 421 1033 l 550 1033 z "},"↙":{"ha":969,"x_min":90,"x_max":915,"o":"m 225 828 l 218 214 l 838 215 l 706 82 l 90 85 l 93 694 l 225 828 m 824 906 l 915 814 l 226 125 l 135 217 l 824 906 z "},"←":{"ha":1226,"x_min":64,"x_max":1163,"o":"m 685 50 l 496 50 l 64 479 l 496 917 l 683 917 l 246 479 l 685 50 m 1163 418 l 188 418 l 188 549 l 1163 549 l 1163 418 z "},"↖":{"ha":967,"x_min":89,"x_max":914,"o":"m 225 128 l 92 261 l 89 871 l 704 874 l 838 740 l 218 743 l 225 128 m 824 50 l 133 740 l 225 832 l 914 143 l 824 50 z "},"↔":{"ha":1626,"x_min":63,"x_max":1565,"o":"m 683 51 l 494 51 l 63 481 l 494 918 l 682 918 l 243 481 l 683 51 m 1161 419 l 186 419 l 186 550 l 1161 550 l 1161 419 m 944 51 l 1383 481 l 944 918 l 1132 918 l 1565 481 l 1132 51 l 944 51 m 467 419 l 467 550 l 1440 550 l 1440 419 l 467 419 z "},"◌":{"ha":1111,"x_min":50,"x_max":1060,"o":"m 257 75 q 215 108 235 90 q 178 144 196 125 l 203 168 q 238 133 219 150 q 276 104 256 117 l 257 75 m 115 231 q 92 277 103 253 q 74 326 82 301 l 107 336 q 124 291 114 314 q 144 246 133 268 l 115 231 m 451 -6 q 350 25 396 6 l 363 56 q 408 40 385 46 q 456 28 432 33 l 451 -6 m 53 431 q 51 456 51 443 q 50 482 50 468 q 51 508 50 496 q 53 535 51 521 l 88 532 q 85 507 86 519 q 85 482 85 494 q 85 457 85 469 q 88 433 86 444 l 53 431 m 556 -17 l 556 18 l 557 18 q 606 21 581 18 q 656 28 631 24 l 660 -7 q 609 -14 635 -11 q 557 -17 583 -17 l 556 -17 m 107 628 l 74 639 q 93 688 82 664 q 115 735 104 713 l 146 719 q 124 674 133 697 q 107 628 114 651 m 763 24 l 749 56 q 794 77 772 65 q 835 103 815 89 l 856 75 q 763 24 810 42 m 204 797 l 179 821 q 217 858 197 840 q 258 889 238 875 l 278 861 q 239 831 257 847 q 204 797 221 815 m 933 143 l 910 167 q 940 205 925 185 q 967 244 954 225 l 997 229 q 968 185 983 207 q 933 143 953 163 m 365 908 l 351 939 q 401 957 375 950 q 453 969 426 964 l 458 936 q 411 924 435 931 q 365 908 388 918 m 1039 325 l 1006 336 q 1018 383 1013 360 q 1025 432 1024 407 l 1060 429 q 1052 376 1058 403 q 1039 325 1046 350 m 656 936 q 557 944 608 944 l 557 979 q 610 977 583 979 q 661 969 636 975 l 656 936 m 1025 531 q 1018 580 1024 556 q 1006 628 1013 604 l 1039 638 q 1060 533 1056 588 l 1025 531 m 836 860 q 794 887 815 875 q 749 908 772 899 l 763 939 q 810 917 786 929 q 856 889 833 904 l 836 860 m 967 718 q 910 796 942 760 l 933 819 q 997 733 971 779 l 967 718 z "},"̈":{"ha":0,"x_min":192,"x_max":640,"o":"m 482 815 l 482 992 l 640 992 l 640 815 l 482 815 m 192 815 l 192 992 l 350 992 l 350 815 l 192 815 z "},"̇":{"ha":0,"x_min":328,"x_max":506,"o":"m 328 811 l 328 996 l 506 996 l 506 811 l 328 811 z "},"̀":{"ha":0,"x_min":190,"x_max":500,"o":"m 333 779 l 190 1003 l 381 1003 l 500 779 l 333 779 z "},"́":{"ha":0,"x_min":333,"x_max":643,"o":"m 333 779 l 453 1003 l 643 1003 l 500 779 l 333 779 z "},"̋":{"ha":0,"x_min":232,"x_max":763,"o":"m 232 779 l 343 1003 l 499 1003 l 375 779 l 232 779 m 481 779 l 594 1003 l 763 1003 l 628 779 l 481 779 z "},"̂":{"ha":0,"x_min":158,"x_max":676,"o":"m 158 779 l 332 1003 l 503 1003 l 676 779 l 521 779 l 369 956 l 461 956 l 313 779 l 158 779 z "},"̌":{"ha":0,"x_min":157,"x_max":675,"o":"m 331 779 l 157 1003 l 313 1003 l 464 826 l 372 826 l 521 1003 l 675 1003 l 501 779 l 331 779 z "},"̆":{"ha":0,"x_min":190,"x_max":643,"o":"m 417 772 q 299 794 351 772 q 219 867 247 817 q 190 1003 190 918 l 319 1003 q 343 910 319 938 q 417 882 367 882 q 491 910 467 882 q 515 1003 515 938 l 643 1003 q 614 867 643 918 q 534 794 585 817 q 417 772 483 772 z "},"̊":{"ha":0,"x_min":247,"x_max":585,"o":"m 415 757 q 294 801 342 757 q 247 915 247 844 q 294 1028 247 983 q 415 1072 342 1072 q 538 1028 490 1072 q 585 915 585 983 q 538 801 585 844 q 415 757 490 757 m 415 839 q 469 860 449 839 q 489 914 489 881 q 469 969 489 949 q 415 989 449 989 q 363 969 383 989 q 342 914 342 949 q 363 860 342 881 q 415 839 383 839 z "},"̃":{"ha":0,"x_min":171,"x_max":664,"o":"m 518 765 q 453 783 482 765 q 400 824 424 801 q 357 864 376 846 q 322 882 338 882 q 297 861 304 882 q 290 810 290 840 l 171 810 q 209 954 172 903 q 313 1006 246 1006 q 376 988 347 1006 q 428 948 404 971 q 474 908 453 925 q 510 890 494 890 q 539 913 532 890 q 546 965 546 935 l 664 965 q 626 817 664 869 q 518 765 588 765 z "},"̄":{"ha":0,"x_min":204,"x_max":631,"o":"m 204 804 l 204 928 l 631 928 l 631 804 l 204 804 z "},"̒":{"ha":0,"x_min":332,"x_max":519,"o":"m 332 779 l 332 915 q 346 969 332 950 q 381 995 360 988 q 424 1003 403 1003 l 519 1003 l 519 940 l 426 940 q 408 921 408 940 l 408 892 l 501 892 l 501 779 l 332 779 z "},"̦":{"ha":0,"x_min":314,"x_max":501,"o":"m 314 -293 l 314 -231 l 407 -231 q 425 -211 425 -231 l 425 -182 l 332 -182 l 332 -81 l 501 -81 l 501 -206 q 488 -258 501 -239 q 452 -285 474 -278 q 410 -293 431 -293 l 314 -293 z "},"̧":{"ha":0,"x_min":294,"x_max":583,"o":"m 417 -293 l 294 -293 l 294 -214 l 417 -214 q 454 -203 442 -214 q 467 -174 467 -192 q 454 -145 467 -156 q 417 -135 442 -135 l 332 -135 l 365 38 l 475 38 l 449 -86 l 374 -60 l 446 -60 q 548 -90 513 -60 q 583 -171 583 -119 q 540 -261 583 -229 q 417 -293 497 -293 z "},"̨":{"ha":0,"x_min":200,"x_max":417,"o":"m 335 -278 q 235 -243 271 -278 q 200 -154 200 -208 q 217 -84 200 -117 q 274 -6 233 -51 l 342 76 l 417 0 l 360 -83 q 347 -106 353 -93 q 342 -131 342 -118 q 350 -156 342 -143 q 382 -168 358 -168 l 414 -168 l 414 -278 l 335 -278 z "},"¨":{"ha":833,"x_min":192,"x_max":640,"o":"m 482 815 l 482 992 l 640 992 l 640 815 l 482 815 m 192 815 l 192 992 l 350 992 l 350 815 l 192 815 z "},"˙":{"ha":833,"x_min":328,"x_max":506,"o":"m 328 811 l 328 996 l 506 996 l 506 811 l 328 811 z "},"`":{"ha":833,"x_min":190,"x_max":500,"o":"m 333 779 l 190 1003 l 381 1003 l 500 779 l 333 779 z "},"´":{"ha":833,"x_min":333,"x_max":643,"o":"m 333 779 l 453 1003 l 643 1003 l 500 779 l 333 779 z "},"˝":{"ha":833,"x_min":232,"x_max":763,"o":"m 232 779 l 343 1003 l 499 1003 l 375 779 l 232 779 m 481 779 l 594 1003 l 763 1003 l 628 779 l 481 779 z "},"ˆ":{"ha":833,"x_min":158,"x_max":676,"o":"m 158 779 l 332 1003 l 503 1003 l 676 779 l 521 779 l 369 956 l 461 956 l 313 779 l 158 779 z "},"ˇ":{"ha":833,"x_min":157,"x_max":675,"o":"m 331 779 l 157 1003 l 313 1003 l 464 826 l 372 826 l 521 1003 l 675 1003 l 501 779 l 331 779 z "},"˘":{"ha":833,"x_min":190,"x_max":643,"o":"m 417 772 q 299 794 351 772 q 219 867 247 817 q 190 1003 190 918 l 319 1003 q 343 910 319 938 q 417 882 367 882 q 491 910 467 882 q 515 1003 515 938 l 643 1003 q 614 867 643 918 q 534 794 585 817 q 417 772 483 772 z "},"˚":{"ha":833,"x_min":247,"x_max":585,"o":"m 415 757 q 294 801 342 757 q 247 915 247 844 q 294 1028 247 983 q 415 1072 342 1072 q 538 1028 490 1072 q 585 915 585 983 q 538 801 585 844 q 415 757 490 757 m 415 839 q 469 860 449 839 q 489 914 489 881 q 469 969 489 949 q 415 989 449 989 q 363 969 383 989 q 342 914 342 949 q 363 860 342 881 q 415 839 383 839 z "},"˜":{"ha":833,"x_min":171,"x_max":664,"o":"m 518 765 q 453 783 482 765 q 400 824 424 801 q 357 864 376 846 q 322 882 338 882 q 297 861 304 882 q 290 810 290 840 l 171 810 q 209 954 172 903 q 313 1006 246 1006 q 376 988 347 1006 q 428 948 404 971 q 474 908 453 925 q 510 890 494 890 q 539 913 532 890 q 546 965 546 935 l 664 965 q 626 817 664 869 q 518 765 588 765 z "},"¯":{"ha":833,"x_min":204,"x_max":631,"o":"m 204 804 l 204 928 l 631 928 l 631 804 l 204 804 z "},"¸":{"ha":833,"x_min":294,"x_max":583,"o":"m 417 -293 l 294 -293 l 294 -214 l 417 -214 q 454 -203 442 -214 q 467 -174 467 -192 q 454 -145 467 -156 q 417 -135 442 -135 l 332 -135 l 365 38 l 475 38 l 449 -86 l 374 -60 l 446 -60 q 548 -90 513 -60 q 583 -171 583 -119 q 540 -261 583 -229 q 417 -293 497 -293 z "},"˛":{"ha":833,"x_min":200,"x_max":417,"o":"m 335 -278 q 235 -243 271 -278 q 200 -154 200 -208 q 217 -84 200 -117 q 274 -6 233 -51 l 342 76 l 417 0 l 360 -83 q 347 -106 353 -93 q 342 -131 342 -118 q 350 -156 342 -143 q 382 -168 358 -168 l 414 -168 l 414 -278 l 335 -278 z "}}}
